<svg width="181" height="189" fill="none" xmlns="http://www.w3.org/2000/svg"><path fill-rule="evenodd" clip-rule="evenodd" d="M102.907 42.734c24.809 7.262 40.729 22.614 56.186 41.264 2.622 3.143 8.691 11.02 11.338 18.117 1.896 5.022 2.005 9.665-1.469 12.223-3.022 2.266-7.225 2.018-11.735.304-9.806-3.688-21.242-14.338-24.421-17.837-14.344-15.708-25.033-33.964-31.426-52.877-1.533-.415-3.084-.82-4.69-1.188-4.85-1.11-10.708-2.001-16.194-1.7-5.333.28-10.337 1.703-13.593 5.222-6.818 7.364-5.795 19.79-1.371 33.037.952 2.893 2.101 5.812 3.349 8.743 2.3.687 4.658 1.593 7.105 2.723 18.855 8.686 40.975 29.167 46.654 35.99 2.534 3.046 7.268 8.586 8.962 13.764 1.223 3.691.919 7.193-2.44 9.625-2.994 2.171-7.041 1.873-11.348.129-9.345-3.782-20.18-14.437-23.426-18.071-7.442-8.243-19.302-25.483-26.92-42.936-4.648-1.267-8.817-1.383-12.109.211-4.602 2.24-5.94 7.41-5.602 13.749.105 1.905.378 3.931.779 6.002.187.11.34.215.51.336 13.556 8.815 26.522 22.675 31.623 29.181 2.296 2.944 6.047 8.48 7.131 13.465.756 3.558.147 6.821-2.994 8.831-3.217 2.085-6.996 1.075-10.509-1.311-4.796-3.22-9.138-8.962-10.73-11.107-4.495-6.002-13.7-23.708-16.733-38.548-4.03-2.511-8.083-4.574-11.99-5.757-4.098-1.264-8.025-1.588-11.504-.512-8.558 2.701-10.178 11.052-8.591 20.732.48 2.943 1.277 6.012 2.29 9.096 3.687.377 7.72 1.76 11.772 3.823 9.517 4.849 19.187 13.415 24.791 20.722 1.946 2.531 5.023 7.018 5.77 11.069.548 2.923-.122 5.586-2.976 7.281-3.479 2.05-7.4 1.388-11.166-.552-5.227-2.684-10.102-7.876-12.709-10.594-5.11-5.321-12.645-17.782-16.911-30.259-1.511-.046-2.947.116-4.297.53-5.054 1.558-8.523 6.572-9.33 16.626-.385 4.86-.175 9.77 1.126 14.614 1.88 6.953 5.272 13.261 9.3 19.54.252.4.094.887-.363 1.08-.456.194-1.037.032-1.288-.369-4.125-6.447-7.602-12.878-9.499-19.974-1.35-4.992-1.59-10.062-1.186-15.089.864-10.935 4.985-16.244 10.488-17.94 1.419-.432 2.91-.629 4.492-.63-.957-2.992-1.713-5.986-2.17-8.841-1.737-10.504.419-19.433 9.723-22.388 6.874-2.149 15.378.59 23.808 5.605a46.528 46.528 0 01-.535-4.7c-.404-7.04 1.388-12.657 6.486-15.141 3.382-1.653 7.64-1.723 12.34-.618a132.495 132.495 0 01-2.964-7.789c-4.605-13.82-5.419-26.743 1.672-34.437 2.875-3.118 6.956-4.763 11.472-5.461 6.603-1 14.178.035 20.196 1.413a82 82 0 013.704.93 111.51 111.51 0 01-1.885-6.361c-1.418-5.255-2.885-11.63-2.429-17.511.302-4.039 1.492-7.832 4.133-10.953 3.785-4.45 9.263-5.797 15.105-5.458 5.66.329 11.647 2.24 16.616 4.297 21.809 8.924 39.809 24.44 46.803 44.449.15.415-.136.856-.633.974-.48.105-1.014-.163-1.179-.594-6.851-19.539-24.447-34.676-45.748-43.392-4.782-1.947-10.509-3.795-15.903-4.117-5.231-.3-10.15.839-13.529 4.821-3.069 3.628-3.976 8.264-3.88 13.018.114 4.87 1.293 9.895 2.461 14.185.659 2.416 1.37 4.825 2.164 7.23l.026.06zm-83.37 92.575c3.245.46 6.775 1.733 10.307 3.543 9.282 4.719 18.676 13.08 24.155 20.187 1.831 2.374 4.774 6.589 5.467 10.393.422 2.314.016 4.447-2.245 5.784-2.853 1.695-6.038 1.018-9.131-.564-5.023-2.587-9.67-7.593-12.189-10.214-4.93-5.157-12.164-17.069-16.364-29.129zm31.454-23.762c12.954 8.692 25.192 21.82 30.108 28.062 2.196 2.803 5.813 8.068 6.822 12.845.614 2.932.25 5.678-2.334 7.353-2.53 1.639-5.457.615-8.2-1.245-4.594-3.094-8.745-8.627-10.267-10.664-4.28-5.706-12.844-22.085-16.1-36.319l-.03-.032zM68 88.5c1.746.585 5.284 2.837 7.132 3.69 18.57 8.563 40.358 28.746 45.982 35.477 2.431 2.933 7.024 8.257 8.676 13.233 1.015 3.056.895 6.003-1.897 8.017-1.607 1.17-3.582 1.373-5.755 1.014-2.367-.414-4.916-1.529-7.49-2.985-7.985-4.561-16.099-12.625-18.818-15.653-7.19-7.97-20.29-25.929-27.83-42.793zm35.517-43.907c23.724 7.273 39.075 22.226 54.053 40.29 2.548 3.062 8.459 10.734 11.078 17.644.833 2.227 1.34 4.384 1.23 6.274-.127 1.747-.741 3.246-2.17 4.326-1.647 1.221-3.711 1.483-6.001 1.122-2.454-.382-5.141-1.459-7.865-2.922-8.392-4.502-16.909-12.534-19.576-15.443-13.931-15.258-24.388-32.947-30.749-51.291z" fill="#E4E4E4" stroke="#292929" stroke-width="2.271" stroke-miterlimit="10"/></svg>