<svg width="189" height="29" viewBox="0 0 189 29" fill="none" xmlns="http://www.w3.org/2000/svg">
<path d="M37.2588 0.272217V17.3937C37.2588 19.4061 37.6368 21.0758 38.3901 22.4083C39.5078 24.4207 41.3951 25.4242 44.0465 25.4242C47.2255 25.4242 49.3902 24.3364 50.5323 22.1609C51.1469 20.9779 51.4569 19.3898 51.4569 17.391V0.272217H55.2669V15.8273C55.2669 19.2348 54.8073 21.8536 53.8908 23.6892C52.2075 27.0341 49.0258 28.7038 44.3511 28.7038C39.6764 28.7038 36.5001 27.0314 34.8304 23.6892C33.9085 21.8563 33.4489 19.2348 33.4489 15.8273V0.272217H37.2588Z" fill="#292929"/>
<path d="M63.2781 0.272217L71.2352 23.8605L79.097 0.272217H83.3013L73.1959 27.9696H69.2174L59.131 0.272217H63.2781Z" fill="#292929"/>
<path d="M87.2064 0.272217H107.401V3.66606H90.864V12.0745H106.155V15.2807H90.864V24.6709H107.684V27.9696H87.2064V0.272217Z" fill="#3DB0F0"/>
<path d="M112.603 0.272217H117.033L131.025 22.7102V0.272217H134.59V27.9696H130.386L116.187 5.55062V27.9696H112.606V0.272217H112.603Z" fill="#292929"/>
<path d="M160.623 0.272217V3.57088H151.29V27.9696H147.48V3.57088H138.147V0.272217H160.623Z" fill="#292929"/>
<path d="M169.777 9.0551L160.718 14.141L169.777 19.2269L174.86 28.282L179.941 19.2269L189 14.141L179.941 9.0551L174.86 0L169.777 9.0551Z" fill="#FED467"/>
<path d="M9.31601 17.5138L4.658 25.8608L9.61897 28.8261L14.277 20.4793L18.935 28.8261L23.8959 25.8608L19.2379 17.5138H28.554V11.5845H19.2379L23.8959 3.23765L18.935 0.272217L14.277 8.61913L9.61897 0.272217L4.658 3.23765L9.31601 11.5845H0V17.5138H9.31601Z" fill="#FF9DC6"/>
</svg>
