<svg width="448" height="448" fill="none" xmlns="http://www.w3.org/2000/svg"><path d="M398.378 298.724l-2.879-1.056 7.41-20.207 2.878 1.055-7.409 20.208zm7.201-19.639l-9.444-3.463 1.285-3.502 9.45 3.444-1.291 3.521zm-8.331 22.72l-9.412-3.493 1.284-3.502 9.426 3.456-1.298 3.539zm26.221 2.188l-2.898-1.063 4.29-11.699 2.898 1.063-4.29 11.699zm-1.116 3.044l-26.7-9.79 1.291-3.521 26.7 9.79-1.291 3.521zm5.849-15.954l-1.297 3.539-10.544-4.49a39.357 39.357 0 01-4.307-2.099 32.496 32.496 0 01-3.406-2.227 21.403 21.403 0 01-2.595-2.283 14.834 14.834 0 01-1.775-2.252c-.452-.735-.785-1.453-.998-2.156a5.754 5.754 0 01-.264-1.948l.592-1.613 2.879 1.055-.417 1.137c.226.444.589.986 1.089 1.627.495.653 1.182 1.37 2.061 2.149.887.797 2.02 1.622 3.399 2.474 1.375.865 3.057 1.724 5.046 2.579l10.537 4.508zm-30.033 36.599l-2.69-1.472 7.384-13.503 2.69 1.471-7.384 13.504zm17.83-7.124l-24.95-13.644 1.808-3.307 24.951 13.644-1.809 3.307zm-8.677 15.869l-24.951-13.644 1.8-3.29 24.95 13.643-1.799 3.291zm-25.046-2.022l9.04 24.384-2.273 3.008-22.687-17.146 2.272-3.007 17.499 13.224-9.056-24.396 2.261-2.992 22.688 17.145-2.261 2.992-17.483-13.212zm-52.996 56.676l6.395-4.102 1.656 2.581-6.396 4.102c-1.238.794-2.114 1.635-2.628 2.521-.515.887-.722 1.793-.623 2.72.088.933.421 1.849.997 2.748a6.067 6.067 0 002.03 1.97c.814.499 1.746.721 2.794.667 1.056-.043 2.203-.461 3.441-1.256l5.655-3.627-13.687-21.339 3.173-2.035 15.353 23.936-8.828 5.663c-1.808 1.16-3.537 1.828-5.188 2.005-1.65.177-3.153-.081-4.51-.773-1.349-.681-2.478-1.729-3.385-3.143-.984-1.534-1.501-3.051-1.55-4.551-.049-1.5.368-2.936 1.252-4.307.891-1.36 2.24-2.62 4.049-3.78zm-31.292 20.682l-.755-1.631c-.897-1.937-1.459-3.786-1.686-5.547-.227-1.76-.134-3.388.278-4.885a9.992 9.992 0 012.137-3.982c1.002-1.152 2.289-2.093 3.86-2.82 1.524-.706 3.056-1.071 4.594-1.095a10.416 10.416 0 014.438.937c1.419.649 2.739 1.623 3.958 2.924 1.219 1.301 2.278 2.92 3.175 4.857l.755 1.631c.898 1.938 1.451 3.784 1.661 5.538.203 1.771.093 3.407-.331 4.909a10.12 10.12 0 01-2.13 4c-1.013 1.158-2.282 2.09-3.806 2.796-1.572.728-3.121 1.101-4.648 1.119a9.894 9.894 0 01-4.427-.963c-1.42-.648-2.728-1.628-3.923-2.94-1.202-1.294-2.252-2.91-3.15-4.848zm2.63-3.198l.772 1.666c.711 1.536 1.5 2.821 2.366 3.854.855 1.04 1.769 1.822 2.744 2.346a6.482 6.482 0 003.061.799c1.054.015 2.13-.233 3.229-.742 1.063-.492 1.93-1.145 2.601-1.958.66-.807 1.11-1.755 1.353-2.843.23-1.082.237-2.291.021-3.626s-.68-2.77-1.392-4.306l-.771-1.666c-.717-1.548-1.517-2.842-2.4-3.882-.878-1.028-1.813-1.808-2.805-2.338-.999-.514-2.019-.78-3.061-.8-1.054-.014-2.113.225-3.176.718-1.111.514-2.002 1.177-2.673 1.99a6.362 6.362 0 00-1.334 2.835c-.225 1.095-.218 2.304.022 3.628.246 1.335.727 2.777 1.443 4.325zm-17.014 5.802l13.89 12.202-4.256 1.171-10.557-9.878-5.159 1.419-.245-3.174 6.327-1.74zm-1.881.821l4.444-14.997 4.519-1.243-5.805 18.734-3.158-2.494zm-2.496 16.406l-7.542-27.419 3.597-.99 7.542 27.419-3.597.99zm-14.538 3.999l5.733-17.6 6.139-1.689 1.394 2.858-4.972 1.367-4.019 13.888-4.275 1.176zm-3.738-28.466l11.469 10.62-1.456 3.763-14.533-13.139 4.52-1.244z" fill="#fff"/><path d="M232.385 413.529l-.307-3.051 21.416-2.154.307 3.051-21.416 2.154zm20.813-2.093l-1.007-10.008 3.712-.374 1.026 10.007-3.731.375zm-24.078 2.422l-.965-9.993 3.711-.373 1.005 9.988-3.751.378zm9.477 24.546l-.309-3.071 12.399-1.247.309 3.071-12.399 1.247zm-3.226.324l-2.846-28.295 3.731-.375 2.846 28.295-3.731.375zm16.907-1.7l-3.75.377-.563-11.447a39.31 39.31 0 01.009-4.79c.101-1.463.274-2.809.517-4.037.242-1.228.549-2.339.921-3.332.372-.979.79-1.839 1.252-2.579a9.287 9.287 0 011.503-1.84c.527-.485 1.073-.847 1.638-1.087l1.71-.172.307 3.051-1.205.121c-.301.397-.63.96-.989 1.69-.371.731-.716 1.662-1.034 2.793-.329 1.145-.577 2.525-.742 4.138-.178 1.614-.217 3.503-.117 5.665l.543 11.449zm-45.951-24.146l.118-3.064 15.048.581-.118 3.064-15.048-.581zm13.307 25.904l1.098-28.417 3.766.146-1.097 28.416-3.767-.145zm-11.823-12.693l.118-3.064 13.057.504-.119 3.065-13.056-.505zm-2.268 12.148l.119-3.083 14.853.573-.119 3.084-14.853-.574zm-23.311-15.797l.505-3.024 15.181 2.535-.506 3.025-15.18-2.536zm12.588 14.499l4.685-28.049 3.718.621-4.685 28.049-3.718-.621zm-17.839-2.98l4.686-28.049 3.698.618-4.685 28.049-3.699-.618zm-6.082-24.314l-20.084 16.521-3.586-1.163 8.779-27.049 3.585 1.164-6.771 20.862 20.091-16.54 3.567 1.158-8.778 27.049-3.567-1.158 6.764-20.844zm-38.944-10.747l7.186 3.491 1.336 1.496c1.565 1.485 2.553 3.072 2.963 4.762.403 1.702.167 3.454-.709 5.258-.803 1.651-1.846 2.874-3.129 3.669-1.296.79-2.762 1.156-4.399 1.099-1.649-.063-3.399-.544-5.249-1.443l-8.187-3.978 12.428-25.578 3.39 1.647-11.078 22.803 4.796 2.33c1.873.911 3.501 1.151 4.882.722 1.369-.435 2.421-1.408 3.155-2.918.478-.984.7-1.962.666-2.934-.046-.978-.371-1.889-.975-2.732-.603-.843-1.514-1.561-2.732-2.153l-5.71-2.774 1.366-2.767zm4.909 4.556l11.912-8.696 3.601 1.75-12.087 8.611-3.426-1.665zM72.4 338.315l2.343-1.98 13.895 16.437-2.342 1.98-13.895-16.437zm13.505 15.974l7.682-6.493 2.408 2.849-7.669 6.508-2.42-2.864zm-15.622-18.48l7.692-6.451 2.408 2.848-7.667 6.482-2.433-2.879zm-14.875 21.704l2.357-1.992 8.045 9.516-2.357 1.992-8.045-9.516zm-2.093-2.476l21.718-18.359 2.42 2.864-21.717 18.359-2.42-2.864zm10.97 12.977l-2.433-2.879 9.119-6.942a39.276 39.276 0 013.954-2.703 32.507 32.507 0 013.62-1.859 21.37 21.37 0 013.269-1.126c1.019-.247 1.964-.39 2.835-.427a9.264 9.264 0 012.367.198c.698.16 1.306.405 1.824.735l1.11 1.312-2.343 1.98-.781-.925c-.497-.023-1.148.024-1.952.142-.813.107-1.776.35-2.889.728-1.13.376-2.408.953-3.831 1.73-1.432.767-3.01 1.803-4.737 3.109l-9.132 6.927zM47.24 323.67l2.612-1.608 8.07 13.105-2.61 1.608-8.071-13.105zm-2.647 19.017l24.215-14.912 1.976 3.21-24.214 14.912-1.977-3.21zm-9.484-15.4l24.215-14.912 1.966 3.193-24.214 14.912-1.967-3.193zm14.297-20.429l-25.67-4.169-1.494-3.461 26.107-11.273 1.495 3.46-20.137 8.695 25.688 4.162 1.486 3.443-26.107 11.273-1.487-3.443 20.119-8.687zm-22.978-73.749l.381 7.588-3.062.154-.381-7.589c-.074-1.469-.368-2.647-.882-3.534s-1.197-1.517-2.05-1.892c-.854-.387-1.814-.554-2.88-.5a6.064 6.064 0 00-2.719.781c-.837.46-1.493 1.157-1.967 2.094-.488.937-.695 2.14-.621 3.61l.337 6.71 25.32-1.271.189 3.765-28.402 1.426-.526-10.476c-.108-2.145.172-3.978.839-5.498.666-1.519 1.637-2.696 2.912-3.529 1.262-.833 2.732-1.291 4.41-1.375 1.82-.092 3.393.214 4.72.917 1.325.702 2.364 1.778 3.114 3.226.738 1.449 1.16 3.247 1.268 5.393zm-2.388-38.484l1.79.159c2.127.189 4.01.625 5.649 1.307 1.639.681 3.004 1.574 4.095 2.678a9.99 9.99 0 012.384 3.839c.5 1.443.672 3.027.519 4.752-.149 1.673-.597 3.183-1.344 4.528a10.415 10.415 0 01-3.026 3.378c-1.27.907-2.773 1.564-4.509 1.972-1.735.407-3.667.517-5.794.328l-1.79-.16c-2.127-.189-4.002-.63-5.627-1.324-1.637-.707-3-1.619-4.09-2.736a10.126 10.126 0 01-2.404-3.841c-.498-1.456-.672-3.021-.524-4.694.154-1.725.604-3.254 1.35-4.586a9.912 9.912 0 013.043-3.357c1.27-.907 2.772-1.551 4.506-1.933 1.721-.396 3.645-.499 5.772-.31zm1.46 3.875l-1.829-.163c-1.686-.149-3.193-.107-4.521.128-1.327.222-2.461.624-3.402 1.207a6.483 6.483 0 00-2.22 2.254c-.538.906-.86 1.962-.968 3.169-.104 1.167.03 2.244.399 3.231.37.974.967 1.838 1.79 2.591.822.74 1.866 1.349 3.13 1.827 1.265.479 2.74.793 4.427.943l1.829.163c1.699.151 3.22.103 4.561-.144 1.33-.247 2.472-.669 3.427-1.264.943-.609 1.683-1.36 2.22-2.253.538-.907.859-1.943.963-3.111.108-1.219-.023-2.322-.392-3.309a6.37 6.37 0 00-1.791-2.571c-.836-.741-1.888-1.338-3.155-1.791-1.28-.453-2.77-.756-4.468-.907zm3.262-17.064l-17.478 6.028 1.09-4.278 13.808-4.282 1.321-5.186 2.88 1.359-1.621 6.359zm.218-2.041l10.83 11.285-1.157 4.542-13.403-14.318 3.73-1.509zm-13.02-10.29l27.558 7.02-.92 3.615-27.558-7.02.92-3.615zm3.723-14.612l12.454 13.694-1.572 6.17-3.173-.203 1.273-4.997L18.59 158.79l1.094-4.297zm26.584 10.844l-14.906 4.708-2.548-3.128 18.61-6.122-1.157 4.542zm8.736-28.307l2.796 1.257-8.826 19.631-2.796-1.258 8.826-19.63zm-8.578 19.078l9.174 4.125-1.53 3.402-9.182-4.107 1.538-3.42zm9.923-22.071l9.14 4.152-1.53 3.403-9.156-4.117 1.546-3.438zm-25.999-4.044l2.814 1.265-5.11 11.365-2.814-1.265 5.11-11.365zm1.33-2.957l25.936 11.661-1.538 3.42-25.936-11.661 1.538-3.42zm-6.968 15.498l1.545-3.438 10.199 5.227a39.147 39.147 0 014.146 2.4 32.377 32.377 0 013.24 2.463 21.398 21.398 0 012.427 2.461c.662.812 1.2 1.603 1.61 2.373.398.765.68 1.505.843 2.221.157.699.198 1.353.124 1.962l-.705 1.567-2.796-1.257.496-1.104c-.194-.459-.517-1.025-.97-1.7-.448-.687-1.083-1.451-1.904-2.291-.828-.858-1.9-1.761-3.215-2.709-1.31-.96-2.927-1.937-4.85-2.93l-10.19-5.245zm42.99-26.597l2.605 1.618-7.943 12.793-2.605-1.618 7.943-12.793zM38.606 114.7l24.159 15.001-1.989 3.202-24.159-15 1.989-3.203zm16.877-4.004l2.605 1.618-6.892 11.1-2.605-1.617 6.892-11.101zm-9.44-7.976l2.623 1.628-7.84 12.627-2.622-1.628 7.84-12.627zm25.6-12.93l2.37 1.944-9.764 11.897-2.37-1.945 9.764-11.897zM52.8 93.476l21.982 18.04-2.391 2.914-21.983-18.04 2.392-2.914zm11.473-13.98l21.983 18.04-2.38 2.899-21.982-18.041 2.38-2.899zm24.331 6.457L84.216 60.32l2.789-2.537 19.136 21.035-2.788 2.537-14.76-16.224 4.4 25.648-2.773 2.523-19.136-21.035 2.773-2.524 14.747 16.21zm27.991-28.147l-6.578 4.532-1.96.426c-2.064.63-3.932.708-5.604.232-1.68-.487-3.089-1.557-4.226-3.208-1.042-1.512-1.592-3.022-1.651-4.53-.049-1.517.355-2.973 1.211-4.37.867-1.404 2.148-2.689 3.842-3.856l7.495-5.164 16.134 23.417-3.104 2.139-14.384-20.876-4.39 3.025c-1.716 1.182-2.727 2.48-3.034 3.893-.297 1.406.032 2.8.985 4.184.62.9 1.362 1.575 2.225 2.024.874.442 1.826.608 2.857.498 1.032-.11 2.105-.548 3.22-1.317l5.227-3.601 1.735 2.552zm-6.384 2.026l1.698 14.65-3.297 2.272-1.537-14.76 3.136-2.162zm88.247-24.496l.563 3.015-21.157 3.951-.563-3.014 21.157-3.952zm-20.562 3.841l1.846 9.888-3.667.684-1.866-9.884 3.687-.688zm23.788-4.443l1.804 9.875-3.667.685-1.843-9.868 3.706-.692zm-11.513-23.66l.567 3.034-12.249 2.288-.567-3.034 12.249-2.288zm3.187-.595l5.221 27.954-3.686.689-5.221-27.954 3.686-.689zm-16.703 3.12l3.705-.692 1.526 11.358c.239 1.704.37 3.295.395 4.774a32.385 32.385 0 01-.175 4.066 21.21 21.21 0 01-.637 3.398 14.76 14.76 0 01-1.03 2.676 9.316 9.316 0 01-1.342 1.96c-.485.527-.998.934-1.541 1.22l-1.689.316-.563-3.014 1.19-.222c.266-.42.547-1.01.842-1.767.309-.76.574-1.716.796-2.87.231-1.17.362-2.565.39-4.186.041-1.624-.079-3.509-.361-5.655l-1.506-11.362zm46.878 7.425l.106 3.064-15.381.535-.106-3.065 15.381-.534zm-15.22-11.705l.987 28.42-3.767.131-.988-28.42 3.768-.131zm18.075-.628l.987 28.42-3.747.13-.988-28.42 3.748-.13zm11.39 22.464l16.361-20.215 3.746.42-3.172 28.26-3.746-.42 2.446-21.796-16.363 20.234-3.727-.418 3.173-28.26 3.726.418-2.444 21.777zm75.741 16.494l-6.771-3.446 1.391-2.733 6.771 3.446c1.311.668 2.479 1 3.504.995 1.025-.005 1.912-.283 2.662-.837.761-.548 1.383-1.297 1.868-2.25.443-.87.668-1.785.674-2.746.019-.955-.26-1.87-.836-2.748-.57-.89-1.511-1.668-2.822-2.335l-5.988-3.048-11.499 22.593-3.36-1.71 12.9-25.343 9.347 4.757c1.915.975 3.365 2.13 4.351 3.464.986 1.335 1.524 2.763 1.612 4.283.094 1.51-.24 3.012-1.002 4.509-.827 1.625-1.875 2.837-3.145 3.637-1.269.8-2.719 1.166-4.349 1.096-1.624-.081-3.393-.61-5.308-1.584zm34.056 16.621l-1.025 1.476c-1.218 1.754-2.529 3.174-3.933 4.26-1.404 1.085-2.856 1.829-4.355 2.23a9.994 9.994 0 01-4.516.17c-1.501-.282-2.963-.916-4.385-1.904-1.38-.958-2.469-2.095-3.268-3.41a10.42 10.42 0 01-1.435-4.302c-.158-1.553.015-3.184.521-4.894.505-1.71 1.367-3.441 2.585-5.195l1.025-1.476c1.218-1.754 2.531-3.165 3.938-4.233 1.425-1.07 2.893-1.803 4.403-2.197a10.125 10.125 0 014.528-.186c1.511.29 2.957.913 4.336 1.87 1.423.989 2.528 2.136 3.316 3.444a9.906 9.906 0 011.408 4.307c.159 1.553-.026 3.177-.553 4.871-.509 1.692-1.372 3.415-2.59 5.169zm-4.089-.652l1.047-1.508c.966-1.39 1.675-2.72 2.129-3.99.465-1.263.677-2.448.636-3.554a6.487 6.487 0 00-.857-3.044c-.521-.917-1.279-1.72-2.274-2.411-.962-.669-1.964-1.087-3.004-1.255-1.03-.16-2.076-.07-3.137.271-1.051.349-2.097.954-3.139 1.816-1.042.861-2.046 1.987-3.012 3.377l-1.047 1.508c-.973 1.401-1.684 2.746-2.135 4.034-.443 1.278-.643 2.478-.599 3.603.062 1.12.347 2.135.858 3.044.52.917 1.262 1.71 2.225 2.378 1.005.698 2.028 1.131 3.069 1.299a6.368 6.368 0 003.12-.282c1.058-.36 2.098-.977 3.118-1.854 1.028-.887 2.029-2.031 3.002-3.432zm14.261 12.168l3.479-18.158 3.167 3.075-3.166 14.107 3.839 3.729-2.612 1.82-4.707-4.573zm1.661 1.205l-15.18 3.77-3.362-3.265 19.092-4.49-.55 3.985zm15.408-6.163l-19.814 20.399-2.676-2.6L372.14 68.23l2.676 2.6zm10.816 10.506l-18.078 3.978-4.567-4.436 1.757-2.65 3.698 3.593 14.009-3.574 3.181 3.089zm-22.644 17.65l3.341-15.27 3.982-.652-3.961 19.188-3.362-3.266z" fill="#fff"/><path d="M382.726 119.896l-2.473 1.813-12.725-17.359 2.473-1.813 12.725 17.359zm-12.367-16.871l-8.112 5.947-2.206-3.009 8.101-5.962 2.217 3.024zm14.307 19.518l-8.12 5.903-2.205-3.009 8.096-5.935 2.229 3.041zm16.34-20.623l-2.489 1.824-7.367-10.05 2.489-1.824 7.367 10.05zm1.917 2.615l-22.936 16.812-2.217-3.025 22.936-16.812 2.217 3.025zM392.877 90.83l2.229 3.04-9.578 6.294a39.214 39.214 0 01-4.132 2.424 32.464 32.464 0 01-3.74 1.603 21.402 21.402 0 01-3.338.897 14.796 14.796 0 01-2.859.231 9.33 9.33 0 01-2.347-.362c-.686-.208-1.275-.494-1.768-.859l-1.017-1.386 2.474-1.813.716.976c.494.058 1.146.056 1.957-.005.818-.051 1.795-.227 2.931-.527 1.155-.297 2.469-.784 3.942-1.46 1.482-.667 3.129-1.592 4.941-2.775l9.589-6.278zm2.416 51.397l-2.696 1.461-7.176-13.239 2.696-1.461 7.176 13.239zm15.492-24.66l-25.001 13.552-1.796-3.314 25.001-13.552 1.796 3.314zm-4.886 16.645l-2.695 1.461-6.227-11.488 2.696-1.461 6.226 11.488zm11.606-4.247l-2.713 1.47-7.083-13.067 2.713-1.47 7.083 13.067zm-1.72 28.047l-2.863 1.099-5.514-14.368 2.862-1.099 5.515 14.368zm6.11-18.202L395.346 150l-1.351-3.52 26.549-10.189 1.351 3.519zm6.481 16.885l-26.55 10.19-1.343-3.501 26.549-10.19 1.344 3.501zm-17.678 17.916l24.434 8.908.819 3.679-27.759 6.179-.819-3.68 21.41-4.765-24.452-8.904-.815-3.66 27.758-6.179.815 3.661-21.391 4.761zm10.536 38.265l-.677-7.959.602-1.914c.474-2.105 1.332-3.766 2.575-4.982 1.255-1.218 2.882-1.911 4.88-2.081 1.829-.156 3.414.114 4.754.811 1.341.709 2.406 1.781 3.194 3.217.79 1.449 1.272 3.198 1.446 5.248l.772 9.069-28.336 2.41-.319-3.756 25.26-2.149-.452-5.313c-.176-2.075-.802-3.597-1.877-4.564-1.075-.954-2.449-1.36-4.122-1.217-1.09.092-2.044.402-2.862.929-.816.54-1.432 1.285-1.848 2.235-.416.95-.566 2.1-.452 3.449l.538 6.325-3.076.242zm1.403-6.549l-13.566-5.785-.34-3.989 13.583 5.979.323 3.795z" fill="#fff"/></svg>