<svg width="460" height="460" fill="none" xmlns="http://www.w3.org/2000/svg"><path d="M418.23 305.25l-1.251 3.535c-1.629-.784-2.973-1.805-4.033-3.065-1.06-1.259-1.728-2.746-2.006-4.46-.265-1.71-.017-3.639.743-5.787.556-1.572 1.356-2.897 2.401-3.978a10.114 10.114 0 013.67-2.409c1.419-.534 2.978-.783 4.678-.747 1.708.052 3.501.411 5.379 1.075l2.669.946c1.878.665 3.491 1.512 4.84 2.542 1.356 1.046 2.415 2.229 3.177 3.549a10.21 10.21 0 011.318 4.3c.12 1.534-.114 3.13-.7 4.787-.716 2.025-1.703 3.603-2.959 4.733-1.256 1.13-2.696 1.842-4.32 2.137-1.616.312-3.34.248-5.173-.194l1.251-3.535c1.313.271 2.5.332 3.561.183a5.278 5.278 0 002.802-1.245c.795-.686 1.438-1.722 1.929-3.109.421-1.191.566-2.321.433-3.39a6.718 6.718 0 00-1.132-2.949c-.622-.897-1.461-1.706-2.519-2.425-1.057-.72-2.298-1.332-3.722-1.836l-2.706-.958a17.238 17.238 0 00-3.844-.906c-1.254-.126-2.416-.061-3.488.195a6.664 6.664 0 00-2.824 1.425c-.799.697-1.41 1.641-1.831 2.832-.534 1.51-.72 2.798-.559 3.863a4.984 4.984 0 001.346 2.756c.731.783 1.687 1.495 2.87 2.135zm-4.814 20.324l3.269-6.423 2.715 1.339-2.967 5.831c-.49.963-.756 1.887-.797 2.772-.041.885.14 1.679.542 2.38.408.72 1.036 1.295 1.883 1.726.928.473 1.774.677 2.537.613.769-.047 1.473-.368 2.112-.963.645-.578 1.25-1.424 1.817-2.538l2.516-4.944-22.592-11.503 1.709-3.359 25.342 12.903-4.225 8.303c-.661 1.3-1.385 2.392-2.171 3.278-.775.891-1.621 1.549-2.539 1.973a5.813 5.813 0 01-2.921.573c-1.036-.06-2.146-.391-3.329-.994-1.044-.532-1.854-1.28-2.43-2.245-.563-.959-.87-2.051-.92-3.274-.055-1.212.163-2.488.656-3.83l-.207-1.618zm-11.773-6.191l3.862-7.59 1.767 3.289-2.896 5.692c-.543 1.068-.818 2.067-.825 2.999-.012.943.217 1.784.69 2.521.483.743 1.19 1.351 2.118 1.824.94.478 1.838.723 2.693.735.856.012 1.653-.247 2.39-.777.738-.531 1.396-1.365 1.974-2.502l2.436-4.787 2.68 1.409-3.33 6.545-1.338.217c-.724 1.166-1.598 2.021-2.621 2.567a6.36 6.36 0 01-3.211.798c-1.135-.008-2.248-.29-3.339-.845-1.578-.804-2.735-1.832-3.472-3.083-.73-1.234-1.061-2.623-.992-4.166.081-1.537.552-3.152 1.414-4.846zm8.584 35.796l-16.082-22.403 2.171-3.176 17.357 25.002-1.399 2.047-2.047-1.47zm-25.846-8.116l26.717 6.842 2.113 1.374-1.4 2.048-29.612-7.071 2.182-3.193zm8.966 5.54l-2.548-1.742 9.015-13.191 2.547 1.742-9.014 13.191zM366.556 371.9l-2.253-2.08 14.597-15.818 2.252 2.081-14.596 15.817zm14.186-15.372l-7.39-6.824 2.53-2.742 7.403 6.81-2.543 2.756zm-16.411 17.784l-7.349-6.839 2.53-2.742 7.375 6.811-2.556 2.77zm23.368 12.088l-2.267-2.094 8.451-9.158 2.267 2.094-8.451 9.158zm-2.199 2.382l-20.892-19.292 2.543-2.756 20.893 19.292-2.544 2.756zm11.524-12.487l-2.556 2.77-8.012-8.195a39.342 39.342 0 01-3.17-3.592 32.535 32.535 0 01-2.29-3.365 21.227 21.227 0 01-1.52-3.105 14.8 14.8 0 01-.774-2.761 9.338 9.338 0 01-.095-2.374c.073-.713.241-1.346.505-1.9l1.165-1.263 2.253 2.08-.821.89c.038.496.165 1.136.381 1.92.206.793.566 1.719 1.078 2.777.513 1.076 1.242 2.273 2.189 3.59.937 1.326 2.16 2.765 3.669 4.318l7.998 8.21zm-29.916 13.404l-6.011 4.898c-1.615 1.316-3.199 2.154-4.754 2.513-1.546.37-3.001.305-4.366-.196-1.365-.5-2.577-1.402-3.638-2.704-.789-.969-1.351-1.99-1.686-3.06a7.536 7.536 0 01-.264-3.263c.159-1.103.572-2.195 1.237-3.275.674-1.07 1.617-2.098 2.828-3.085l8.236-6.712 17.957 22.051-2.922 2.381-16.021-19.673-5.314 4.331c-1.08.88-1.793 1.788-2.138 2.725-.348.955-.415 1.883-.201 2.784.213.901.62 1.72 1.22 2.457a5.687 5.687 0 002.122 1.647c.814.361 1.708.448 2.68.26.97-.169 1.996-.694 3.076-1.574l6.01-4.898 1.949 2.393zm-28.292 34.063l-1.618-2.627 11.674-7.192-13.291-21.588 3.193-1.967 14.908 24.216-14.866 9.158zm6.35-17.515l-6.602 4.067c-1.774 1.093-3.454 1.715-5.043 1.868-1.581.163-3.015-.092-4.302-.768-1.287-.675-2.371-1.728-3.252-3.158-.655-1.064-1.078-2.149-1.27-3.255a7.528 7.528 0 01.167-3.268c.302-1.074.854-2.102 1.656-3.085.808-.972 1.878-1.868 3.208-2.687l9.046-5.573 14.908 24.216-3.209 1.977-13.301-21.605-5.837 3.596c-1.186.731-2.012 1.537-2.477 2.421-.47.901-.658 1.812-.565 2.733.093.922.389 1.787.887 2.597a5.706 5.706 0 001.888 1.911c.76.464 1.634.667 2.623.609.984-.04 2.069-.426 3.256-1.157l6.601-4.067 1.618 2.628zm-24.481 13.972l-7.141 3.021c-1.919.812-3.675 1.173-5.268 1.083-1.587-.077-2.967-.547-4.137-1.409-1.17-.862-2.082-2.067-2.737-3.614-.486-1.151-.741-2.288-.763-3.41a7.528 7.528 0 01.659-3.205c.462-1.015 1.163-1.948 2.104-2.799.946-.838 2.139-1.562 3.578-2.171l9.785-4.14 11.074 26.192-3.471 1.469-9.881-23.368-6.313 2.671c-1.283.543-2.222 1.216-2.815 2.019-.601.819-.925 1.692-.972 2.616a6.067 6.067 0 00.484 2.701c.37.875.896 1.6 1.577 2.175.681.574 1.515.907 2.501.999.979.109 2.11-.108 3.393-.651l7.141-3.022 1.202 2.843zm-18.154 20.257l-11.075-26.193 3.472-1.469 11.075 26.193-3.472 1.469zm-87.811-8.128l-3.748-.13c.258-1.789.827-3.378 1.709-4.768.883-1.389 2.099-2.474 3.651-3.254 1.551-.767 3.465-1.111 5.742-1.032 1.666.058 3.171.423 4.516 1.096a10.107 10.107 0 013.401 2.776c.936 1.192 1.643 2.604 2.12 4.236.464 1.645.662 3.463.593 5.454l-.099 2.83c-.069 1.991-.392 3.784-.968 5.38-.59 1.608-1.4 2.974-2.429 4.097a10.188 10.188 0 01-3.704 2.549c-1.427.576-3.019.833-4.776.772-2.147-.075-3.948-.541-5.404-1.399-1.455-.859-2.568-2.018-3.338-3.478-.784-1.447-1.241-3.111-1.371-4.992l3.748.13c.136 1.334.435 2.484.896 3.452a5.278 5.278 0 002.031 2.298c.893.552 2.075.854 3.545.905 1.262.044 2.383-.158 3.363-.606a6.728 6.728 0 002.472-1.966c.669-.863 1.187-1.907 1.555-3.132.368-1.225.579-2.592.631-4.101l.1-2.87a17.257 17.257 0 00-.293-3.938c-.257-1.234-.669-2.323-1.235-3.268a6.678 6.678 0 00-2.208-2.265c-.906-.553-1.99-.851-3.252-.895-1.601-.056-2.885.154-3.853.628a4.992 4.992 0 00-2.223 2.112c-.527.933-.918 2.059-1.172 3.379zm-20.708 1.581l7.113 1.161-.449 2.994-6.457-1.054c-1.067-.174-2.028-.146-2.883.084-.856.23-1.556.643-2.102 1.24-.561.608-.918 1.381-1.071 2.319-.168 1.028-.105 1.896.189 2.604.279.718.799 1.291 1.56 1.719.746.438 1.737.758 2.97.959l5.475.893 4.08-25.021 3.72.607-4.577 28.067-9.194-1.5c-1.44-.235-2.701-.592-3.783-1.073-1.085-.467-1.969-1.073-2.653-1.818a5.817 5.817 0 01-1.434-2.608c-.259-1.006-.281-2.164-.067-3.474.188-1.157.655-2.156 1.399-2.998.742-.829 1.688-1.453 2.838-1.872 1.137-.421 2.42-.601 3.848-.54l1.478-.689zm2.314-13.099l8.404 1.372-2.594 2.683-6.304-1.028c-1.182-.193-2.218-.151-3.107.126-.903.275-1.633.749-2.192 1.423-.56.687-.924 1.545-1.092 2.573-.17 1.041-.13 1.971.119 2.79s.739 1.499 1.468 2.04c.73.541 1.725.915 2.984 1.12l5.301.865-.526 2.982-7.248-1.183-.614-1.208c-1.331-.336-2.411-.908-3.243-1.717a6.368 6.368 0 01-1.737-2.816c-.338-1.084-.408-2.23-.211-3.438.285-1.748.911-3.163 1.879-4.245.953-1.072 2.175-1.809 3.666-2.212 1.488-.391 3.171-.433 5.047-.127zm-31.66 18.961l16.539-22.063 3.681 1.119-18.635 24.059-2.373-.721.788-2.394zm-.018-27.094l1.494 27.542-.676 2.428-2.373-.721-2.146-30.374 3.701 1.125zm-2.592 10.215l.896-2.953 15.287 4.646-.897 2.952-15.286-4.645zm-26.231-19.603l1.299-2.778 19.496 9.12-1.299 2.778-19.496-9.12zm18.948 8.863l4.259-9.112 3.379 1.581-4.242 9.12-3.396-1.589zm-21.92-10.253l4.287-9.078 3.379 1.581-4.252 9.094-3.414-1.597zm-4.428 25.938l1.307-2.795 11.287 5.279-1.307 2.796-11.287-5.28zm-2.937-1.374l12.043-25.761 3.396 1.589-12.042 25.761-3.397-1.589zm15.391 7.2l-3.414-1.597 5.378-10.12a39.136 39.136 0 012.46-4.111 32.324 32.324 0 012.511-3.202 21.17 21.17 0 012.497-2.39 14.749 14.749 0 012.396-1.575 9.316 9.316 0 012.232-.81c.701-.146 1.356-.178 1.964-.095l1.557.729-1.299 2.778-1.097-.514c-.461.187-1.032.502-1.714.945-.693.438-1.466 1.061-2.318 1.87-.87.815-1.788 1.873-2.756 3.174-.979 1.296-1.98 2.898-3.001 4.806l-5.396 10.112zm-21.809-24.495l-6.479-4.259c-1.741-1.145-3.017-2.404-3.828-3.778-.818-1.364-1.194-2.772-1.128-4.224.066-1.453.56-2.881 1.482-4.285.686-1.044 1.49-1.888 2.41-2.53a7.525 7.525 0 013.03-1.233c1.1-.181 2.265-.116 3.495.193 1.222.321 2.487.91 3.792 1.769l8.879 5.836-15.612 23.768-3.15-2.07 13.929-21.206-5.729-3.765c-1.164-.766-2.245-1.172-3.242-1.22-1.015-.044-1.92.172-2.715.647a6.063 6.063 0 00-1.975 1.904c-.521.794-.832 1.634-.93 2.52-.099.885.087 1.764.559 2.635.454.874 1.262 1.694 2.427 2.459l6.479 4.259-1.694 2.58zm-40.952-16.71l2.017-2.335 10.372 8.967 16.574-19.184 2.837 2.453-18.591 21.518-13.21-11.419zm18.609.778l-5.866-5.072c-1.576-1.362-2.676-2.778-3.3-4.246-.632-1.459-.82-2.905-.565-4.336.256-1.431.933-2.782 2.031-4.053.817-.946 1.724-1.677 2.72-2.193a7.52 7.52 0 013.166-.826c1.114-.035 2.26.182 3.44.65 1.17.478 2.345 1.228 3.527 2.25l8.038 6.949-18.591 21.518-2.852-2.465 16.587-19.198-5.186-4.484c-1.054-.911-2.072-1.455-3.055-1.633-1-.177-1.925-.082-2.775.285-.85.367-1.586.91-2.208 1.629a5.691 5.691 0 00-1.253 2.376c-.214.865-.144 1.76.21 2.686.335.926 1.03 1.845 2.083 2.756l5.866 5.071-2.017 2.336zM76.2 374.279l-5.047-5.885c-1.357-1.582-2.234-3.145-2.633-4.69-.409-1.537-.38-2.994.085-4.371.465-1.378 1.335-2.613 2.61-3.707.949-.814 1.954-1.403 3.016-1.765a7.535 7.535 0 013.253-.347c1.107.131 2.209.516 3.305 1.154 1.086.646 2.137 1.562 3.155 2.748l6.916 8.066-21.58 18.52-2.454-2.862 19.254-16.523-4.463-5.204c-.907-1.057-1.833-1.747-2.778-2.068-.963-.323-1.892-.367-2.788-.13a6.053 6.053 0 00-2.424 1.283 5.69 5.69 0 00-1.592 2.164c-.34.823-.404 1.719-.192 2.686.194.966.744 1.978 1.651 3.036l5.048 5.886-2.342 2.009zm-24.81-11.137l21.58-18.52 2.455 2.861-21.58 18.52-2.454-2.861zm-18.786-85.455l-1.022-3.608c1.782-.302 3.47-.245 5.062.17 1.593.415 2.997 1.241 4.214 2.48 1.204 1.242 2.117 2.96 2.738 5.152.454 1.604.566 3.148.338 4.634a10.11 10.11 0 01-1.604 4.088c-.849 1.256-1.977 2.36-3.385 3.314-1.424.945-3.095 1.689-5.011 2.232l-2.725.772c-1.917.543-3.723.784-5.418.723-1.712-.07-3.26-.423-4.644-1.059a10.202 10.202 0 01-3.559-2.747c-.984-1.183-1.716-2.62-2.195-4.311-.585-2.067-.692-3.925-.32-5.574.373-1.648 1.136-3.062 2.29-4.242 1.14-1.188 2.584-2.132 4.335-2.831l1.021 3.608c-1.228.537-2.232 1.174-3.011 1.909a5.285 5.285 0 00-1.568 2.636c-.253 1.019-.179 2.237.222 3.652.344 1.216.88 2.221 1.605 3.017a6.726 6.726 0 002.628 1.752c1.026.373 2.178.547 3.457.523 1.279-.024 2.645-.242 4.098-.653l2.762-.783c1.34-.38 2.56-.874 3.66-1.484 1.096-.622 2.007-1.347 2.734-2.175a6.67 6.67 0 001.482-2.795c.249-1.031.202-2.155-.143-3.37-.436-1.541-1.028-2.7-1.775-3.476a4.985 4.985 0 00-2.69-1.471c-1.05-.217-2.242-.244-3.576-.083zm-7.788-19.122l1.05 7.13-2.989.48-.954-6.473c-.157-1.069-.475-1.976-.953-2.722-.479-.745-1.085-1.287-1.82-1.627-.749-.35-1.594-.456-2.534-.317-1.03.152-1.838.475-2.423.969-.6.484-.989 1.153-1.166 2.008-.191.845-.196 1.885-.013 3.122l.808 5.487 25.08-3.698.55 3.729-28.133 4.149-1.358-9.217c-.213-1.443-.255-2.753-.125-3.93.116-1.176.425-2.202.928-3.079a5.82 5.82 0 012.05-2.158c.88-.551 1.977-.923 3.291-1.117 1.16-.171 2.253-.029 3.28.425 1.015.455 1.897 1.168 2.645 2.137.746.956 1.307 2.123 1.681 3.503l1.105 1.199zM38 256.799l1.241 8.424-3.344-1.658-.93-6.319c-.175-1.185-.53-2.159-1.063-2.923-.536-.777-1.21-1.329-2.021-1.657-.825-.325-1.752-.412-2.783-.26-1.043.153-1.917.473-2.622.959-.705.485-1.205 1.158-1.5 2.017-.294.86-.348 1.921-.162 3.183l.783 5.314-3 .403-1.071-7.265.965-.952c-.083-1.37.134-2.573.652-3.611a6.372 6.372 0 012.158-2.509c.93-.651 2.001-1.065 3.212-1.244 1.752-.258 3.29-.09 4.615.504 1.31.584 2.383 1.524 3.22 2.823.823 1.3 1.373 2.89 1.65 4.771zm-27.746-24.632l26.06 9.013.06 3.847-28.602-10.4-.038-2.48 2.52.02zm25.793-8.29l-25.77 9.833-2.517.097-.039-2.48 28.267-11.317.06 3.867zm-10.518.651l3.085-.048.247 15.975-3.086.047-.246-15.974zm10.729-31.601l3.04.401-2.81 21.339-3.04-.401 2.81-21.339zm-2.731 20.739l9.972 1.314-.487 3.699-9.975-1.295.49-3.718zm3.16-23.992l9.948 1.351-.487 3.698-9.953-1.312.492-3.737zm-26.064 3.598l3.06.403-1.628 12.354-3.06-.403 1.628-12.354zm.423-3.215l28.194 3.716-.49 3.718-28.194-3.716.49-3.718zm-2.219 16.847l.492-3.737 11.271 2.076a39.15 39.15 0 014.661 1.107c1.4.434 2.671.91 3.811 1.428 1.14.518 2.15 1.072 3.032 1.661.868.587 1.61 1.19 2.224 1.81a9.305 9.305 0 011.446 1.884c.351.625.579 1.239.683 1.844l-.224 1.704-3.04-.401.158-1.2c-.318-.384-.79-.833-1.418-1.35-.627-.529-1.454-1.078-2.482-1.647-1.04-.583-2.326-1.14-3.858-1.67-1.53-.544-3.36-1.015-5.488-1.413l-11.268-2.096zm16.55-27.677l2.084-7.468c.56-2.007 1.371-3.606 2.434-4.796 1.05-1.194 2.276-1.981 3.68-2.359 1.403-.379 2.913-.342 4.531.109 1.204.337 2.252.845 3.143 1.527a7.522 7.522 0 012.097 2.512c.507.993.8 2.123.88 3.389.066 1.262-.11 2.646-.53 4.151l-2.856 10.234-27.39-7.649 1.013-3.63L38.9 182.07l1.842-6.603c.375-1.342.433-2.495.175-3.459-.267-.981-.748-1.777-1.442-2.39a6.062 6.062 0 00-2.415-1.303 5.69 5.69 0 00-2.683-.121c-.874.175-1.653.62-2.34 1.334-.694.698-1.229 1.719-1.604 3.06l-2.084 7.469-2.972-.83zm3.432-44.184l2.837 1.213-5.387 12.609 23.311 9.965-1.473 3.449L21.949 151.1l6.86-16.057zm4.917 17.97l3.047-7.131c.818-1.915 1.832-3.394 3.041-4.434 1.197-1.046 2.517-1.665 3.958-1.856 1.44-.191 2.933.044 4.478.704 1.149.491 2.12 1.133 2.915 1.926a7.516 7.516 0 011.75 2.766c.371 1.051.514 2.209.426 3.475-.1 1.26-.456 2.608-1.07 4.045l-4.174 9.771L21.949 151.1l1.48-3.466 23.33 9.973 2.693-6.304c.547-1.281.756-2.417.627-3.407-.136-1.007-.508-1.86-1.116-2.558a6.062 6.062 0 00-2.223-1.609 5.687 5.687 0 00-2.644-.472c-.889.059-1.72.397-2.494 1.015-.78.601-1.445 1.542-1.992 2.823l-3.046 7.131-2.838-1.213zm11.714-25.226l4.09-6.588c1.098-1.77 2.324-3.078 3.677-3.924 1.341-.853 2.739-1.265 4.192-1.236 1.453.029 2.893.487 4.32 1.373 1.062.66 1.925 1.441 2.59 2.345a7.527 7.527 0 011.312 2.998c.209 1.096.174 2.262-.104 3.5-.288 1.231-.845 2.51-1.669 3.837l-5.603 9.028-24.157-15.004 1.988-3.203 21.552 13.386 3.615-5.824c.735-1.184 1.113-2.275 1.135-3.273.018-1.016-.221-1.916-.716-2.698a6.05 6.05 0 00-1.954-1.926 5.685 5.685 0 00-2.542-.867c-.888-.076-1.76.133-2.62.627-.862.476-1.66 1.306-2.395 2.489l-4.089 6.588-2.621-1.628zm3.14-27.02l24.157 15.004-1.988 3.203-24.157-15.004 1.988-3.203zm75.836-44.169l3.126-2.072c.829 1.606 1.288 3.231 1.377 4.875.089 1.644-.271 3.234-1.081 4.77-.817 1.525-2.176 2.917-4.075 4.176-1.39.92-2.827 1.498-4.312 1.732a10.104 10.104 0 01-4.38-.284c-1.454-.427-2.849-1.166-4.186-2.218-1.333-1.069-2.549-2.434-3.649-4.095l-1.563-2.362c-1.1-1.66-1.878-3.308-2.336-4.942-.453-1.652-.587-3.234-.402-4.747.196-1.52.708-2.93 1.535-4.227.827-1.298 1.973-2.432 3.439-3.403 1.791-1.187 3.528-1.853 5.211-2 1.683-.147 3.262.15 4.736.892 1.479.723 2.817 1.812 4.015 3.267l-3.126 2.072c-.886-1.007-1.797-1.77-2.734-2.29a5.276 5.276 0 00-2.988-.69c-1.047.068-2.184.51-3.411 1.322-1.052.698-1.848 1.513-2.385 2.447a6.735 6.735 0 00-.87 3.037c-.043 1.09.141 2.242.552 3.453.412 1.211 1.035 2.446 1.868 3.706l1.585 2.394a17.21 17.21 0 002.526 3.035c.925.856 1.893 1.503 2.903 1.943a6.664 6.664 0 003.112.562c1.058-.076 2.114-.463 3.167-1.16 1.335-.885 2.258-1.802 2.771-2.75a4.985 4.985 0 00.583-3.01c-.112-1.067-.448-2.21-1.008-3.433zm15.598-13.172l-6.471 3.174-1.367-2.7 5.874-2.883c.97-.476 1.737-1.055 2.301-1.738.565-.683.896-1.426.996-2.229.105-.82-.051-1.657-.47-2.51-.458-.936-1.012-1.607-1.661-2.014-.643-.424-1.399-.59-2.267-.497-.862.075-1.855.387-2.977.938l-4.98 2.443 11.161 22.763-3.385 1.66L124.25 34.3l8.364-4.104c1.309-.642 2.544-1.081 3.704-1.317 1.155-.248 2.227-.266 3.215-.054a5.82 5.82 0 012.68 1.296c.792.67 1.481 1.6 2.066 2.793.515 1.052.714 2.137.595 3.255-.126 1.105-.535 2.162-1.23 3.17-.684 1.002-1.625 1.892-2.825 2.67l-.805 1.417zm5.697 12.02l-7.645 3.75.561-3.69 5.734-2.813c1.076-.528 1.896-1.162 2.46-1.904.577-.746.898-1.556.963-2.43.059-.884-.141-1.794-.599-2.73-.465-.947-1.035-1.682-1.713-2.205-.677-.524-1.47-.795-2.378-.813-.908-.019-1.935.253-3.08.815l-4.822 2.366-1.298-2.736 6.593-3.234 1.2.629c1.279-.497 2.492-.657 3.637-.479a6.364 6.364 0 013.047 1.29c.903.688 1.624 1.582 2.163 2.68.78 1.59 1.088 3.107.926 4.55-.157 1.426-.726 2.735-1.708 3.927-.987 1.18-2.334 2.19-4.041 3.027zm14.692-33.881l-.644 27.569-3.646 1.23 1.19-30.413 2.351-.793.749 2.407zm15.753 22.04l-17.215-21.547-.86-2.37 2.35-.792 19.39 23.473-3.665 1.235zm-3.824-9.82l.985 2.924-15.139 5.105-.985-2.925 15.139-5.105zm33.599.543l.54 3.018-21.187 3.791-.54-3.018 21.187-3.791zm-20.591 3.684l1.77 9.902-3.672.657-1.789-9.898 3.691-.66zm23.821-4.262l1.728 9.889-3.672.657-1.767-9.882 3.711-.664zm-11.33-23.747l.544 3.038-12.267 2.194-.543-3.037 12.266-2.195zm3.192-.571l5.005 27.993-3.691.66-5.005-27.993 3.691-.66zm-16.727 2.993l3.711-.664 1.438 11.37c.225 1.705.345 3.298.358 4.777a32.445 32.445 0 01-.206 4.065 21.358 21.358 0 01-.663 3.392 14.776 14.776 0 01-1.051 2.668 9.327 9.327 0 01-1.357 1.95c-.489.523-1.005.927-1.55 1.21l-1.692.302-.54-3.018 1.192-.214c.27-.418.555-1.005.856-1.76.315-.757.587-1.712.817-2.864.241-1.168.382-2.562.423-4.183.054-1.624-.052-3.51-.317-5.658l-1.419-11.373zm32.42 7.337l7.749-.269c2.082-.072 3.851.218 5.307.871 1.455.64 2.575 1.572 3.361 2.795.785 1.224 1.206 2.675 1.265 4.353.043 1.25-.125 2.402-.506 3.457a7.515 7.515 0 01-1.76 2.759c-.794.783-1.782 1.404-2.965 1.861-1.183.446-2.555.695-4.117.75l-10.619.369-.987-28.42 3.767-.132.881 25.356 6.852-.238c1.392-.049 2.509-.341 3.35-.879.854-.55 1.468-1.25 1.842-2.096a6.051 6.051 0 00.513-2.695 5.693 5.693 0 00-.696-2.595c-.431-.78-1.091-1.389-1.979-1.827-.876-.452-2.01-.653-3.402-.605l-7.749.27-.107-3.085zm42.982-10.079l-.297 3.071-13.647-1.32-2.439 25.234-3.733-.361 2.736-28.306 17.38 1.682zm-15.637 10.123l7.718.747c2.074.2 3.79.72 5.148 1.557 1.359.825 2.348 1.895 2.966 3.21.619 1.317.847 2.81.686 4.482-.121 1.245-.438 2.365-.953 3.362a7.53 7.53 0 01-2.106 2.504c-.89.672-1.95 1.159-3.183 1.458-1.231.286-2.624.354-4.179.204l-10.576-1.023 2.736-28.306 3.752.363-2.441 25.254 6.824.66c1.386.134 2.532-.01 3.436-.433.919-.434 1.619-1.047 2.101-1.838.482-.79.768-1.659.86-2.605a5.703 5.703 0 00-.351-2.663c-.325-.83-.9-1.52-1.723-2.07-.809-.562-1.907-.91-3.294-1.045l-7.717-.746.296-3.072zm28.045 3.626l7.514 1.915c2.019.514 3.635 1.289 4.85 2.324 1.217 1.022 2.031 2.23 2.442 3.626.411 1.394.409 2.905-.006 4.533-.308 1.211-.793 2.27-1.454 3.177a7.51 7.51 0 01-2.463 2.154c-.981.529-2.104.847-3.367.955-1.261.096-2.648-.05-4.162-.435l-10.296-2.624 7.018-27.558 3.653.93-6.261 24.587 6.643 1.693c1.35.344 2.504.376 3.462.096.974-.289 1.759-.788 2.356-1.495a6.06 6.06 0 001.247-2.444 5.69 5.69 0 00.059-2.686c-.195-.87-.657-1.639-1.387-2.308-.714-.68-1.746-1.191-3.096-1.535l-7.514-1.915.762-2.99zm26.706-5.147l-7.019 27.558-3.652-.93 7.018-27.559 3.653.931zm64.295 58.78l2.916 2.358c-1.282 1.275-2.692 2.202-4.232 2.781-1.54.58-3.165.715-4.873.405-1.7-.32-3.436-1.197-5.208-2.63-1.296-1.048-2.279-2.245-2.949-3.59a10.117 10.117 0 01-1.048-4.265c-.031-1.515.254-3.069.854-4.66.618-1.594 1.553-3.165 2.805-4.714l1.781-2.203c1.252-1.55 2.588-2.788 4.008-3.716 1.438-.93 2.906-1.535 4.404-1.813a10.192 10.192 0 014.492.19c1.486.4 2.912 1.151 4.279 2.257 1.671 1.35 2.829 2.807 3.476 4.368.646 1.562.838 3.157.576 4.787-.245 1.628-.88 3.232-1.907 4.813l-2.916-2.358c.694-1.148 1.147-2.247 1.359-3.297a5.284 5.284 0 00-.24-3.058c-.381-.978-1.144-1.93-2.288-2.855-.982-.795-1.999-1.308-3.051-1.539a6.722 6.722 0 00-3.157.084c-1.052.288-2.094.81-3.125 1.567-1.031.758-2.021 1.724-2.97 2.898l-1.805 2.233a17.203 17.203 0 00-2.134 3.323c-.536 1.14-.862 2.258-.978 3.354a6.682 6.682 0 00.402 3.139c.391.986 1.078 1.876 2.06 2.67 1.245 1.008 2.397 1.613 3.455 1.816a4.981 4.981 0 003.046-.35c.982-.428 1.971-1.094 2.968-1.995zm17.953 11.638l-4.964-5.225 2.167-2.115 4.507 4.744c.744.783 1.527 1.342 2.347 1.676.82.334 1.628.429 2.424.283.814-.145 1.565-.545 2.254-1.2.755-.718 1.229-1.447 1.423-2.188.212-.741.145-1.512-.203-2.313-.33-.8-.925-1.654-1.786-2.56l-3.821-4.022-18.373 17.468-2.596-2.733 20.609-19.594 6.417 6.754c1.005 1.058 1.793 2.105 2.365 3.142.582 1.028.92 2.045 1.014 3.052a5.827 5.827 0 01-.434 2.946c-.402.957-1.084 1.893-2.047 2.808-.849.807-1.825 1.321-2.926 1.542-1.092.212-2.223.137-3.392-.225-1.161-.352-2.291-.984-3.391-1.896l-1.594-.344zm-9.761 9.037l-5.865-6.174 3.689-.57 4.399 4.63c.825.87 1.675 1.462 2.551 1.78.885.326 1.754.39 2.606.19.862-.209 1.67-.672 2.425-1.39.764-.726 1.295-1.491 1.592-2.294.296-.803.318-1.64.064-2.513s-.821-1.771-1.7-2.696l-3.699-3.894 2.221-2.058 5.058 5.324-.241 1.334c.856 1.072 1.372 2.181 1.545 3.328a6.362 6.362 0 01-.319 3.294c-.386 1.068-1.023 2.024-1.91 2.867-1.283 1.22-2.637 1.969-4.063 2.246-1.406.277-2.825.126-4.256-.454-1.422-.589-2.787-1.572-4.097-2.95zm36.295 3.361l-26.466 7.733-2.274-3.104 29.34-8.072 1.466 2-2.066 1.443zm-16.237 21.691l15.325-22.935 1.997-1.537 1.466 2-16.503 25.592-2.285-3.12zm8.201-6.619l-2.489 1.825-9.443-12.887 2.488-1.825 9.444 12.887zm9.559 32.038l-2.711 1.432-10.044-19.037 2.712-1.431 10.043 19.036zm-9.761-18.501l-8.895 4.696-1.74-3.299 8.886-4.714 1.749 3.317zm11.293 21.403l-8.896 4.653-1.741-3.3 8.878-4.687 1.759 3.334zm19.182-18.012l-2.729 1.441-5.815-11.021 2.729-1.441 5.815 11.021zm1.513 2.868l-25.148 13.276-1.75-3.316 25.148-13.277 1.75 3.317zm-7.929-15.029l1.759 3.334-10.395 4.825a39.25 39.25 0 01-4.442 1.793 32.3 32.3 0 01-3.935 1.039c-1.229.237-2.373.37-3.433.399a14.715 14.715 0 01-2.86-.19 9.332 9.332 0 01-2.27-.701c-.647-.306-1.188-.676-1.623-1.109l-.802-1.52 2.712-1.432.565 1.071c.481.129 1.126.223 1.937.281.817.069 1.809.038 2.977-.092 1.185-.125 2.556-.415 4.113-.869 1.563-.442 3.327-1.116 5.293-2.021l10.404-4.808zm2.529 32.255l2.614 7.3c.702 1.962.964 3.735.785 5.321-.167 1.581-.714 2.932-1.64 4.052-.927 1.12-2.181 1.964-3.762 2.531-1.177.421-2.326.611-3.447.571a7.53 7.53 0 01-3.162-.838c-.988-.518-1.88-1.27-2.676-2.257-.784-.992-1.439-2.223-1.966-3.694l-3.581-10.004 26.771-9.592 1.27 3.549-23.884 8.558 2.311 6.454c.47 1.312 1.088 2.287 1.856 2.924.785.646 1.637 1.018 2.558 1.117a6.065 6.065 0 002.723-.332c.895-.321 1.648-.805 2.259-1.453.612-.648.992-1.462 1.139-2.441.164-.972.011-2.113-.459-3.425l-2.614-7.3 2.905-1.041zm22.783 38.358l-3.017.648-2.876-13.406-24.787 5.321-.786-3.667 27.804-5.968 3.662 17.072zm-14.384-11.834l1.626 7.581c.437 2.037.462 3.83.075 5.378-.374 1.545-1.095 2.812-2.161 3.8-1.067.988-2.421 1.658-4.063 2.011-1.222.262-2.386.299-3.492.11a7.53 7.53 0 01-3.025-1.249c-.91-.643-1.695-1.507-2.353-2.591-.646-1.086-1.133-2.393-1.461-3.921l-2.228-10.389 27.804-5.968.79 3.685-24.806 5.325 1.438 6.703c.292 1.363.777 2.41 1.454 3.144.692.744 1.488 1.226 2.387 1.445.9.22 1.814.23 2.743.031.93-.2 1.74-.58 2.432-1.142.692-.561 1.176-1.317 1.451-2.269.291-.941.29-2.093-.002-3.455l-1.626-7.582 3.017-.647zm4.933 27.163l.478 7.739c.128 2.08-.114 3.856-.728 5.329-.6 1.472-1.501 2.617-2.703 3.435-1.202.818-2.641 1.278-4.318 1.382-1.247.077-2.404-.06-3.469-.412a7.53 7.53 0 01-2.805-1.685c-.804-.772-1.451-1.743-1.941-2.913-.477-1.171-.763-2.536-.86-4.096l-.655-10.604 28.384-1.755.232 3.762-25.323 1.566.423 6.842c.086 1.391.409 2.499.969 3.326.573.838 1.288 1.433 2.145 1.785a6.06 6.06 0 002.708.439c.949-.059 1.807-.314 2.575-.766.768-.452 1.359-1.128 1.773-2.027.428-.888.599-2.027.513-3.417l-.478-7.74 3.08-.19zm13.077 23.848l-28.383 1.755-.232-3.763 28.383-1.755.232 3.763z" fill="#fff"/></svg>