<svg width="189" height="29" fill="none" xmlns="http://www.w3.org/2000/svg"><path d="M37.259.272v17.122c0 2.012.378 3.682 1.131 5.014 1.118 2.013 3.005 3.016 5.657 3.016 3.178 0 5.343-1.088 6.485-3.263.615-1.183.925-2.771.925-4.77V.272h3.81v15.555c0 3.408-.46 6.027-1.376 7.862-1.683 3.345-4.865 5.015-9.54 5.015-4.675 0-7.85-1.673-9.52-5.015-.923-1.833-1.382-4.454-1.382-7.862V.272h3.81zm26.019 0l7.957 23.588L79.097.272h4.204L73.196 27.97h-3.979L59.131.272h4.147z" fill="#292929"/><path d="M87.206.272h20.195v3.394H90.864v8.409h15.291v3.206H90.864v9.39h16.82v3.299H87.206V.272z" fill="#3DB0F0"/><path d="M112.603.272h4.43l13.992 22.438V.272h3.565V27.97h-4.204L116.187 5.55v22.42h-3.581V.272h-.003zm48.02 0v3.299h-9.333V27.97h-3.81V3.57h-9.333V.273h22.476z" fill="#292929"/><path d="M169.777 9.055l-9.059 5.086 9.059 5.086 5.083 9.055 5.081-9.055L189 14.14l-9.059-5.086L174.86 0l-5.083 9.055z" fill="#FED467"/><path d="M9.316 17.514L4.658 25.86l4.961 2.965 4.658-8.347 4.658 8.347 4.96-2.965-4.657-8.347h9.316v-5.93h-9.316l4.658-8.346L18.935.272 14.277 8.62 9.619.272 4.658 3.238l4.658 8.346H0v5.93h9.316z" fill="#FF9DC6"/></svg>