<svg width="453" height="453" fill="none" xmlns="http://www.w3.org/2000/svg"><path d="M413.898 292.848l2.379-6.803 2.87.962-2.16 6.176c-.356 1.021-.496 1.972-.418 2.854.077.883.363 1.645.856 2.286.501.658 1.2 1.144 2.097 1.458.983.343 1.849.432 2.597.266.755-.149 1.41-.562 1.963-1.237.562-.659 1.049-1.578 1.462-2.758l1.831-5.236-23.931-8.369 1.245-3.558 26.843 9.387-3.075 8.794c-.482 1.377-1.053 2.557-1.714 3.539-.649.987-1.399 1.753-2.251 2.296-.844.56-1.784.88-2.819.959-1.034.08-2.179-.1-3.432-.538-1.106-.387-2.009-1.02-2.709-1.899-.687-.875-1.137-1.915-1.35-3.121-.217-1.193-.171-2.487.137-3.883l-.421-1.575zm-12.498-4.557l2.812-8.038 2.191 3.022-2.108 6.028c-.395 1.131-.534 2.159-.416 3.083.114.936.454 1.738 1.021 2.405.579.672 1.36 1.179 2.344 1.523.995.348 1.918.471 2.768.368.849-.103 1.604-.466 2.264-1.091.66-.624 1.2-1.539 1.622-2.743l1.773-5.07 2.844 1.036-2.424 6.932-1.297.395c-.562 1.252-1.313 2.217-2.253 2.895a6.378 6.378 0 01-3.076 1.221c-1.126.144-2.267.014-3.422-.39-1.672-.585-2.957-1.448-3.854-2.589-.889-1.125-1.403-2.456-1.541-3.995-.126-1.533.125-3.197.752-4.992zm9.259 22.703l-3.619 6.857c-.972 1.843-2.104 3.233-3.394 4.172-1.279.944-2.644 1.453-4.096 1.526-1.452.073-2.921-.283-4.406-1.067-1.106-.583-2.022-1.302-2.749-2.157a7.514 7.514 0 01-1.517-2.899c-.285-1.078-.333-2.244-.142-3.498.202-1.247.668-2.562 1.397-3.944l4.96-9.397 25.149 13.274-1.759 3.333-22.438-11.842-3.2 6.063c-.65 1.232-.951 2.347-.903 3.344.053 1.015.354 1.895.903 2.641a6.041 6.041 0 002.084 1.784c.84.444 1.706.673 2.597.686.891.014 1.747-.255 2.569-.808.827-.535 1.566-1.419 2.216-2.651l3.619-6.858 2.729 1.441zm-1.243 27.17l-25.15-13.273 1.759-3.334 25.15 13.273-1.759 3.334zm-18.599 25.584l-22.688-17.145 2.261-2.992 20.226 15.285 8.454-11.188-20.225-15.285 2.272-3.007 22.688 17.145-12.988 17.187zm-25.755-.293l8.189 18.725-3.055 3.077-9.726-23.829a20.481 20.481 0 01-.698-2.042 7.16 7.16 0 01-.256-2.071c.016-.699.188-1.418.517-2.156.319-.728.869-1.485 1.649-2.271.22-.222.495-.471.826-.749.321-.286.541-.462.661-.527l2.052 2.202c-.12.084-.335.264-.647.541-.303.287-.523.499-.661.638-.523.527-.829 1.048-.92 1.564a3.454 3.454 0 00.075 1.533c.14.524.303 1.034.489 1.531l1.505 3.834zm17.987 8.856l-18.145-6.867-3.142-1.798 2.063-2.41 22.196 8.081-2.972 2.994zm-43.948 12.888l-2.975 2.283c-.939-1.544-1.51-3.133-1.713-4.767-.203-1.633.047-3.244.748-4.832.709-1.578 1.968-3.061 3.776-4.448 1.322-1.015 2.716-1.69 4.181-2.026a10.1 10.1 0 014.391-.021c1.48.325 2.923.965 4.33 1.921 1.404.975 2.712 2.252 3.925 3.833l1.724 2.247c1.212 1.58 2.103 3.169 2.673 4.768.567 1.616.811 3.185.731 4.707a10.2 10.2 0 01-1.238 4.322c-.735 1.352-1.8 2.563-3.195 3.633-1.704 1.308-3.391 2.093-5.06 2.356-1.669.263-3.265.076-4.788-.561-1.525-.619-2.936-1.612-4.232-2.981l2.975-2.283c.953.943 1.916 1.641 2.887 2.094a5.278 5.278 0 003.029.482c1.04-.141 2.144-.66 3.311-1.556 1.002-.768 1.739-1.637 2.21-2.606.461-.961.68-1.99.657-3.089-.032-1.091-.296-2.226-.791-3.406-.494-1.179-1.201-2.368-2.121-3.567l-1.748-2.278a17.225 17.225 0 00-2.73-2.853c-.983-.789-1.993-1.367-3.031-1.736a6.673 6.673 0 00-3.145-.345c-1.05.15-2.076.609-3.079 1.378-1.27.975-2.128 1.953-2.573 2.934a4.987 4.987 0 00-.373 3.044c.186 1.055.601 2.173 1.244 3.353zm-1.289 24.019l-14.192-24.643 3.266-1.881 14.193 24.643-3.267 1.881zm-15.181 8.744l2.888-19.718 5.789-3.334 2.067 2.416-4.35 2.505-2.349 15.801-4.045 2.33zm-10.909-26.534l15.886 6.177-.181 3.913-19.7-7.79 3.995-2.3zm-16.811 24.995l-1.152-2.841 14.263-5.783 1.152 2.842-14.263 5.782zm18.314 5.768l-10.685-26.353 3.493-1.417 10.686 26.354-3.494 1.416zm-16.76 6.796l-10.686-26.354 3.476-1.409 10.685 26.354-3.475 1.409zm-14.566-7.512l-7.562 1.713c-2.032.461-3.824.506-5.377.137-1.549-.356-2.824-1.062-3.824-2.117s-1.685-2.402-2.057-4.04c-.276-1.219-.326-2.383-.15-3.491a7.532 7.532 0 011.214-3.039c.633-.917 1.488-1.712 2.564-2.383 1.079-.658 2.381-1.16 3.905-1.505l10.362-2.348 6.284 27.734-3.676.833-5.607-24.744-6.686 1.515c-1.358.308-2.401.805-3.127 1.49-.735.7-1.208 1.502-1.417 2.404a6.05 6.05 0 000 2.743c.21.927.6 1.733 1.169 2.419.569.685 1.331 1.16 2.286 1.425.944.28 2.096.266 3.455-.042l7.562-1.714.682 3.01zm-21.442 16.734l-6.284-27.735 3.676-.833 6.285 27.735-3.677.833zm-29.435-22.828l-.248-3.057 15.009-1.218.248 3.056-15.009 1.219zm16.303 24.131l-2.301-28.344 3.757-.305 2.301 28.344-3.757.305zm-13.254-11.191l-.248-3.056 13.024-1.058.248 3.057-13.024 1.057zm-.801 12.332l-.25-3.076 14.814-1.203.25 3.076-14.814 1.203zm-70.869-25.641l6.847 2.251-.909 2.888-6.215-2.043c-1.027-.338-1.981-.46-2.862-.365-.88.094-1.637.394-2.269.899-.648.513-1.121 1.221-1.418 2.124-.325.99-.398 1.857-.217 2.601.163.753.588 1.4 1.274 1.94.669.549 1.598 1.019 2.785 1.409l5.27 1.732 7.916-24.083 3.581 1.177-8.88 27.015-8.851-2.909c-1.385-.455-2.575-1.004-3.57-1.647-.999-.63-1.778-1.365-2.338-2.207a5.82 5.82 0 01-1.012-2.8c-.099-1.033.059-2.181.474-3.442.365-1.114.981-2.028 1.847-2.744.862-.704 1.894-1.173 3.095-1.409 1.189-.24 2.484-.218 3.885.064l1.567-.451zm4.32-12.581l8.09 2.66-2.98 2.248-6.067-1.995c-1.138-.374-2.168-.493-3.09-.357-.934.131-1.729.487-2.386 1.066-.66.591-1.153 1.382-1.478 2.371-.33 1.002-.435 1.927-.316 2.775.119.848.497 1.595 1.133 2.243.637.648 1.562 1.172 2.774 1.57l5.102 1.677-.982 2.864-6.976-2.293-.42-1.289c-1.262-.539-2.241-1.272-2.936-2.199a6.37 6.37 0 01-1.279-3.052c-.166-1.124-.057-2.267.325-3.429.553-1.683 1.392-2.983 2.516-3.902 1.108-.911 2.43-1.449 3.965-1.616 1.531-.155 3.2.065 5.005.658zm-22.677 9.583l-6.911-3.517c-1.856-.945-3.263-2.056-4.221-3.332-.963-1.265-1.492-2.623-1.587-4.073-.094-1.451.24-2.925 1.002-4.422.567-1.114 1.272-2.04 2.116-2.78a7.529 7.529 0 012.876-1.56c1.074-.301 2.239-.366 3.495-.193 1.251.183 2.573.629 3.965 1.338l9.469 4.82-12.899 25.343-3.36-1.71 11.509-22.61-6.11-3.11c-1.241-.632-2.36-.917-3.357-.854-1.013.069-1.889.383-2.627.942a6.057 6.057 0 00-1.753 2.11 5.7 5.7 0 00-.648 2.607c0 .891.282 1.743.847 2.557.547.819 1.441 1.545 2.683 2.177l6.91 3.517-1.399 2.75zm-27.186-.841l12.9-25.344 3.359 1.71-12.9 25.344-3.359-1.71zm-25.626-17.97l16.728-22.997 3.033 2.206-14.913 20.501 11.34 8.25 14.913-20.502 3.049 2.218-16.729 22.997-17.421-12.673zm-.254-25.872l-18.604 8.46-3.121-3.01 23.686-10.072a20.343 20.343 0 012.03-.727 7.183 7.183 0 012.067-.287c.7.006 1.422.168 2.164.486.733.309 1.498.848 2.295 1.616.225.217.478.488.76.815.292.317.471.534.537.653l-2.172 2.084a9.072 9.072 0 00-.55-.639 33.962 33.962 0 00-.648-.652c-.534-.515-1.06-.814-1.577-.897a3.465 3.465 0 00-1.531.097c-.522.148-1.03.318-1.524.512l-3.812 1.561zm-8.594 18.113l6.603-18.243 1.752-3.167 2.44 2.027-7.758 22.311-3.037-2.928zM68.95 341.915l-2.337-2.933c1.527-.967 3.105-1.566 4.734-1.799 1.63-.232 3.245-.012 4.846.66 1.59.68 3.096 1.912 4.516 3.694 1.038 1.304 1.739 2.685 2.102 4.144.355 1.448.388 2.911.1 4.389-.297 1.486-.911 2.941-1.842 4.364-.948 1.422-2.202 2.753-3.76 3.994l-2.215 1.765c-1.558 1.241-3.13 2.161-4.718 2.76-1.606.596-3.17.869-4.693.817a10.2 10.2 0 01-4.345-1.159c-1.365-.711-2.595-1.753-3.69-3.128-1.339-1.681-2.155-3.353-2.448-5.017-.294-1.664-.136-3.263.473-4.797.591-1.536 1.56-2.965 2.904-4.286l2.337 2.933c-.926.97-1.606 1.945-2.041 2.924-.445.988-.588 2-.427 3.038.16 1.037.699 2.131 1.616 3.282.787.988 1.669 1.709 2.646 2.162a6.722 6.722 0 003.1.601c1.09-.052 2.221-.337 3.391-.853s2.347-1.245 3.528-2.186l2.246-1.789a17.18 17.18 0 002.803-2.782c.77-.997 1.33-2.017 1.68-3.062a6.669 6.669 0 00.288-3.15c-.169-1.048-.647-2.065-1.434-3.053-.998-1.253-1.991-2.093-2.98-2.52a4.978 4.978 0 00-3.05-.317c-1.052.205-2.162.64-3.33 1.304zm-23.986-.797l24.378-14.643 1.94 3.231-24.376 14.644-1.942-3.232zM35.943 326.1l19.767 2.525 3.44 5.726-2.377 2.112-2.585-4.303-15.842-2.058-2.403-4.002zm26.328-11.395l-5.883 15.997-3.916-.109 7.426-19.84 2.373 3.952zM37.04 298.497l2.819-1.205 6.048 14.152-2.82 1.205-6.048-14.152zm-5.426 18.418l26.15-11.176 1.481 3.467-26.15 11.175-1.48-3.466zm-7.107-16.631l26.15-11.175 1.473 3.448-26.15 11.176-1.473-3.449zm7.232-14.72l-1.857-7.528c-.5-2.022-.579-3.813-.24-5.372.328-1.556 1.009-2.844 2.045-3.864s2.37-1.731 4-2.133c1.214-.3 2.376-.372 3.487-.217a7.528 7.528 0 013.061 1.156c.93.616 1.74 1.455 2.432 2.518.679 1.067 1.205 2.358 1.58 3.875l2.544 10.316-27.61 6.811-.902-3.66 24.632-6.076-1.642-6.656c-.333-1.353-.85-2.386-1.548-3.098-.715-.723-1.525-1.18-2.431-1.372a6.043 6.043 0 00-2.743.053 5.685 5.685 0 00-2.396 1.214c-.674.583-1.135 1.353-1.38 2.313-.263.949-.227 2.1.107 3.453l1.857 7.528-2.996.739zm-17.14-21.119l27.61-6.811.903 3.66-27.61 6.811-.902-3.66zm22.321-29.783l3.051-.295 1.45 14.989-3.052.295-1.45-14.989zm-23.878 16.672l28.305-2.737.363 3.752-28.305 2.738-.363-3.753zm10.986-13.424l3.052-.295 1.257 13.006-3.052.295-1.258-13.006zm-12.343-.612l3.071-.297 1.431 14.795-3.072.297-1.43-14.795zm24.351-71.521l-2.147 6.88-2.902-.865 1.95-6.246c.321-1.031.429-1.987.321-2.866-.108-.879-.419-1.631-.933-2.255-.523-.641-1.238-1.103-2.146-1.386-.994-.31-1.862-.37-2.604-.178-.75.175-1.39.609-1.92 1.303-.54.677-.995 1.613-1.367 2.806l-1.653 5.295 24.2 7.552-1.122 3.599-27.146-8.472 2.775-8.893c.434-1.392.965-2.591 1.592-3.595.615-1.009 1.34-1.799 2.172-2.371a5.817 5.817 0 012.785-1.054c1.031-.115 2.18.026 3.449.421 1.118.349 2.042.951 2.771 1.806.717.851 1.202 1.876 1.455 3.073.258 1.185.256 2.481-.005 3.886l.475 1.56zm12.644 4.13l-2.536 8.129-2.294-2.946 1.903-6.096c.357-1.144.46-2.176.311-3.095-.145-.932-.513-1.722-1.102-2.37-.601-.651-1.4-1.132-2.394-1.442-1.006-.314-1.933-.406-2.779-.274-.845.131-1.587.52-2.226 1.167-.638.647-1.147 1.579-1.527 2.797l-1.6 5.127-2.878-.939 2.187-7.01 1.283-.439c.519-1.27 1.237-2.26 2.154-2.97a6.363 6.363 0 013.032-1.324c1.121-.183 2.266-.091 3.434.273 1.69.528 3.004 1.347 3.94 2.457.926 1.094 1.485 2.408 1.675 3.94.178 1.529-.016 3.2-.583 5.015zm-10.133-22.192l3.389-6.974c.91-1.874 1.995-3.301 3.253-4.282 1.247-.987 2.594-1.541 4.043-1.662 1.449-.122 2.928.185 4.44.919 1.124.546 2.063 1.234 2.818 2.064a7.519 7.519 0 011.613 2.847c.321 1.068.407 2.231.259 3.491-.16 1.254-.582 2.584-1.265 3.989l-4.644 9.557-25.578-12.428 1.648-3.39 22.82 11.087 2.996-6.166c.608-1.253.872-2.377.791-3.372-.087-1.012-.417-1.882-.99-2.609a6.045 6.045 0 00-2.143-1.714 5.686 5.686 0 00-2.618-.6c-.891.016-1.738.314-2.54.894-.81.563-1.518 1.47-2.127 2.724l-3.389 6.974-2.776-1.349zm.337-27.196l25.579 12.427-1.648 3.391-25.578-12.428 1.647-3.39zM56.05 94.977l23.299 16.305-2.15 3.072-20.77-14.535-8.042 11.489 20.77 14.536-2.16 3.088-23.3-16.305 12.353-17.65zm26.066-1.097l-8.797-18.447 2.953-3.176 10.5 23.5c.291.661.546 1.334.764 2.017a7.13 7.13 0 01.324 2.061c.007.7-.142 1.424-.446 2.172-.296.739-.82 1.513-1.574 2.324-.213.229-.48.487-.801.775-.312.297-.526.48-.643.549l-2.123-2.134c.116-.087.326-.275.629-.562.293-.296.506-.516.64-.659.505-.543.794-1.075.867-1.593a3.45 3.45 0 00-.125-1.53 16.462 16.462 0 00-.538-1.514l-1.63-3.783zM63.85 85.617l18.36 6.27 3.198 1.694-1.983 2.477-22.448-7.352 2.873-3.09zm43.043-14.093l2.89-2.39c.994 1.51 1.623 3.077 1.885 4.701.262 1.625.071 3.244-.572 4.857-.651 1.603-1.855 3.13-3.611 4.583-1.285 1.062-2.653 1.787-4.105 2.177a10.111 10.111 0 01-4.387.18c-1.49-.27-2.956-.858-4.397-1.762-1.438-.922-2.792-2.151-4.062-3.687l-1.804-2.182c-1.27-1.536-2.218-3.092-2.846-4.668-.625-1.594-.926-3.153-.902-4.677a10.193 10.193 0 011.08-4.365c.686-1.377 1.706-2.626 3.06-3.746 1.656-1.37 3.313-2.216 4.972-2.54 1.658-.323 3.26-.195 4.805.387 1.546.562 2.992 1.504 4.337 2.825l-2.89 2.39c-.986-.908-1.973-1.57-2.96-1.988a5.28 5.28 0 00-3.045-.372c-1.034.18-2.118.738-3.252 1.676-.974.805-1.678 1.7-2.114 2.685a6.726 6.726 0 00-.544 3.111c.072 1.09.377 2.214.914 3.375.538 1.16 1.287 2.323 2.25 3.487l1.83 2.213a17.189 17.189 0 002.832 2.751c1.01.753 2.042 1.295 3.092 1.625a6.67 6.67 0 003.155.23c1.045-.188 2.054-.684 3.027-1.489 1.234-1.02 2.056-2.029 2.465-3.026a4.985 4.985 0 00.262-3.055c-.225-1.048-.68-2.15-1.365-3.306zm.17-23.972l15.089 24.104-3.195 2-15.089-24.104 3.195-2zm14.85-9.296l-2.162 19.81-5.662 3.545-2.154-2.338 4.254-2.664 1.767-15.876 3.957-2.477zm11.877 26.115l-16.102-5.589.036-3.917 19.973 7.06-3.907 2.446zm16.741-26.061l1.247 2.8-14.061 6.26-1.247-2.802 14.061-6.259zm-18.498-5.15l11.565 25.98-3.444 1.532-11.564-25.98 3.443-1.532zm16.523-7.355l11.565 25.98-3.426 1.525-11.565-25.98 3.426-1.525zm14.982 6.916l7.499-1.97c2.015-.53 3.804-.637 5.368-.321 1.561.303 2.859.965 3.894 1.985 1.036 1.02 1.767 2.343 2.194 3.967.318 1.209.408 2.37.27 3.484a7.531 7.531 0 01-1.109 3.078c-.602.939-1.429 1.762-2.481 2.47-1.056.695-2.34 1.24-3.851 1.638l-10.276 2.701-7.23-27.503 3.646-.958 6.45 24.537 6.63-1.743c1.348-.354 2.372-.886 3.075-1.595.711-.726 1.156-1.543 1.334-2.452a6.06 6.06 0 00-.094-2.741 5.7 5.7 0 00-1.251-2.378c-.593-.665-1.37-1.114-2.333-1.345-.954-.248-2.104-.194-3.452.16l-7.499 1.971-.784-2.985zm20.856-17.457l7.23 27.503-3.646.958-7.23-27.503 3.646-.958zm30.053 21.853l.342 3.048-14.965 1.68-.342-3.048 14.965-1.68zM197.409 13.5l3.172 28.26-3.746.42-3.172-28.26 3.746-.42zM211 24.276l.343 3.047-12.985 1.458-.342-3.047L211 24.277zm.422-12.35l.344 3.066-14.77 1.658-.344-3.067 14.77-1.658zm81.842 26.475l-6.794-2.405.973-2.867 6.168 2.184c1.019.36 1.97.503 2.852.429.883-.074 1.646-.357 2.289-.847.66-.499 1.149-1.196 1.466-2.092.347-.982.439-1.847.276-2.596-.147-.756-.557-1.412-1.23-1.968-.657-.564-1.574-1.055-2.753-1.472l-5.229-1.85-8.458 23.898-3.554-1.258 9.488-26.808 8.783 3.109c1.375.487 2.552 1.062 3.532 1.727.985.652 1.747 1.405 2.288 2.26a5.81 5.81 0 01.948 2.822c.076 1.035-.108 2.178-.551 3.43-.391 1.105-1.027 2.005-1.909 2.702-.877.684-1.919 1.13-3.126 1.338-1.194.213-2.488.162-3.883-.152l-1.576.416zm-4.604 12.48l-8.028-2.841 3.031-2.18 6.02 2.13c1.13.4 2.156.542 3.081.428.937-.11 1.74-.448 2.409-1.012.674-.577 1.185-1.356 1.532-2.338.352-.994.478-1.916.379-2.767-.1-.85-.461-1.606-1.083-2.268-.622-.662-1.534-1.206-2.737-1.632l-5.064-1.792 1.047-2.84 6.923 2.45.39 1.298c1.25.566 2.212 1.321 2.887 2.264a6.37 6.37 0 011.209 3.08c.14 1.127.006 2.268-.403 3.422-.591 1.669-1.458 2.95-2.603 3.843-1.128.885-2.462 1.394-4 1.526-1.535.12-3.198-.137-4.99-.771zm22.335-9.432l6.844 3.645c1.839.979 3.225 2.115 4.159 3.41.939 1.281 1.443 2.649 1.511 4.1.067 1.453-.294 2.92-1.083 4.403-.588 1.103-1.31 2.017-2.168 2.74a7.52 7.52 0 01-2.904 1.507c-1.079.281-2.245.324-3.498.129-1.248-.207-2.561-.678-3.94-1.412l-9.378-4.994 13.366-25.1 3.328 1.771-11.925 22.394 6.051 3.222c1.229.655 2.343.96 3.34.916 1.015-.05 1.896-.347 2.644-.893a6.06 6.06 0 001.792-2.077 5.69 5.69 0 00.696-2.595c.017-.89-.249-1.748-.799-2.572-.532-.829-1.413-1.57-2.643-2.226l-6.844-3.644 1.451-2.724zm27.165 1.344l-13.366 25.1-3.327-1.771 13.366-25.1 3.327 1.771zm25.918 18.852L346.85 84.27l-2.984-2.272 15.359-20.17-11.158-8.495-15.358 20.17-2.999-2.284 17.228-22.625 17.14 13.051zm-.79 25.291l18.755-8.12 3.066 3.066-23.865 9.64a20.72 20.72 0 01-2.044.69 7.179 7.179 0 01-2.072.249c-.7-.019-1.418-.194-2.154-.525-.728-.322-1.483-.875-2.265-1.658a12.46 12.46 0 01-.746-.828c-.286-.322-.46-.543-.525-.663l2.21-2.044c.083.12.262.336.538.65.286.303.498.524.636.662.525.525 1.045.833 1.56.925a3.45 3.45 0 001.533-.069 16.48 16.48 0 001.533-.483l3.84-1.492zm8.921-17.954l-6.933 18.12-1.809 3.135-2.403-2.072L369.226 66l2.983 2.984zm13.309 44.559l2.272 2.984c-1.548.933-3.139 1.498-4.773 1.695-1.634.196-3.244-.059-4.83-.766-1.576-.715-3.054-1.979-4.434-3.792-1.01-1.326-1.68-2.722-2.011-4.189a10.096 10.096 0 01-.005-4.39c.33-1.479.976-2.92 1.937-4.323.98-1.4 2.262-2.704 3.847-3.911l2.253-1.716c1.585-1.207 3.178-2.092 4.778-2.656 1.618-.561 3.188-.8 4.709-.714a10.2 10.2 0 014.318 1.254c1.349.74 2.556 1.81 3.621 3.208 1.302 1.71 2.081 3.399 2.338 5.069.257 1.67.064 3.265-.578 4.786-.625 1.522-1.623 2.929-2.997 4.221l-2.272-2.984c.947-.949 1.648-1.909 2.104-2.878a5.28 5.28 0 00.494-3.028c-.138-1.04-.652-2.146-1.544-3.317-.765-1.004-1.631-1.744-2.598-2.219a6.726 6.726 0 00-3.087-.669c-1.091.029-2.227.288-3.409.779-1.181.49-2.372 1.193-3.574 2.108l-2.284 1.74a17.122 17.122 0 00-2.863 2.72c-.793.979-1.375 1.987-1.748 3.024a6.67 6.67 0 00-.356 3.143c.146 1.051.601 2.079 1.366 3.084.971 1.274 1.946 2.136 2.925 2.584.98.449 1.994.577 3.042.385 1.056-.183 2.176-.593 3.359-1.232zm23.979 1.29l-24.695 14.101-1.869-3.273 24.694-14.102 1.87 3.274zm8.687 15.214l-19.706-2.962-3.313-5.8 2.424-2.059 2.489 4.359 15.792 2.408 2.314 4.054zm-26.573 10.811l6.235-15.864 3.912.195-7.862 19.672-2.285-4.003zm24.895 16.736l-2.846 1.142-5.729-14.284 2.846-1.142 5.729 14.284zm5.837-18.292l-26.394 10.587-1.403-3.499 26.394-10.586 1.403 3.498zm6.733 16.786l-26.394 10.587-1.396-3.481 26.394-10.586 1.396 3.48zm-7.438 14.84l1.685 7.568c.452 2.034.491 3.826.116 5.377-.363 1.548-1.073 2.82-2.132 3.816-1.059.996-2.408 1.677-4.048 2.041-1.22.272-2.384.318-3.491.137a7.528 7.528 0 01-3.034-1.225c-.916-.637-1.707-1.495-2.374-2.573-.654-1.082-1.151-2.385-1.49-3.911l-2.309-10.371 27.758-6.178.819 3.679-24.765 5.512 1.49 6.692c.303 1.36.795 2.404 1.477 3.133.698.738 1.498 1.214 2.399 1.427a6.063 6.063 0 002.743.01 5.71 5.71 0 002.424-1.16c.687-.567 1.165-1.327 1.433-2.28.284-.944.274-2.095-.029-3.455l-1.684-7.569 3.012-.67zm16.652 21.505l-27.758 6.178-.819-3.679 27.758-6.179.819 3.68zm-22.986 28.652l-3.057.237-1.161-15.014 3.058-.236 1.16 15.013zm24.194-16.209l-28.353 2.191-.29-3.758 28.353-2.192.29 3.759zm-11.242 13.21l-3.057.236-1.007-13.027 3.057-.236 1.007 13.027zm12.329.849l-3.077.238-1.145-14.819 3.076-.238 1.146 14.819z" fill="#292929"/></svg>