<svg width="90" height="90" fill="none" xmlns="http://www.w3.org/2000/svg"><path d="M90 38.596L67.735 45 90 51.404l-23.19-.064 19.543 12.356-22.229-6.53 15.233 17.305-19.47-12.464 9.693 20.85-15.135-17.39 3.364 22.708-9.573-20.904L45.002 90l-3.234-22.73-9.574 20.904 3.364-22.708-15.134 17.39 9.69-20.85-19.47 12.464 15.232-17.305-22.23 6.53L23.19 51.34 0 51.404 22.265 45 0 38.596l23.19.065L3.647 26.304l22.229 6.53L10.643 15.53l19.47 12.463-9.69-20.85 15.136 17.39-3.365-22.711 9.574 20.908L45.002 0l3.233 22.73L57.81 1.822l-3.364 22.711L69.58 7.143l-9.694 20.85 19.47-12.463-15.232 17.304 22.23-6.53L66.81 38.662 90 38.596z" fill="#FF9DC6"/></svg>