<svg width="90" height="90" viewBox="0 0 90 90" fill="none" xmlns="http://www.w3.org/2000/svg">
<path d="M90.0001 38.5962L67.7348 45.0002L90.0001 51.4041L66.8104 51.3396L86.3532 63.6958L64.1242 57.1663L79.3568 74.4707L59.8865 62.0069L69.58 82.8575L54.4452 65.4671L57.8093 88.175L48.2355 67.2707L45.0019 90.0002L41.7683 67.2707L32.1944 88.175L35.5585 65.4671L20.4238 82.8575L30.1136 62.0069L10.6433 74.4707L25.8759 57.1663L3.64689 63.6958L23.1897 51.3396L5.34058e-05 51.4041L22.2653 45.0002L5.34058e-05 38.5962L23.1897 38.6607L3.64689 26.3045L25.8759 32.834L10.6433 15.5296L30.1136 27.9934L20.4238 7.14279L35.5585 24.5332L32.1944 1.82167L41.7683 22.7296L45.0019 0.000156403L48.2355 22.7296L57.8093 1.82167L54.4452 24.5332L69.58 7.14279L59.8865 27.9934L79.3568 15.5296L64.1242 32.834L86.3532 26.3045L66.8104 38.6607L90.0001 38.5962Z" fill="#FF9DC6"/>
</svg>
