<svg width="293" height="584" viewBox="0 0 293 584" fill="none" xmlns="http://www.w3.org/2000/svg">
<path fill-rule="evenodd" clip-rule="evenodd" d="M318.918 129.882C396.828 152.449 446.806 200.294 495.326 258.429C503.556 268.225 522.608 292.78 530.909 314.916C536.857 330.578 537.191 345.066 526.275 353.062C516.779 360.143 503.577 359.384 489.414 354.052C458.62 342.581 422.719 309.393 412.74 298.487C367.711 249.528 334.17 192.603 314.121 133.613C309.305 132.323 304.433 131.069 299.391 129.925C284.161 126.479 265.76 123.72 248.529 124.68C231.778 125.571 216.058 130.032 205.825 141.023C184.399 164.025 187.591 202.799 201.465 244.115C204.452 253.137 208.056 262.24 211.97 271.383C219.195 273.517 226.598 276.335 234.283 279.851C293.489 306.885 362.934 370.708 380.761 391.976C388.714 401.472 403.573 418.74 408.886 434.892C412.721 446.403 411.76 457.331 401.206 464.934C391.799 471.717 379.088 470.803 365.563 465.379C336.219 453.613 302.204 420.407 292.014 409.077C268.652 383.386 231.428 329.635 207.528 275.205C192.933 271.27 179.839 270.922 169.498 275.911C155.039 282.914 150.829 299.054 151.88 318.832C152.205 324.775 153.059 331.096 154.315 337.557C154.902 337.898 155.385 338.226 155.915 338.603C198.48 366.058 239.184 409.255 255.195 429.537C262.401 438.715 274.174 455.976 277.571 471.525C279.939 482.624 278.021 492.81 268.151 499.093C258.043 505.609 246.177 502.471 235.147 495.039C220.089 485.01 206.458 467.11 201.461 460.423C187.353 441.711 158.471 386.497 148.969 340.205C136.312 332.384 123.589 325.963 111.317 322.288C98.4488 318.358 86.1139 317.361 75.1848 320.731C48.3024 329.192 43.1998 355.255 48.1668 385.453C49.6684 394.633 52.1688 404.208 55.3442 413.827C66.9264 414.99 79.593 419.289 92.316 425.71C122.198 440.805 152.556 467.5 170.147 490.278C176.255 498.167 185.912 512.157 188.25 524.793C189.968 533.914 187.859 542.225 178.894 547.525C167.962 553.933 155.65 551.882 143.823 545.843C127.41 537.487 112.105 521.304 103.922 512.836C87.881 496.249 64.2342 457.398 50.8535 418.48C46.1074 418.343 41.5969 418.854 37.3573 420.149C21.4819 425.03 10.5774 440.69 8.02229 472.062C6.8079 487.228 7.45879 502.549 11.5373 517.659C17.4333 539.348 28.0757 559.015 40.7182 578.592C41.5086 579.841 41.0104 581.361 39.5762 581.966C38.1419 582.571 36.3183 582.068 35.5279 580.82C22.5828 560.719 11.6734 540.664 5.72695 518.528C1.49506 502.958 0.747439 487.139 2.02498 471.453C4.75734 437.33 17.71 420.749 34.9986 415.437C39.4548 414.082 44.136 413.462 49.1092 413.452C46.1083 404.12 43.7361 394.782 42.3059 385.875C36.8663 353.105 43.6536 325.237 72.8829 315.982C94.4784 309.251 121.183 317.766 147.652 333.383C146.8 328.339 146.291 323.472 145.979 318.72C144.722 296.757 150.36 279.22 166.376 271.451C177.001 266.28 190.375 266.048 205.136 269.476C201.725 261.368 198.633 253.212 195.84 245.185C181.399 202.077 178.865 161.76 201.149 137.725C210.183 127.986 223.003 122.837 237.191 120.642C257.932 117.499 281.723 120.7 300.621 124.978C304.597 125.85 308.402 126.832 312.255 127.865C310.071 121.282 308.104 114.639 306.344 108.024C301.897 91.6327 297.3 71.7428 298.744 53.3923C299.7 40.7907 303.441 28.9501 311.743 19.2032C323.637 5.30248 340.846 1.08078 359.195 2.1163C376.972 3.12102 395.773 9.05964 411.376 15.4608C479.862 43.2245 536.374 91.5719 558.311 153.98C558.782 155.274 557.881 156.653 556.319 157.022C554.813 157.353 553.135 156.517 552.618 155.173C531.132 94.2331 475.889 47.0644 408.999 19.9497C393.982 13.8896 375.996 8.1455 359.053 7.16192C342.626 6.24577 327.171 9.81631 316.554 22.2547C306.908 33.5872 304.051 48.0537 304.342 62.8881C304.695 78.0828 308.39 93.7592 312.051 107.141C314.118 114.677 316.346 122.191 318.836 129.695L318.918 129.882ZM56.9072 419.052C67.0973 420.473 78.1831 424.434 89.2744 430.068C118.421 444.759 147.914 470.812 165.111 492.966C170.859 500.368 180.095 513.51 182.265 525.375C183.586 532.594 182.307 539.253 175.205 543.432C166.239 548.732 156.236 546.631 146.524 541.705C130.754 533.653 116.164 518.048 108.259 509.88C92.7831 493.808 70.0801 456.665 56.9072 419.052ZM155.74 344.789C196.413 371.865 234.83 412.781 250.261 432.238C257.154 440.979 268.506 457.393 271.668 472.294C273.592 481.442 272.446 490.011 264.326 495.245C256.376 500.37 247.186 497.187 238.574 491.392C224.148 481.754 211.118 464.505 206.342 458.155C192.906 440.368 166.034 389.292 155.832 344.89L155.74 344.789ZM209.203 272.814C214.686 274.632 225.796 281.647 231.597 284.3C289.908 310.952 358.313 373.847 375.966 394.828C383.595 403.973 398.013 420.567 403.193 436.085C406.379 445.618 405.995 454.815 397.223 461.11C392.173 464.765 385.971 465.406 379.146 464.293C371.712 463.012 363.708 459.543 355.623 455.007C330.552 440.806 305.081 415.675 296.546 406.235C273.971 381.396 232.855 325.406 209.203 272.814ZM320.831 135.68C395.334 158.287 443.528 204.886 490.542 261.194C498.541 270.74 517.093 294.657 525.309 316.209C527.919 323.156 529.51 329.881 529.159 335.78C528.759 341.233 526.829 345.912 522.337 349.288C517.163 353.103 510.678 353.928 503.487 352.811C495.78 351.626 487.342 348.277 478.789 343.723C452.439 329.706 425.7 304.674 417.328 295.608C373.595 248.051 340.781 192.896 320.831 135.68Z" fill="#292929" stroke="#292929" stroke-width="2.27" stroke-miterlimit="10"/>
</svg>
