<svg width="342" height="584" viewBox="0 0 342 584" fill="none" xmlns="http://www.w3.org/2000/svg">
<path fill-rule="evenodd" clip-rule="evenodd" d="M100.918 129.881C178.828 152.449 228.807 200.294 277.326 258.429C285.557 268.225 304.608 292.78 312.909 314.916C318.857 330.578 319.191 345.066 308.275 353.062C298.78 360.142 285.578 359.384 271.414 354.052C240.62 342.581 204.72 309.392 194.74 298.487C149.711 249.528 116.17 192.603 96.1207 133.613C91.3055 132.323 86.4334 131.069 81.391 129.924C66.1608 126.479 47.76 123.719 30.5292 124.68C13.7778 125.571 -1.94199 130.031 -12.1746 141.023C-33.601 164.025 -30.4088 202.798 -16.5344 244.115C-13.5481 253.136 -9.94374 262.239 -6.03015 271.383C1.19475 273.517 8.59823 276.335 16.2834 279.85C75.4896 306.885 144.934 370.708 162.761 391.976C170.714 401.472 185.573 418.74 190.886 434.892C194.721 446.403 193.76 457.331 183.206 464.933C173.799 471.717 161.088 470.803 147.563 465.379C118.219 453.613 84.2038 420.407 74.0136 409.077C50.6522 383.386 13.4281 329.635 -10.472 275.205C-25.067 271.27 -38.1614 270.922 -48.502 275.91C-62.9605 282.914 -67.1713 299.053 -66.1198 318.831C-65.7951 324.775 -64.9408 331.095 -63.6847 337.557C-63.098 337.898 -62.6144 338.225 -62.0846 338.603C-19.5204 366.058 21.1838 409.255 37.1949 429.537C44.4015 438.715 56.1741 455.976 59.5712 471.525C61.9388 482.624 60.0207 492.81 50.1508 499.093C40.0432 505.609 28.1772 502.471 17.1473 495.039C2.08883 485.01 -11.5419 467.109 -16.539 460.423C-30.6473 441.711 -59.5291 386.497 -69.0306 340.204C-81.6881 332.383 -94.4111 325.963 -106.682 322.287C-119.551 318.358 -131.886 317.361 -142.815 320.731C-169.697 329.192 -174.8 355.255 -169.833 385.453C-168.332 394.633 -165.831 404.208 -162.656 413.827C-151.073 414.99 -138.407 419.289 -125.684 425.71C-95.8015 440.805 -65.4443 467.499 -47.8525 490.278C-41.7453 498.167 -32.0876 512.157 -29.7498 524.793C-28.0315 533.913 -30.1405 542.225 -39.106 547.525C-50.0379 553.933 -62.3498 551.882 -74.177 545.843C-90.5901 537.486 -105.895 521.304 -114.078 512.835C-130.119 496.249 -153.766 457.397 -167.146 418.48C-171.892 418.343 -176.403 418.854 -180.643 420.149C-196.518 425.03 -207.422 440.689 -209.978 472.061C-211.192 487.227 -210.541 502.549 -206.463 517.659C-200.567 539.348 -189.924 559.015 -177.282 578.592C-176.491 579.841 -176.989 581.361 -178.424 581.966C-179.858 582.571 -181.682 582.068 -182.472 580.819C-195.417 560.718 -206.326 540.664 -212.273 518.528C-216.505 502.958 -217.252 487.139 -215.975 471.453C-213.243 437.329 -200.29 420.749 -183.001 415.437C-178.545 414.082 -173.864 413.461 -168.891 413.451C-171.892 404.119 -174.264 394.781 -175.694 385.875C-181.134 353.105 -174.346 325.237 -145.117 315.982C-123.522 309.251 -96.8168 317.766 -70.3474 333.383C-71.2001 328.339 -71.7084 323.472 -72.0208 318.719C-73.2779 296.757 -67.6403 279.22 -51.6234 271.451C-40.9988 266.279 -27.6248 266.048 -12.8636 269.476C-16.2748 261.367 -19.3665 253.212 -22.1595 245.184C-36.6013 202.077 -39.1353 161.76 -16.8508 137.725C-7.81705 127.986 5.00304 122.837 19.1914 120.642C39.9323 117.499 63.7233 120.7 82.6207 124.978C86.597 125.85 90.4025 126.832 94.2547 127.864C92.0712 121.282 90.1045 114.639 88.3436 108.023C83.8974 91.6325 79.3003 71.7426 80.7445 53.3921C81.6997 40.7905 85.441 28.9499 93.7429 19.203C105.637 5.30226 122.846 1.08057 141.195 2.11608C158.972 3.12081 177.773 9.05942 193.377 15.4605C261.862 43.2243 318.374 91.5717 340.311 153.979C340.782 155.274 339.881 156.653 338.319 157.021C336.813 157.353 335.136 156.517 334.619 155.172C313.132 94.2329 257.889 47.0641 190.999 19.9495C175.982 13.8894 157.996 8.14529 141.053 7.16171C124.626 6.24556 109.171 9.8161 98.5537 22.2545C88.9077 33.587 86.0511 48.0535 86.3424 62.8879C86.6947 78.0826 90.3905 93.759 94.0508 107.141C96.1185 114.677 98.346 122.191 100.836 129.694L100.918 129.881ZM-161.093 419.051C-150.903 420.473 -139.817 424.434 -128.725 430.068C-99.5789 444.759 -70.0856 470.812 -52.889 492.966C-47.1413 500.367 -37.9045 513.51 -35.7347 525.375C-34.4136 532.594 -35.6931 539.252 -42.7953 543.432C-51.7608 548.732 -61.7638 546.631 -71.4758 541.705C-87.2454 533.653 -101.836 518.048 -109.741 509.88C-125.217 493.807 -147.92 456.665 -161.093 419.051ZM-62.2603 344.789C-21.5865 371.865 16.8299 412.781 32.2608 432.238C39.1542 440.978 50.5066 457.393 53.6683 472.294C55.5926 481.441 54.4465 490.01 46.3263 495.245C38.3765 500.37 29.1859 497.187 20.5739 491.392C6.14828 481.754 -6.88149 464.504 -11.6578 458.155C-25.0934 440.368 -51.9655 389.292 -62.1677 344.889L-62.2603 344.789ZM-8.79731 272.814C-3.31348 274.632 7.79636 281.647 13.5976 284.299C71.908 310.952 140.313 373.847 157.966 394.828C165.595 403.973 180.013 420.567 185.193 436.085C188.379 445.618 187.995 454.815 179.223 461.11C174.173 464.765 167.971 465.406 161.146 464.293C153.712 463.012 145.708 459.543 137.623 455.007C112.552 440.805 87.0815 415.675 78.5459 406.235C55.9708 381.395 14.8551 325.406 -8.79731 272.814ZM102.831 135.68C177.334 158.286 225.528 204.885 272.542 261.194C280.541 270.74 299.094 294.657 307.309 316.208C309.919 323.156 311.51 329.881 311.16 335.78C310.759 341.232 308.83 345.912 304.337 349.288C299.163 353.103 292.678 353.928 285.487 352.811C277.78 351.626 269.342 348.276 260.789 343.722C234.439 329.706 207.7 304.674 199.328 295.608C155.595 248.051 122.781 192.896 102.831 135.68Z" fill="black" stroke="#292929" stroke-width="2.27" stroke-miterlimit="10"/>
</svg>
