<svg width="261" height="260" viewBox="0 0 261 260" fill="none" xmlns="http://www.w3.org/2000/svg">
<path fill-rule="evenodd" clip-rule="evenodd" d="M6.20301 165.531C65.5543 89.2638 158.595 89.2774 236.67 122.136C238.023 122.7 239.612 122.008 240.25 120.585C240.867 119.169 240.293 117.554 238.94 116.991C158.669 83.2079 63.1103 83.8206 2.09049 162.235C1.1429 163.46 1.29264 165.192 2.42846 166.101C3.5564 167.023 5.24756 166.77 6.20301 165.531Z" fill="#292929"/>
<path fill-rule="evenodd" clip-rule="evenodd" d="M236.341 118.99C231.639 119.639 225.739 120.393 225.062 120.508C206.953 123.364 190.087 128.963 173.274 137.25C171.908 137.909 171.263 139.579 171.844 140.946C172.419 142.326 173.992 142.89 175.352 142.211C191.65 134.168 208.019 128.753 225.587 125.983C226.616 125.817 239.879 124.124 242.557 123.572C243.65 123.354 244.225 122.889 244.349 122.762C245.038 122.129 245.239 121.432 245.307 120.875C245.361 120.255 245.226 119.201 244.358 118.211C243.446 117.179 241.019 115.542 240.451 115.088C231.764 108.067 221.436 101.039 213.303 92.4751C205.537 84.3039 199.756 74.7283 199.737 62.2047C199.736 60.685 198.529 59.5185 197.053 59.6067C195.577 59.695 194.374 61.0082 194.376 62.5278C194.386 76.5293 200.696 87.3315 209.366 96.4588C217.463 104.966 227.643 112.017 236.341 118.99Z" fill="#292929"/>
</svg>
