<svg width="222" height="221" viewBox="0 0 222 221" fill="none" xmlns="http://www.w3.org/2000/svg">
<path fill-rule="evenodd" clip-rule="evenodd" d="M6.45605 186.595C36.0329 94.6142 123.418 62.77 208.016 66.9104C209.48 66.977 210.735 65.7825 210.846 64.2279C210.94 62.6862 209.847 61.365 208.383 61.2985C121.405 57.0419 31.8703 90.3367 1.46301 184.906C0.993386 186.382 1.72821 187.958 3.10668 188.423C4.4824 188.903 5.9837 188.086 6.45605 186.595Z" fill="#292929"/>
<path fill-rule="evenodd" clip-rule="evenodd" d="M206.615 64.0597C202.421 66.2797 197.139 69.0078 196.543 69.348C180.514 78.2319 166.596 89.2673 153.648 102.811C152.592 103.897 152.558 105.688 153.574 106.772C154.586 107.872 156.257 107.864 157.302 106.76C169.849 93.6231 183.365 82.9302 198.914 74.3119C199.824 73.804 211.699 67.6719 214.024 66.2365C214.976 65.6566 215.356 65.0238 215.43 64.8618C215.86 64.0312 215.809 63.307 215.682 62.76C215.52 62.1592 215.032 61.2149 213.877 60.5826C212.667 59.9247 209.825 59.2181 209.136 58.9857C198.569 55.3631 186.458 52.2961 175.882 47.0345C165.786 42.016 157.071 34.9985 152.757 23.2379C152.234 21.8106 150.7 21.1278 149.344 21.7161C147.988 22.3045 147.31 23.9499 147.832 25.3773C152.646 38.5294 162.277 46.5186 173.551 52.1257C184.074 57.3463 196.054 60.4859 206.615 64.0597Z" fill="#292929"/>
</svg>
