<svg width="191" height="190" viewBox="0 0 191 190" fill="none" xmlns="http://www.w3.org/2000/svg">
<path fill-rule="evenodd" clip-rule="evenodd" d="M184.765 2.41306C171.656 98.1268 91.1357 144.621 7.09212 155.192C5.63879 155.38 4.61107 156.773 4.77255 158.324C4.94871 159.858 6.25524 160.97 7.70857 160.782C94.1156 149.914 176.501 101.619 189.977 3.21173C190.182 1.67705 189.184 0.25195 187.745 0.0327101C186.307 -0.20219 184.97 0.862719 184.765 2.41306Z" fill="#292929"/>
<path fill-rule="evenodd" clip-rule="evenodd" d="M8.96979 157.791C12.7132 154.878 17.4407 151.277 17.9692 150.838C32.2089 139.312 43.9964 126.033 54.3899 110.451C55.2414 109.198 54.9626 107.429 53.7735 106.536C52.5844 105.628 50.9402 105.925 50.1034 107.194C40.0329 122.306 28.5827 135.178 14.7687 146.36C13.9613 147.017 3.33266 155.113 1.29213 156.93C0.455365 157.666 0.191439 158.355 0.147398 158.527C-0.131523 159.42 0.0447524 160.124 0.264954 160.641C0.529195 161.205 1.17472 162.051 2.42253 162.473C3.72905 162.912 6.65056 163.116 7.36989 163.225C18.4093 164.964 30.8727 165.887 42.2057 169.239C53.0249 172.433 62.831 177.836 69.1288 188.673C69.8921 189.988 71.5219 190.395 72.7551 189.581C73.9882 188.767 74.37 187.028 73.6066 185.713C66.5749 173.592 55.6967 167.391 43.615 163.82C32.3406 160.5 19.9945 159.482 8.96979 157.791Z" fill="#292929"/>
</svg>
