<svg width="448" height="448" viewBox="0 0 448 448" fill="none" xmlns="http://www.w3.org/2000/svg">
<path d="M398.378 298.724L395.499 297.668L402.909 277.461L405.787 278.516L398.378 298.724ZM405.579 279.085L396.135 275.622L397.42 272.12L406.87 275.564L405.579 279.085ZM397.248 301.805L387.836 298.312L389.12 294.81L398.546 298.266L397.248 301.805ZM423.469 303.993L420.571 302.93L424.861 291.231L427.759 292.294L423.469 303.993ZM422.353 307.037L395.653 297.247L396.944 293.726L423.644 303.516L422.353 307.037ZM428.202 291.083L426.905 294.622L416.361 290.132C414.774 289.467 413.339 288.767 412.054 288.033C410.783 287.303 409.647 286.561 408.648 285.806C407.649 285.051 406.784 284.29 406.053 283.523C405.334 282.76 404.742 282.009 404.278 281.271C403.826 280.536 403.493 279.818 403.28 279.115C403.073 278.43 402.986 277.78 403.016 277.167L403.608 275.554L406.487 276.609L406.07 277.746C406.296 278.19 406.659 278.732 407.159 279.373C407.654 280.026 408.341 280.743 409.22 281.522C410.107 282.319 411.24 283.144 412.619 283.996C413.994 284.861 415.676 285.72 417.665 286.575L428.202 291.083Z" fill="white"/>
<path d="M398.169 327.682L395.479 326.21L402.863 312.707L405.553 314.178L398.169 327.682ZM415.999 320.558L391.049 306.914L392.857 303.607L417.808 317.251L415.999 320.558ZM407.322 336.427L382.371 322.783L384.171 319.493L409.121 333.136L407.322 336.427Z" fill="white"/>
<path d="M382.276 334.405L391.316 358.789L389.043 361.797L366.356 344.651L368.628 341.644L386.127 354.868L377.071 330.472L379.332 327.48L402.02 344.625L399.759 347.617L382.276 334.405Z" fill="white"/>
<path d="M329.28 391.081L335.675 386.979L337.331 389.56L330.935 393.662C329.697 394.456 328.821 395.297 328.307 396.183C327.792 397.07 327.585 397.976 327.684 398.903C327.772 399.836 328.105 400.752 328.681 401.651C329.208 402.473 329.885 403.13 330.711 403.621C331.525 404.12 332.457 404.342 333.505 404.288C334.561 404.245 335.708 403.827 336.946 403.032L342.601 399.405L328.914 378.066L332.087 376.031L347.44 399.967L338.612 405.63C336.804 406.79 335.075 407.458 333.424 407.635C331.774 407.812 330.271 407.554 328.914 406.862C327.565 406.181 326.436 405.133 325.529 403.719C324.545 402.185 324.028 400.668 323.979 399.168C323.93 397.668 324.347 396.232 325.231 394.861C326.122 393.501 327.471 392.241 329.28 391.081Z" fill="white"/>
<path d="M297.988 411.763L297.233 410.132C296.336 408.195 295.774 406.346 295.547 404.585C295.32 402.825 295.413 401.197 295.825 399.7C296.236 398.204 296.949 396.876 297.962 395.718C298.964 394.566 300.251 393.625 301.822 392.898C303.346 392.192 304.878 391.827 306.416 391.803C307.943 391.785 309.422 392.097 310.854 392.74C312.273 393.389 313.593 394.363 314.812 395.664C316.031 396.965 317.09 398.584 317.987 400.521L318.742 402.152C319.64 404.09 320.193 405.936 320.403 407.69C320.606 409.461 320.496 411.097 320.072 412.599C319.654 414.113 318.944 415.446 317.942 416.599C316.929 417.757 315.66 418.689 314.136 419.395C312.564 420.123 311.015 420.496 309.488 420.514C307.95 420.538 306.474 420.217 305.061 419.551C303.641 418.903 302.333 417.923 301.138 416.611C299.936 415.317 298.886 413.701 297.988 411.763ZM300.618 408.565L301.39 410.231C302.101 411.767 302.89 413.052 303.756 414.085C304.611 415.125 305.525 415.907 306.5 416.431C307.474 416.955 308.495 417.222 309.561 417.23C310.615 417.245 311.691 416.997 312.79 416.488C313.853 415.996 314.72 415.343 315.391 414.53C316.051 413.723 316.501 412.775 316.744 411.687C316.974 410.605 316.981 409.396 316.765 408.061C316.549 406.726 316.085 405.291 315.373 403.755L314.602 402.089C313.885 400.541 313.085 399.247 312.202 398.207C311.324 397.179 310.389 396.399 309.397 395.869C308.398 395.355 307.378 395.089 306.336 395.069C305.282 395.055 304.223 395.294 303.16 395.787C302.049 396.301 301.158 396.964 300.487 397.777C299.816 398.59 299.371 399.535 299.153 400.612C298.928 401.707 298.935 402.916 299.175 404.24C299.421 405.575 299.902 407.017 300.618 408.565Z" fill="white"/>
<path d="M283.604 414.367L297.494 426.569L293.238 427.74L282.681 417.862L277.522 419.281L277.277 416.107L283.604 414.367ZM281.723 415.188L286.167 400.191L290.686 398.948L284.881 417.682L281.723 415.188ZM279.227 431.594L271.685 404.175L275.282 403.185L282.824 430.604L279.227 431.594ZM264.689 435.593L270.422 417.993L276.561 416.304L277.955 419.162L272.983 420.529L268.964 434.417L264.689 435.593ZM260.951 407.127L272.42 417.747L270.964 421.51L256.431 408.371L260.951 407.127Z" fill="white"/>
<path d="M232.385 413.529L232.078 410.478L253.494 408.324L253.801 411.375L232.385 413.529ZM253.198 411.436L252.191 401.428L255.903 401.054L256.929 411.061L253.198 411.436ZM229.12 413.858L228.155 403.865L231.866 403.492L232.871 413.48L229.12 413.858ZM238.597 438.404L238.288 435.333L250.687 434.086L250.996 437.157L238.597 438.404ZM235.371 438.728L232.525 410.433L236.256 410.058L239.102 438.353L235.371 438.728ZM252.278 437.028L248.528 437.405L247.965 425.958C247.871 424.24 247.874 422.643 247.974 421.168C248.075 419.705 248.248 418.359 248.491 417.131C248.733 415.903 249.04 414.792 249.412 413.799C249.784 412.82 250.202 411.96 250.664 411.22C251.127 410.493 251.628 409.879 252.167 409.38C252.694 408.895 253.24 408.533 253.805 408.293L255.515 408.121L255.822 411.172L254.617 411.293C254.316 411.69 253.987 412.253 253.628 412.983C253.257 413.714 252.912 414.645 252.594 415.776C252.265 416.921 252.017 418.301 251.852 419.914C251.674 421.528 251.635 423.417 251.735 425.579L252.278 437.028Z" fill="white"/>
<path d="M206.327 412.882L206.445 409.818L221.493 410.399L221.375 413.463L206.327 412.882ZM219.634 438.786L220.732 410.369L224.498 410.515L223.401 438.931L219.634 438.786ZM207.811 426.093L207.929 423.029L220.986 423.533L220.867 426.598L207.811 426.093ZM205.543 438.241L205.662 435.158L220.515 435.731L220.396 438.815L205.543 438.241Z" fill="white"/>
<path d="M182.232 422.444L182.737 419.42L197.918 421.955L197.412 424.98L182.232 422.444ZM194.82 436.943L199.505 408.894L203.223 409.515L198.538 437.564L194.82 436.943ZM176.981 433.963L181.667 405.914L185.365 406.532L180.68 434.581L176.981 433.963Z" fill="white"/>
<path d="M170.899 409.649L150.815 426.17L147.229 425.007L156.008 397.958L159.593 399.122L152.822 419.984L172.913 403.444L176.48 404.602L167.702 431.651L164.135 430.493L170.899 409.649Z" fill="white"/>
<path d="M131.955 398.902L139.141 402.393L140.477 403.889C142.042 405.374 143.03 406.961 143.44 408.651C143.843 410.353 143.607 412.105 142.731 413.909C141.928 415.56 140.885 416.783 139.602 417.578C138.306 418.368 136.84 418.734 135.203 418.677C133.554 418.614 131.804 418.133 129.954 417.234L121.767 413.256L134.195 387.678L137.585 389.325L126.507 412.128L131.303 414.458C133.176 415.369 134.804 415.609 136.185 415.18C137.554 414.745 138.606 413.772 139.34 412.262C139.818 411.278 140.04 410.3 140.006 409.328C139.96 408.35 139.635 407.439 139.031 406.596C138.428 405.753 137.517 405.035 136.299 404.443L130.589 401.669L131.955 398.902ZM136.864 403.458L148.776 394.762L152.377 396.512L140.29 405.123L136.864 403.458Z" fill="white"/>
<path d="M72.4009 338.315L74.7427 336.335L88.638 352.772L86.2962 354.752L72.4009 338.315ZM85.9053 354.289L93.5869 347.796L95.9953 350.645L88.3263 357.153L85.9053 354.289ZM70.2826 335.809L77.9745 329.358L80.3829 332.206L72.7162 338.688L70.2826 335.809ZM55.4085 357.513L57.7652 355.521L65.8098 365.037L63.4531 367.029L55.4085 357.513ZM53.3154 355.037L75.0327 336.678L77.4537 339.542L55.7363 357.901L53.3154 355.037ZM64.2853 368.014L61.8518 365.135L70.9707 358.193C72.3337 357.144 73.6519 356.242 74.9253 355.49C76.1888 354.746 77.3957 354.126 78.5459 353.631C79.6961 353.136 80.7854 352.761 81.814 352.505C82.8325 352.258 83.7777 352.115 84.6493 352.078C85.5111 352.048 86.3001 352.114 87.0165 352.276C87.7145 352.436 88.3222 352.681 88.8397 353.011L89.9493 354.323L87.6075 356.303L86.8258 355.378C86.3288 355.355 85.6781 355.402 84.8737 355.52C84.0608 355.627 83.0981 355.87 81.9854 356.248C80.8544 356.624 79.5772 357.201 78.1539 357.978C76.7222 358.745 75.1432 359.781 73.4168 361.087L64.2853 368.014Z" fill="white"/>
<path d="M47.2409 323.67L49.852 322.062L57.9223 335.167L55.3113 336.775L47.2409 323.67ZM44.5932 342.687L68.8075 327.775L70.7841 330.985L46.5698 345.897L44.5932 342.687ZM35.1095 327.287L59.3238 312.375L61.2902 315.568L37.0759 330.48L35.1095 327.287Z" fill="white"/>
<path d="M49.4059 306.858L23.7359 302.689L22.2416 299.228L48.3492 287.955L49.8435 291.415L29.7069 300.11L55.3949 304.272L56.8815 307.715L30.7738 318.988L29.2873 315.545L49.4059 306.858Z" fill="white"/>
<path d="M26.4284 233.109L26.8094 240.697L23.7468 240.851L23.3658 233.262C23.2921 231.793 22.9982 230.615 22.4844 229.728C21.9705 228.841 21.287 228.211 20.4338 227.836C19.58 227.449 18.6199 227.282 17.5535 227.336C16.5782 227.384 15.6721 227.645 14.8354 228.117C13.998 228.577 13.3421 229.274 12.8676 230.211C12.3801 231.148 12.1733 232.351 12.247 233.821L12.5839 240.531L37.9036 239.26L38.0926 243.025L9.6909 244.451L9.16498 233.975C9.05725 231.83 9.3368 229.997 10.0036 228.477C10.6704 226.958 11.6413 225.781 12.9162 224.948C14.1782 224.115 15.6479 223.657 17.3255 223.573C19.1461 223.481 20.7194 223.787 22.0454 224.49C23.3713 225.192 24.4096 226.268 25.1603 227.716C25.898 229.165 26.3207 230.963 26.4284 233.109Z" fill="white"/>
<path d="M24.0404 194.625L25.8302 194.784C27.9572 194.973 29.8401 195.409 31.4789 196.091C33.1176 196.772 34.4827 197.665 35.5742 198.769C36.6656 199.872 37.4603 201.152 37.9583 202.608C38.4574 204.051 38.6302 205.635 38.4768 207.36C38.328 209.033 37.8801 210.543 37.133 211.888C36.387 213.22 35.3784 214.346 34.107 215.266C32.8368 216.173 31.3339 216.83 29.5982 217.238C27.8626 217.645 25.9312 217.755 23.8042 217.566L22.0144 217.406C19.8874 217.217 18.0115 216.776 16.3869 216.082C14.7504 215.375 13.3871 214.463 12.2968 213.346C11.1936 212.228 10.3924 210.948 9.89326 209.505C9.39529 208.049 9.2207 206.484 9.36949 204.811C9.5229 203.086 9.97258 201.557 10.7185 200.225C11.4657 198.88 12.4802 197.761 13.7622 196.868C15.0325 195.961 16.5342 195.317 18.2676 194.935C19.9891 194.539 21.9134 194.436 24.0404 194.625ZM25.4998 198.5L23.671 198.337C21.985 198.188 20.4779 198.23 19.1498 198.465C17.8228 198.687 16.689 199.089 15.7482 199.672C14.8075 200.255 14.0674 201.006 13.5281 201.926C12.99 202.832 12.6673 203.888 12.56 205.095C12.4562 206.262 12.5892 207.339 12.9589 208.326C13.3298 209.3 13.9262 210.164 14.7482 210.917C15.5713 211.657 16.6152 212.266 17.8799 212.744C19.1445 213.223 20.6199 213.537 22.3059 213.687L24.1347 213.85C25.8337 214.001 27.3543 213.953 28.6965 213.706C30.0258 213.459 31.1679 213.037 32.1228 212.442C33.0658 211.833 33.8059 211.082 34.3428 210.189C34.881 209.282 35.202 208.246 35.3058 207.078C35.4142 205.859 35.2835 204.756 34.9138 203.769C34.5441 202.782 33.9471 201.925 33.1228 201.198C32.2867 200.457 31.2352 199.86 29.9682 199.407C28.6883 198.954 27.1988 198.651 25.4998 198.5Z" fill="white"/>
<path d="M28.762 181.436L11.2837 187.464L12.3734 183.186L26.1822 178.904L27.5033 173.718L30.3821 175.077L28.762 181.436ZM28.9796 179.395L39.8101 190.68L38.6529 195.222L25.2495 180.904L28.9796 179.395ZM15.9608 169.105L43.5181 176.125L42.5971 179.74L15.0398 172.72L15.9608 169.105ZM19.6832 154.493L32.1372 168.187L30.5653 174.357L27.3924 174.154L28.6654 169.157L18.5886 158.79L19.6832 154.493ZM46.2665 165.337L31.3615 170.045L28.8128 166.917L47.4237 160.795L46.2665 165.337Z" fill="white"/>
<path d="M55.0026 137.03L57.7993 138.287L48.9733 157.918L46.1766 156.66L55.0026 137.03ZM46.4249 156.108L55.5989 160.233L54.0692 163.635L44.8871 159.528L46.4249 156.108ZM56.3481 134.037L65.4883 138.189L63.9585 141.592L54.8023 137.475L56.3481 134.037ZM30.349 129.993L33.1635 131.258L28.0537 142.623L25.2392 141.358L30.349 129.993ZM31.6785 127.036L57.6151 138.697L56.0773 142.117L30.1407 130.456L31.6785 127.036ZM24.7106 142.534L26.2563 139.096L36.4548 144.323C37.9904 145.099 39.3725 145.899 40.6011 146.723C41.8179 147.541 42.8978 148.362 43.8409 149.186C44.7839 150.01 45.5928 150.83 46.2676 151.647C46.9304 152.459 47.4671 153.25 47.8776 154.02C48.2762 154.785 48.5572 155.525 48.7208 156.241C48.8777 156.94 48.9192 157.594 48.8452 158.203L48.1404 159.77L45.3437 158.513L45.8402 157.409C45.6465 156.95 45.3231 156.384 44.8698 155.709C44.422 155.022 43.7873 154.258 42.966 153.418C42.1381 152.56 41.0665 151.657 39.7511 150.709C38.4411 149.749 36.8244 148.772 34.9011 147.779L24.7106 142.534Z" fill="white"/>
<path d="M67.7012 115.937L70.3063 117.555L62.363 130.348L59.7579 128.73L67.7012 115.937ZM38.6055 114.7L62.7648 129.701L60.7764 132.903L36.6171 117.903L38.6055 114.7ZM55.4833 110.696L58.0884 112.314L51.1959 123.414L48.5908 121.797L55.4833 110.696ZM46.0439 102.72L48.6656 104.348L40.8253 116.975L38.2037 115.347L46.0439 102.72Z" fill="white"/>
<path d="M71.6429 89.7891L74.0132 91.7344L64.2494 103.631L61.879 101.686L71.6429 89.7891ZM52.7996 93.4767L74.7819 111.517L72.3905 114.431L50.4082 96.3905L52.7996 93.4767ZM64.2733 79.4962L86.2556 97.5369L83.8766 100.436L61.8943 82.3949L64.2733 79.4962Z" fill="white"/>
<path d="M88.6041 85.9533L84.2163 60.3197L87.0047 57.783L106.141 78.8185L103.353 81.3551L88.593 65.1307L92.9939 90.7787L90.2199 93.3022L71.0836 72.2667L73.8575 69.7433L88.6041 85.9533Z" fill="white"/>
<path d="M116.595 57.806L110.017 62.3382L108.057 62.7637C105.993 63.3948 104.125 63.4722 102.453 62.9957C100.773 62.5086 99.3644 61.4394 98.2267 59.7882C97.1851 58.2763 96.6347 56.766 96.5755 55.2572C96.527 53.741 96.9309 52.2847 97.7872 50.8883C98.6542 49.4845 99.9347 48.199 101.629 47.0318L109.124 41.8678L125.258 65.2852L122.154 67.4239L107.77 46.5477L103.38 49.5729C101.664 50.7549 100.653 52.0526 100.346 53.4659C100.049 54.8718 100.378 56.2663 101.331 57.6495C101.951 58.5501 102.693 59.225 103.556 59.6741C104.43 60.1158 105.382 60.2818 106.413 60.1721C107.445 60.0625 108.518 59.6235 109.633 58.8552L114.86 55.2537L116.595 57.806ZM110.211 59.8323L111.909 74.4827L108.612 76.7544L107.075 61.9932L110.211 59.8323Z" fill="white"/>
<path d="M198.458 35.3364L199.021 38.3507L177.864 42.3024L177.301 39.2882L198.458 35.3364ZM177.896 39.177L179.742 49.0646L176.075 49.7495L174.209 39.8655L177.896 39.177ZM201.684 34.734L203.488 44.6095L199.821 45.2945L197.978 35.4261L201.684 34.734ZM190.171 11.0744L190.738 14.1078L178.489 16.3957L177.922 13.3622L190.171 11.0744ZM193.358 10.4791L198.579 38.4332L194.893 39.1217L189.672 11.1676L193.358 10.4791ZM176.655 13.5989L180.36 12.9068L181.886 24.2651C182.125 25.969 182.256 27.5604 182.281 29.0394C182.303 30.5056 182.245 31.8609 182.106 33.1054C181.968 34.3499 181.756 35.4823 181.469 36.5027C181.181 37.5104 180.837 38.4024 180.439 39.1788C180.039 39.9424 179.591 40.5955 179.097 41.1383C178.612 41.6659 178.099 42.073 177.556 42.3598L175.867 42.6754L175.304 39.6611L176.494 39.4388C176.76 39.0182 177.041 38.4293 177.336 37.6721C177.645 36.9124 177.91 35.9556 178.132 34.8015C178.363 33.6323 178.494 32.237 178.522 30.6157C178.563 28.992 178.443 27.107 178.161 24.9608L176.655 13.5989Z" fill="white"/>
<path d="M223.533 21.0239L223.639 24.0885L208.258 24.623L208.152 21.5584L223.533 21.0239ZM208.313 9.31888L209.3 37.7392L205.533 37.8701L204.545 9.44978L208.313 9.31888ZM226.388 8.69078L227.375 37.1111L223.628 37.2414L222.64 8.82101L226.388 8.69078Z" fill="white"/>
<path d="M237.778 31.1555L254.139 10.9404L257.885 11.3609L254.713 39.6209L250.967 39.2004L253.413 17.4037L237.05 37.6382L233.323 37.2199L236.496 8.95987L240.222 9.37819L237.778 31.1555Z" fill="white"/>
<path d="M313.519 47.6489L306.748 44.2026L308.139 41.4698L314.91 44.9162C316.221 45.5836 317.389 45.9151 318.414 45.9108C319.439 45.9065 320.326 45.6276 321.076 45.0739C321.837 44.5261 322.459 43.7765 322.944 42.8249C323.387 41.9546 323.612 41.0391 323.618 40.0783C323.637 39.1234 323.358 38.2072 322.782 37.3296C322.212 36.4403 321.271 35.662 319.96 34.9946L313.972 31.9469L302.473 54.5402L299.113 52.8303L312.013 27.4868L321.36 32.2444C323.275 33.219 324.725 34.3736 325.711 35.7084C326.697 37.0432 327.235 38.4708 327.323 39.9913C327.417 41.5002 327.083 43.0031 326.321 44.5C325.494 46.1246 324.446 47.3371 323.176 48.1374C321.907 48.9377 320.457 49.303 318.827 49.233C317.203 49.1515 315.434 48.6235 313.519 47.6489Z" fill="white"/>
<path d="M347.575 64.2698L346.55 65.7457C345.332 67.4997 344.021 68.9196 342.617 70.0055C341.213 71.0914 339.761 71.835 338.262 72.2364C336.763 72.6378 335.257 72.6941 333.746 72.4054C332.245 72.1241 330.783 71.4896 329.361 70.5018C327.981 69.5438 326.892 68.407 326.093 67.0916C325.306 65.7835 324.827 64.3495 324.658 62.7896C324.5 61.237 324.673 59.6059 325.179 57.8962C325.684 56.1865 326.546 54.4546 327.764 52.7006L328.789 51.2247C330.007 49.4707 331.32 48.0598 332.727 46.9921C334.152 45.9211 335.62 45.1886 337.13 44.7946C338.647 44.3899 340.157 44.3282 341.658 44.6095C343.169 44.8983 344.615 45.5217 345.994 46.4797C347.417 47.4675 348.522 48.6154 349.31 49.9234C350.108 51.2388 350.578 52.6745 350.718 54.2303C350.877 55.7828 350.692 57.4065 350.165 59.1014C349.656 60.793 348.793 62.5158 347.575 64.2698ZM343.486 63.6179L344.533 62.1099C345.499 60.7196 346.208 59.3894 346.662 58.1193C347.127 56.8567 347.339 55.6724 347.298 54.5664C347.258 53.4603 346.972 52.4454 346.441 51.5215C345.92 50.605 345.162 49.8014 344.167 49.1107C343.205 48.4423 342.203 48.0242 341.163 47.8564C340.133 47.696 339.087 47.7863 338.026 48.1274C336.975 48.4759 335.929 49.0809 334.887 49.9425C333.845 50.804 332.841 51.93 331.875 53.3204L330.828 54.8284C329.855 56.2294 329.144 57.574 328.693 58.8622C328.25 60.1397 328.05 61.3405 328.094 62.4646C328.156 63.5855 328.441 64.6005 328.952 65.5095C329.472 66.426 330.214 67.2185 331.177 67.8869C332.182 68.585 333.205 69.018 334.246 69.1858C335.286 69.3536 336.327 69.2595 337.366 68.9036C338.424 68.5444 339.464 67.9266 340.484 67.0502C341.512 66.1631 342.513 65.019 343.486 63.6179Z" fill="white"/>
<path d="M357.747 75.7863L361.226 57.628L364.393 60.7035L361.227 74.8103L365.066 78.539L362.454 80.3587L357.747 75.7863ZM359.408 76.9914L344.228 80.7618L340.866 77.4957L359.958 73.0055L359.408 76.9914ZM374.816 70.8283L355.002 91.2267L352.326 88.6275L372.14 68.229L374.816 70.8283ZM385.632 81.334L367.554 85.3122L362.987 80.8759L364.744 78.226L368.442 81.8187L382.451 78.2449L385.632 81.334ZM362.988 98.9836L366.329 83.714L370.311 83.0622L366.35 102.25L362.988 98.9836Z" fill="white"/>
<path d="M382.726 119.896L380.253 121.709L367.528 104.35L370.001 102.537L382.726 119.896ZM370.359 103.025L362.247 108.972L360.041 105.963L368.142 100.001L370.359 103.025ZM384.666 122.543L376.546 128.446L374.341 125.437L382.437 119.502L384.666 122.543ZM401.006 101.92L398.517 103.744L391.15 93.694L393.639 91.8696L401.006 101.92ZM402.923 104.535L379.987 121.347L377.77 118.322L400.706 101.51L402.923 104.535ZM392.877 90.8299L395.106 93.8701L385.528 100.164C384.096 101.117 382.719 101.925 381.396 102.588C380.084 103.243 378.837 103.777 377.656 104.191C376.474 104.605 375.361 104.904 374.318 105.088C373.284 105.265 372.332 105.341 371.459 105.319C370.598 105.288 369.815 105.168 369.112 104.957C368.426 104.749 367.837 104.463 367.344 104.098L366.327 102.712L368.801 100.899L369.517 101.875C370.011 101.933 370.663 101.931 371.474 101.87C372.292 101.819 373.269 101.643 374.405 101.343C375.56 101.046 376.874 100.559 378.347 99.8822C379.829 99.2161 381.476 98.2914 383.288 97.108L392.877 90.8299Z" fill="white"/>
<path d="M395.293 142.227L392.597 143.688L385.421 130.449L388.117 128.988L395.293 142.227ZM410.785 117.567L385.784 131.119L383.988 127.805L408.989 114.253L410.785 117.567ZM405.899 134.212L403.204 135.673L396.977 124.185L399.673 122.724L405.899 134.212ZM417.505 129.965L414.792 131.435L407.709 118.368L410.422 116.898L417.505 129.965Z" fill="white"/>
<path d="M415.785 158.012L412.922 159.111L407.408 144.743L410.27 143.644L415.785 158.012ZM421.895 139.81L395.346 150L393.995 146.48L420.544 136.291L421.895 139.81ZM428.376 156.695L401.826 166.885L400.483 163.384L427.032 153.194L428.376 156.695Z" fill="white"/>
<path d="M410.698 174.611L435.132 183.519L435.951 187.198L408.192 193.377L407.373 189.697L428.783 184.932L404.331 176.028L403.516 172.368L431.274 166.189L432.089 169.85L410.698 174.611Z" fill="white"/>
<path d="M421.234 212.876L420.557 204.917L421.159 203.003C421.633 200.898 422.491 199.237 423.734 198.021C424.989 196.803 426.616 196.11 428.614 195.94C430.443 195.784 432.028 196.054 433.368 196.751C434.709 197.46 435.774 198.532 436.562 199.968C437.352 201.417 437.834 203.166 438.008 205.216L438.78 214.285L410.444 216.695L410.125 212.939L435.385 210.79L434.933 205.477C434.757 203.402 434.131 201.88 433.056 200.913C431.981 199.959 430.607 199.553 428.934 199.696C427.844 199.788 426.89 200.098 426.072 200.625C425.256 201.165 424.64 201.91 424.224 202.86C423.808 203.81 423.658 204.96 423.772 206.309L424.31 212.634L421.234 212.876ZM422.637 206.327L409.071 200.542L408.731 196.553L422.314 202.532L422.637 206.327Z" fill="white"/>
</svg>
