<svg width="453" height="453" viewBox="0 0 453 453" fill="none" xmlns="http://www.w3.org/2000/svg">
<path d="M413.898 292.848L416.277 286.045L419.147 287.007L416.987 293.183C416.631 294.204 416.491 295.155 416.569 296.037C416.646 296.92 416.932 297.682 417.425 298.323C417.926 298.981 418.625 299.467 419.522 299.781C420.505 300.124 421.371 300.213 422.119 300.047C422.874 299.898 423.529 299.485 424.082 298.81C424.644 298.151 425.131 297.232 425.544 296.052L427.375 290.816L403.444 282.447L404.689 278.889L431.532 288.276L428.457 297.07C427.975 298.447 427.404 299.627 426.743 300.609C426.094 301.596 425.344 302.362 424.492 302.905C423.648 303.465 422.708 303.785 421.673 303.864C420.639 303.944 419.494 303.764 418.241 303.326C417.135 302.939 416.232 302.306 415.532 301.427C414.845 300.552 414.395 299.512 414.182 298.306C413.965 297.113 414.011 295.819 414.319 294.423L413.898 292.848ZM401.4 288.291L404.212 280.253L406.403 283.275L404.295 289.303C403.9 290.434 403.761 291.462 403.879 292.386C403.993 293.322 404.333 294.124 404.9 294.791C405.479 295.463 406.26 295.97 407.244 296.314C408.239 296.662 409.162 296.785 410.012 296.682C410.861 296.579 411.616 296.216 412.276 295.591C412.936 294.967 413.476 294.052 413.898 292.848L415.671 287.778L418.515 288.814L416.091 295.746L414.794 296.141C414.232 297.393 413.481 298.358 412.541 299.036C411.612 299.718 410.587 300.125 409.465 300.257C408.339 300.401 407.198 300.271 406.043 299.867C404.371 299.282 403.086 298.419 402.189 297.278C401.3 296.153 400.786 294.822 400.648 293.283C400.522 291.75 400.773 290.086 401.4 288.291Z" fill="#292929"/>
<path d="M410.659 310.994L407.04 317.851C406.068 319.694 404.936 321.084 403.646 322.023C402.367 322.967 401.002 323.476 399.55 323.549C398.098 323.622 396.629 323.266 395.144 322.482C394.038 321.899 393.122 321.18 392.395 320.325C391.68 319.477 391.174 318.51 390.878 317.426C390.593 316.348 390.545 315.182 390.736 313.928C390.938 312.681 391.404 311.366 392.133 309.984L397.093 300.587L422.242 313.861L420.483 317.194L398.045 305.352L394.845 311.415C394.195 312.647 393.894 313.762 393.942 314.759C393.995 315.774 394.296 316.654 394.845 317.4C395.393 318.146 396.088 318.741 396.929 319.184C397.769 319.628 398.635 319.857 399.526 319.87C400.417 319.884 401.273 319.615 402.095 319.062C402.922 318.527 403.661 317.643 404.311 316.411L407.93 309.553L410.659 310.994ZM409.416 338.164L384.266 324.891L386.025 321.557L411.175 334.83L409.416 338.164Z" fill="#292929"/>
<path d="M390.817 363.748L368.129 346.603L370.39 343.611L390.616 358.896L399.07 347.708L378.845 332.423L381.117 329.416L403.805 346.561L390.817 363.748Z" fill="#292929"/>
<path d="M365.062 363.455L373.251 382.18L370.196 385.257L360.47 361.428C360.2 360.756 359.968 360.076 359.772 359.386C359.585 358.705 359.5 358.015 359.516 357.315C359.532 356.616 359.704 355.897 360.033 355.159C360.352 354.431 360.902 353.674 361.682 352.888C361.902 352.666 362.177 352.417 362.508 352.139C362.829 351.853 363.049 351.677 363.169 351.612L365.221 353.814C365.101 353.898 364.886 354.078 364.574 354.355C364.271 354.642 364.051 354.854 363.913 354.993C363.39 355.52 363.084 356.041 362.993 356.557C362.903 357.073 362.928 357.584 363.068 358.09C363.208 358.614 363.371 359.124 363.557 359.621L365.062 363.455ZM383.049 372.311L364.904 365.444L361.762 363.646L363.825 361.236L386.021 369.317L383.049 372.311Z" fill="#292929"/>
<path d="M339.101 385.199L336.126 387.482C335.187 385.938 334.616 384.349 334.413 382.715C334.21 381.082 334.46 379.471 335.161 377.883C335.87 376.305 337.129 374.822 338.937 373.435C340.259 372.42 341.653 371.745 343.118 371.409C344.573 371.08 346.037 371.073 347.509 371.388C348.989 371.713 350.432 372.353 351.839 373.309C353.243 374.284 354.551 375.561 355.764 377.142L357.488 379.389C358.7 380.969 359.591 382.558 360.161 384.157C360.728 385.773 360.972 387.342 360.892 388.864C360.802 390.393 360.389 391.834 359.654 393.186C358.919 394.538 357.854 395.749 356.459 396.819C354.755 398.127 353.068 398.912 351.399 399.175C349.73 399.438 348.134 399.251 346.611 398.614C345.086 397.995 343.675 397.002 342.379 395.633L345.354 393.35C346.307 394.293 347.27 394.991 348.241 395.444C349.22 395.907 350.229 396.068 351.27 395.926C352.31 395.785 353.414 395.266 354.581 394.37C355.583 393.602 356.32 392.733 356.791 391.764C357.252 390.803 357.471 389.774 357.448 388.675C357.416 387.584 357.152 386.449 356.657 385.269C356.163 384.09 355.456 382.901 354.536 381.702L352.788 379.424C351.94 378.319 351.03 377.368 350.058 376.571C349.075 375.782 348.065 375.204 347.027 374.835C345.989 374.466 344.941 374.351 343.882 374.49C342.832 374.64 341.806 375.099 340.803 375.868C339.533 376.843 338.675 377.821 338.23 378.802C337.785 379.784 337.661 380.798 337.857 381.846C338.043 382.901 338.458 384.019 339.101 385.199Z" fill="#292929"/>
<path d="M337.812 409.218L323.62 384.575L326.886 382.694L341.079 407.337L337.812 409.218ZM322.631 417.962L325.519 398.244L331.308 394.91L333.375 397.326L329.025 399.831L326.676 415.632L322.631 417.962ZM311.722 391.428L327.608 397.605L327.427 401.518L307.727 393.728L311.722 391.428Z" fill="#292929"/>
<path d="M294.911 416.423L293.759 413.582L308.022 407.799L309.174 410.641L294.911 416.423ZM313.225 422.191L302.54 395.838L306.033 394.421L316.719 420.775L313.225 422.191ZM296.465 428.987L285.779 402.633L289.255 401.224L299.94 427.578L296.465 428.987Z" fill="#292929"/>
<path d="M281.899 421.475L274.337 423.188C272.305 423.649 270.513 423.694 268.96 423.325C267.411 422.969 266.136 422.263 265.136 421.208C264.136 420.153 263.451 418.806 263.079 417.168C262.803 415.949 262.753 414.785 262.929 413.677C263.108 412.582 263.513 411.569 264.143 410.638C264.776 409.721 265.631 408.926 266.707 408.255C267.786 407.597 269.088 407.095 270.612 406.75L280.974 404.402L287.258 432.136L283.582 432.969L277.975 408.225L271.289 409.74C269.931 410.048 268.888 410.545 268.162 411.23C267.427 411.93 266.954 412.732 266.745 413.634C266.535 414.536 266.535 415.45 266.745 416.377C266.955 417.304 267.345 418.11 267.914 418.796C268.483 419.481 269.245 419.956 270.2 420.221C271.144 420.501 272.296 420.487 273.655 420.179L281.217 418.465L281.899 421.475ZM260.457 438.209L254.173 410.474L257.849 409.641L264.134 437.376L260.457 438.209Z" fill="#292929"/>
<path d="M231.022 415.381L230.774 412.324L245.783 411.106L246.031 414.162L231.022 415.381ZM247.325 439.512L245.024 411.168L248.781 410.863L251.082 439.207L247.325 439.512ZM234.071 428.321L233.823 425.265L246.847 424.207L247.095 427.264L234.071 428.321ZM233.27 440.653L233.02 437.577L247.834 436.374L248.084 439.45L233.27 440.653Z" fill="#292929"/>
<path d="M162.401 415.012L169.248 417.263L168.339 420.151L162.124 418.108C161.097 417.77 160.143 417.648 159.262 417.743C158.382 417.837 157.625 418.137 156.993 418.642C156.345 419.155 155.872 419.863 155.575 420.766C155.25 421.756 155.177 422.623 155.358 423.367C155.521 424.12 155.946 424.767 156.632 425.307C157.301 425.856 158.23 426.326 159.417 426.716L164.687 428.448L172.603 404.365L176.184 405.542L167.304 432.557L158.453 429.648C157.068 429.193 155.878 428.644 154.883 428.001C153.884 427.371 153.105 426.636 152.545 425.794C151.969 424.96 151.632 424.027 151.533 422.994C151.434 421.961 151.592 420.813 152.007 419.552C152.372 418.438 152.988 417.524 153.854 416.808C154.716 416.104 155.748 415.635 156.949 415.399C158.138 415.159 159.433 415.181 160.834 415.463L162.401 415.012ZM166.721 402.431L174.811 405.091L171.831 407.339L165.764 405.344C164.626 404.97 163.596 404.851 162.674 404.987C161.74 405.118 160.945 405.474 160.288 406.053C159.628 406.644 159.135 407.435 158.81 408.424C158.48 409.426 158.375 410.351 158.494 411.199C158.613 412.047 158.991 412.794 159.627 413.442C160.264 414.09 161.189 414.614 162.401 415.012L167.503 416.689L166.521 419.553L159.545 417.26L159.125 415.971C157.863 415.432 156.884 414.699 156.189 413.772C155.489 412.856 155.063 411.839 154.91 410.72C154.744 409.596 154.853 408.453 155.235 407.291C155.788 405.608 156.627 404.308 157.751 403.389C158.859 402.478 160.181 401.94 161.716 401.773C163.247 401.618 164.916 401.838 166.721 402.431Z" fill="#292929"/>
<path d="M144.044 412.014L137.133 408.497C135.277 407.552 133.87 406.441 132.912 405.165C131.949 403.9 131.42 402.542 131.325 401.092C131.231 399.641 131.565 398.167 132.327 396.67C132.894 395.556 133.599 394.63 134.443 393.89C135.281 393.163 136.24 392.642 137.319 392.33C138.393 392.029 139.558 391.964 140.814 392.137C142.065 392.32 143.387 392.766 144.779 393.475L154.248 398.295L141.349 423.638L137.989 421.928L149.498 399.318L143.388 396.208C142.147 395.576 141.028 395.291 140.031 395.354C139.018 395.423 138.142 395.737 137.404 396.296C136.666 396.856 136.082 397.559 135.651 398.406C135.22 399.253 135.004 400.122 135.003 401.013C135.003 401.904 135.285 402.756 135.85 403.57C136.397 404.389 137.291 405.115 138.533 405.747L145.443 409.264L144.044 412.014ZM116.858 411.173L129.758 385.829L133.117 387.539L120.217 412.883L116.858 411.173Z" fill="#292929"/>
<path d="M91.2318 393.203L107.96 370.206L110.993 372.412L96.0797 392.913L107.42 401.163L122.333 380.661L125.382 382.879L108.653 405.876L91.2318 393.203Z" fill="#292929"/>
<path d="M90.9782 367.331L72.3739 375.791L69.2527 372.781L92.9385 362.709C93.6057 362.43 94.2827 362.187 94.9696 361.982C95.6475 361.785 96.3364 361.69 97.0364 361.695C97.7363 361.701 98.4576 361.863 99.2 362.181C99.9331 362.49 100.698 363.029 101.495 363.797C101.72 364.014 101.973 364.285 102.255 364.612C102.547 364.929 102.726 365.146 102.792 365.265L100.62 367.349C100.535 367.231 100.351 367.018 100.07 366.71C99.7788 366.411 99.563 366.194 99.4224 366.058C98.8882 365.543 98.3624 365.244 97.8453 365.161C97.3281 365.079 96.8176 365.111 96.3138 365.258C95.7916 365.406 95.2836 365.576 94.7898 365.77L90.9782 367.331ZM82.3841 385.444L88.9868 367.201L90.7387 364.034L93.179 366.061L85.4209 388.372L82.3841 385.444Z" fill="#292929"/>
<path d="M68.9491 341.915L66.6126 338.982C68.1398 338.015 69.718 337.416 71.3473 337.183C72.9767 336.951 74.5918 337.171 76.1928 337.843C77.7837 338.523 79.289 339.755 80.7087 341.537C81.7472 342.841 82.4479 344.222 82.8109 345.681C83.1658 347.129 83.1994 348.592 82.9116 350.07C82.6137 351.556 81.9996 353.011 81.0693 354.434C80.1208 355.856 78.8674 357.187 77.3092 358.428L75.0941 360.193C73.5359 361.434 71.9631 362.354 70.3757 362.953C68.77 363.549 67.2056 363.822 65.6826 363.77C64.1515 363.708 62.7035 363.321 61.3384 362.611C59.9734 361.9 58.7432 360.858 57.648 359.483C56.3093 357.802 55.4933 356.13 55.1999 354.466C54.9064 352.802 55.0643 351.203 55.6735 349.669C56.2644 348.133 57.2322 346.704 58.5771 345.383L60.9136 348.316C59.9884 349.286 59.3082 350.261 58.873 351.24C58.4276 352.228 58.2852 353.24 58.4458 354.278C58.6063 355.315 59.1449 356.409 60.0617 357.56C60.8486 358.548 61.7307 359.269 62.7079 359.722C63.677 360.165 64.7106 360.366 65.8088 360.323C66.8988 360.271 68.029 359.986 69.1994 359.47C70.3697 358.954 71.5456 358.225 72.727 357.284L74.9727 355.495C76.0624 354.627 76.9967 353.7 77.7756 352.713C78.5463 351.716 79.1066 350.696 79.4565 349.651C79.8064 348.607 79.9021 347.557 79.7437 346.501C79.575 345.453 79.0972 344.436 78.3103 343.448C77.3124 342.195 76.3187 341.355 75.3293 340.928C74.3399 340.501 73.3233 340.395 72.2797 340.611C71.2279 340.816 70.1177 341.251 68.9491 341.915Z" fill="#292929"/>
<path d="M44.9644 341.118L69.3417 326.475L71.2828 329.706L46.9055 344.35L44.9644 341.118ZM35.9428 326.1L55.71 328.625L59.1496 334.351L56.7726 336.463L54.1878 332.16L38.3465 330.102L35.9428 326.1ZM62.2712 314.705L56.3877 330.702L52.472 330.593L59.8976 310.753L62.2712 314.705Z" fill="#292929"/>
<path d="M37.0391 298.497L39.8588 297.292L45.9071 311.444L43.0874 312.649L37.0391 298.497ZM31.6143 316.915L57.7638 305.739L59.2452 309.206L33.0957 320.381L31.6143 316.915ZM24.5067 300.284L50.6563 289.109L52.13 292.557L25.9804 303.733L24.5067 300.284Z" fill="#292929"/>
<path d="M31.7386 285.564L29.8816 278.036C29.3826 276.014 29.303 274.223 29.6426 272.664C29.9696 271.108 30.651 269.82 31.6869 268.8C32.7227 267.78 34.0561 267.069 35.6869 266.667C36.9005 266.367 38.0629 266.295 39.174 266.45C40.2725 266.608 41.2929 266.994 42.2353 267.606C43.165 268.222 43.9755 269.061 44.667 270.124C45.3458 271.191 45.8723 272.482 46.2465 273.999L48.7912 284.315L21.1813 291.126L20.2785 287.466L44.9112 281.39L43.2693 274.734C42.9357 273.381 42.4194 272.348 41.7205 271.636C41.0059 270.913 40.1957 270.456 39.29 270.264C38.3842 270.071 37.4699 270.089 36.5471 270.317C35.6242 270.544 34.8255 270.949 34.1511 271.531C33.4766 272.114 33.0162 272.884 32.7701 273.844C32.5082 274.793 32.544 275.944 32.8777 277.297L34.7348 284.825L31.7386 285.564ZM14.5997 264.445L42.2096 257.634L43.1124 261.294L15.5025 268.105L14.5997 264.445Z" fill="#292929"/>
<path d="M36.9193 234.662L39.9714 234.367L41.4208 249.356L38.3687 249.651L36.9193 234.662ZM13.042 251.334L41.3475 248.597L41.7103 252.349L13.4049 255.087L13.042 251.334ZM24.0275 237.91L27.0797 237.615L28.3373 250.621L25.2851 250.916L24.0275 237.91ZM11.6848 237.298L14.7564 237.001L16.187 251.796L13.1154 252.093L11.6848 237.298Z" fill="#292929"/>
<path d="M36.0358 165.777L33.8888 172.657L30.9873 171.792L32.9364 165.546C33.2584 164.515 33.3656 163.559 33.258 162.68C33.1505 161.801 32.8395 161.049 32.3251 160.425C31.802 159.784 31.0869 159.322 30.1795 159.039C29.1851 158.729 28.3171 158.669 27.5753 158.861C26.8251 159.036 26.1848 159.47 25.6545 160.164C25.1157 160.841 24.6601 161.777 24.2878 162.97L22.6354 168.265L46.8359 175.817L45.713 179.416L18.5666 170.944L21.3419 162.051C21.7764 160.659 22.3072 159.46 22.9344 158.456C23.5492 157.447 24.2733 156.657 25.1065 156.085C25.9312 155.497 26.8593 155.145 27.8907 155.031C28.9222 154.916 30.0719 155.057 31.3397 155.452C32.4584 155.801 33.3822 156.403 34.1111 157.258C34.8276 158.109 35.3127 159.134 35.5664 160.331C35.824 161.516 35.8222 162.812 35.561 164.217L36.0358 165.777ZM48.6803 169.907L46.1435 178.036L43.8505 175.09L45.7531 168.994C46.11 167.85 46.2137 166.818 46.0642 165.899C45.9185 164.967 45.5512 164.177 44.9622 163.529C44.3607 162.878 43.5628 162.397 42.5684 162.087C41.5616 161.773 40.6353 161.681 39.7895 161.813C38.9436 161.944 38.2016 162.333 37.5633 162.98C36.9251 163.627 36.4159 164.559 36.0358 165.777L34.4357 170.904L31.5575 169.965L33.7452 162.955L35.0278 162.516C35.547 161.246 36.2651 160.256 37.1822 159.546C38.0868 158.833 39.0976 158.391 40.2145 158.222C41.3353 158.039 42.4799 158.131 43.6483 158.495C45.3387 159.023 46.6517 159.842 47.5874 160.952C48.5145 162.046 49.0731 163.36 49.2632 164.892C49.4409 166.421 49.2466 168.092 48.6803 169.907Z" fill="#292929"/>
<path d="M38.5474 147.715L41.936 140.741C42.8464 138.867 43.9308 137.44 45.1891 136.459C46.4358 135.472 47.7834 134.918 49.2321 134.797C50.6808 134.675 52.1605 134.982 53.6713 135.716C54.7956 136.262 55.7352 136.95 56.4901 137.78C57.2332 138.604 57.771 139.553 58.1035 140.627C58.4243 141.695 58.5104 142.858 58.3616 144.118C58.2012 145.372 57.7796 146.702 57.0967 148.107L52.4535 157.664L26.8752 145.236L28.5225 141.846L51.3427 152.933L54.3386 146.767C54.9475 145.514 55.2113 144.39 55.1301 143.395C55.0429 142.383 54.7127 141.513 54.1395 140.786C53.5664 140.058 52.8523 139.487 51.9974 139.072C51.1424 138.656 50.2696 138.456 49.3787 138.472C48.4879 138.488 47.6411 138.786 46.8382 139.366C46.0293 139.929 45.3205 140.836 44.7116 142.09L41.3231 149.064L38.5474 147.715ZM38.8844 120.519L64.4627 132.946L62.8154 136.337L37.2371 123.909L38.8844 120.519Z" fill="#292929"/>
<path d="M56.05 94.9768L79.3486 111.282L77.1985 114.354L56.4281 99.8185L48.3874 111.308L69.1578 125.844L66.9964 128.932L43.6978 112.627L56.05 94.9768Z" fill="#292929"/>
<path d="M82.1158 93.8803L73.3191 75.4328L76.2717 72.2575L86.7721 95.7564C87.0634 96.4184 87.3182 97.0909 87.5365 97.7739C87.7452 98.4481 87.8531 99.1352 87.8601 99.8351C87.8672 100.535 87.7184 101.259 87.414 102.007C87.1183 102.746 86.5937 103.52 85.84 104.331C85.6273 104.56 85.3603 104.818 85.039 105.106C84.7274 105.403 84.5129 105.586 84.3956 105.655L82.2727 103.521C82.3893 103.434 82.599 103.246 82.9018 102.959C83.1951 102.663 83.4082 102.443 83.5412 102.3C84.0466 101.757 84.336 101.225 84.4092 100.707C84.4825 100.188 84.441 99.6784 84.2845 99.1774C84.1275 98.6579 83.9479 98.1531 83.7458 97.663L82.1158 93.8803ZM63.8496 85.6167L82.2091 91.8869L85.4078 93.581L83.4249 96.0577L60.9769 88.7062L63.8496 85.6167Z" fill="#292929"/>
<path d="M106.893 71.5239L109.783 69.1343C110.777 70.6436 111.406 72.2107 111.668 73.8355C111.93 75.4603 111.739 77.0793 111.096 78.6922C110.445 80.2952 109.241 81.8227 107.485 83.2746C106.2 84.3367 104.832 85.0624 103.38 85.4519C101.938 85.8331 100.476 85.8933 98.9933 85.6325C97.5023 85.3617 96.0366 84.7742 94.5963 83.87C93.1578 82.9475 91.8038 81.7186 90.5344 80.1832L88.7298 78.0006C87.4603 76.4652 86.5119 74.9095 85.8845 73.3332C85.2588 71.7387 84.9581 70.1796 84.9823 68.6559C85.0165 67.1239 85.3764 65.669 86.062 64.2912C86.7475 62.9135 87.7676 61.6646 89.1224 60.5445C90.7781 59.1755 92.4352 58.3291 94.0936 58.0054C95.752 57.6817 97.3537 57.8105 98.8986 58.3916C100.445 58.9544 101.891 59.8961 103.236 61.2167L100.346 63.6062C99.3596 62.6988 98.3727 62.0365 97.3856 61.6192C96.3903 61.1919 95.3755 61.068 94.3412 61.2473C93.3068 61.4267 92.2227 61.9852 91.0887 62.9228C90.1153 63.7276 89.4108 64.6226 88.9752 65.6079C88.5497 66.5849 88.3681 67.622 88.4306 68.7192C88.503 69.8081 88.8079 70.933 89.3453 72.0937C89.8826 73.2545 90.6325 74.4169 91.595 75.581L93.4245 77.7937C94.3122 78.8674 95.2565 79.7847 96.2572 80.5454C97.2679 81.2979 98.2986 81.8396 99.3493 82.1704C100.4 82.5012 101.452 82.5778 102.504 82.4001C103.549 82.2125 104.558 81.7162 105.531 80.9114C106.765 79.8909 107.587 78.8821 107.996 77.885C108.405 76.888 108.492 75.8697 108.258 74.8301C108.033 73.7823 107.578 72.6802 106.893 71.5239Z" fill="#292929"/>
<path d="M107.063 47.5522L122.152 71.6563L118.957 73.6564L103.868 49.5523L107.063 47.5522ZM121.913 38.2561L119.751 58.0664L114.089 61.6107L111.935 59.2728L116.189 56.6094L117.956 40.733L121.913 38.2561ZM133.79 64.3707L117.688 58.7821L117.724 54.8651L137.697 61.925L133.79 64.3707Z" fill="#292929"/>
<path d="M150.531 38.3091L151.778 41.1105L137.717 47.3693L136.47 44.5679L150.531 38.3091ZM132.033 33.1597L143.598 59.1396L140.154 60.6725L128.59 34.6926L132.033 33.1597ZM148.556 25.8048L160.121 51.7847L156.695 53.3097L145.13 27.3298L148.556 25.8048Z" fill="#292929"/>
<path d="M163.538 32.7215L171.037 30.7503C173.052 30.2206 174.841 30.1138 176.405 30.4297C177.966 30.733 179.264 31.3947 180.299 32.415C181.335 33.4352 182.066 34.7576 182.493 36.3821C182.811 37.591 182.901 38.7522 182.763 39.8656C182.621 40.9663 182.252 41.9925 181.654 42.944C181.052 43.883 180.225 44.7062 179.173 45.4137C178.117 46.1087 176.833 46.6547 175.322 47.052L165.046 49.7531L157.816 22.2499L161.462 21.2916L167.912 45.8291L174.542 44.0863C175.89 43.7321 176.914 43.2002 177.617 42.4906C178.328 41.7651 178.773 40.9481 178.951 40.0395C179.13 39.1309 179.098 38.217 178.857 37.2977C178.615 36.3784 178.198 35.586 177.606 34.9204C177.013 34.2549 176.236 33.8063 175.273 33.5747C174.319 33.3273 173.169 33.3806 171.821 33.7348L164.322 35.7061L163.538 32.7215ZM184.394 15.2637L191.624 42.7668L187.978 43.7252L180.748 16.222L184.394 15.2637Z" fill="#292929"/>
<path d="M214.447 37.1173L214.789 40.1646L199.824 41.8444L199.482 38.7972L214.447 37.1173ZM197.409 13.4995L200.581 41.7595L196.835 42.18L193.663 13.92L197.409 13.4995ZM211 24.2771L211.343 27.3244L198.358 28.782L198.016 25.7347L211 24.2771ZM211.422 11.9264L211.766 14.9931L196.996 16.6511L196.652 13.5844L211.422 11.9264Z" fill="#292929"/>
<path d="M293.264 38.401L286.47 35.9963L287.443 33.1294L293.611 35.3126C294.63 35.6732 295.581 35.8163 296.463 35.742C297.346 35.6676 298.109 35.3852 298.752 34.8946C299.412 34.3961 299.901 33.6988 300.218 32.8028C300.565 31.8208 300.657 30.9556 300.494 30.2072C300.347 29.4509 299.937 28.7947 299.264 28.2387C298.607 27.6747 297.69 27.1842 296.511 26.7671L291.282 24.9164L282.824 48.8151L279.27 47.5574L288.758 20.7495L297.541 23.858C298.916 24.3446 300.093 24.9202 301.073 25.5849C302.058 26.2372 302.82 26.9905 303.361 27.8447C303.918 28.691 304.234 29.6316 304.309 30.6667C304.385 31.7018 304.201 32.8453 303.758 34.0974C303.367 35.2021 302.731 36.1025 301.849 36.7987C300.972 37.4827 299.93 37.9288 298.723 38.1372C297.529 38.3499 296.235 38.2993 294.84 37.9853L293.264 38.401ZM288.66 50.8809L280.632 48.0396L283.663 45.8593L289.683 47.9903C290.813 48.39 291.839 48.5324 292.764 48.4177C293.701 48.3073 294.504 47.97 295.173 47.4058C295.847 46.8293 296.358 46.0501 296.705 45.0681C297.057 44.0738 297.183 43.1516 297.084 42.3014C296.984 41.4512 296.623 40.695 296.001 40.0329C295.379 39.3707 294.467 38.8268 293.264 38.401L288.2 36.6089L289.247 33.7681L296.17 36.2184L296.56 37.5167C297.81 38.0833 298.772 38.8382 299.447 39.7814C300.125 40.7122 300.529 41.7389 300.656 42.8615C300.796 43.9883 300.662 45.1287 300.253 46.2825C299.662 47.9518 298.795 49.2331 297.65 50.1262C296.522 51.0114 295.188 51.5202 293.65 51.6524C292.115 51.7724 290.452 51.5152 288.66 50.8809Z" fill="#292929"/>
<path d="M310.995 41.449L317.839 45.0935C319.678 46.0728 321.064 47.2093 321.998 48.5031C322.937 49.7854 323.441 51.1527 323.509 52.6049C323.576 54.057 323.215 55.5244 322.426 57.007C321.838 58.1103 321.116 59.0237 320.258 59.7473C319.407 60.4594 318.439 60.9617 317.354 61.2542C316.275 61.5353 315.109 61.5781 313.856 61.3829C312.608 61.1761 311.295 60.7055 309.916 59.9711L300.538 54.9771L313.904 29.8766L317.232 31.6484L305.307 54.0423L311.358 57.2645C312.587 57.9194 313.701 58.2246 314.698 58.1803C315.713 58.1307 316.594 57.8329 317.342 57.2871C318.09 56.7413 318.687 56.0489 319.134 55.2099C319.581 54.3709 319.813 53.506 319.83 52.6152C319.847 51.7245 319.581 50.8672 319.031 50.0434C318.499 49.2142 317.618 48.4722 316.388 47.8174L309.544 44.1728L310.995 41.449ZM338.16 42.7931L324.794 67.8936L321.467 66.1218L334.833 41.0213L338.16 42.7931Z" fill="#292929"/>
<path d="M364.078 61.6452L346.85 84.2702L343.866 81.9984L359.225 61.8286L348.067 53.333L332.709 73.5028L329.71 71.2192L346.938 48.5942L364.078 61.6452Z" fill="#292929"/>
<path d="M363.288 86.9363L382.043 78.8157L385.109 81.8816L361.244 91.5215C360.572 91.7885 359.89 92.0187 359.2 92.212C358.518 92.3962 357.828 92.479 357.128 92.4606C356.428 92.4422 355.71 92.2673 354.974 91.9358C354.246 91.6136 353.491 91.0611 352.709 90.2785C352.488 90.0576 352.239 89.7813 351.963 89.4499C351.677 89.1276 351.503 88.9067 351.438 88.787L353.648 86.743C353.731 86.8627 353.91 87.0791 354.186 87.3921C354.472 87.6959 354.684 87.9169 354.822 88.055C355.347 88.5798 355.867 88.8883 356.382 88.9803C356.898 89.0724 357.409 89.0494 357.915 88.9113C358.44 88.7732 358.951 88.612 359.448 88.4279L363.288 86.9363ZM372.209 68.9825L365.276 87.1021L363.467 90.2371L361.064 88.1655L369.226 65.9994L372.209 68.9825Z" fill="#292929"/>
<path d="M385.518 113.541L387.79 116.525C386.242 117.458 384.651 118.023 383.017 118.22C381.383 118.416 379.773 118.161 378.187 117.454C376.611 116.739 375.133 115.475 373.753 113.662C372.743 112.336 372.073 110.94 371.742 109.473C371.418 108.017 371.417 106.554 371.737 105.083C372.067 103.604 372.713 102.163 373.674 100.76C374.654 99.3594 375.936 98.0558 377.521 96.8489L379.774 95.1332C381.359 93.9263 382.952 93.041 384.552 92.4772C386.17 91.9159 387.74 91.6779 389.261 91.7631C390.791 91.8588 392.23 92.2767 393.579 93.0169C394.928 93.757 396.135 94.8264 397.2 96.2249C398.502 97.9342 399.281 99.6239 399.538 101.294C399.795 102.964 399.602 104.559 398.96 106.08C398.335 107.602 397.337 109.009 395.963 110.301L393.691 107.317C394.638 106.368 395.339 105.408 395.795 104.439C396.262 103.461 396.427 102.452 396.289 101.411C396.151 100.371 395.637 99.265 394.745 98.0944C393.98 97.0896 393.114 96.3498 392.147 95.875C391.188 95.4107 390.159 95.1877 389.06 95.2061C387.969 95.2349 386.833 95.4945 385.651 95.9849C384.47 96.4753 383.279 97.178 382.077 98.093L379.793 99.8324C378.684 100.676 377.73 101.583 376.93 102.553C376.137 103.532 375.555 104.54 375.182 105.577C374.809 106.614 374.691 107.661 374.826 108.72C374.972 109.771 375.427 110.799 376.192 111.804C377.163 113.078 378.138 113.94 379.117 114.388C380.097 114.837 381.111 114.965 382.159 114.773C383.215 114.59 384.335 114.18 385.518 113.541Z" fill="#292929"/>
<path d="M409.497 114.831L384.802 128.932L382.933 125.659L407.627 111.557L409.497 114.831ZM418.184 130.045L398.478 127.083L395.165 121.283L397.589 119.224L400.078 123.583L415.87 125.991L418.184 130.045ZM391.611 140.856L397.846 124.992L401.758 125.187L393.896 144.859L391.611 140.856Z" fill="#292929"/>
<path d="M416.506 157.592L413.66 158.734L407.931 144.45L410.777 143.308L416.506 157.592ZM422.343 139.3L395.949 149.887L394.546 146.388L420.94 135.802L422.343 139.3ZM429.076 156.086L402.682 166.673L401.286 163.192L427.68 152.606L429.076 156.086Z" fill="#292929"/>
<path d="M421.638 170.926L423.323 178.494C423.775 180.528 423.814 182.32 423.439 183.871C423.076 185.419 422.366 186.691 421.307 187.687C420.248 188.683 418.899 189.364 417.259 189.728C416.039 190 414.875 190.046 413.768 189.865C412.673 189.682 411.662 189.273 410.734 188.64C409.818 188.003 409.027 187.145 408.36 186.067C407.706 184.985 407.209 183.682 406.87 182.156L404.561 171.785L432.319 165.607L433.138 169.286L408.373 174.798L409.863 181.49C410.166 182.85 410.658 183.894 411.34 184.623C412.038 185.361 412.838 185.837 413.739 186.05C414.64 186.263 415.555 186.266 416.482 186.06C417.41 185.853 418.218 185.466 418.906 184.9C419.593 184.333 420.071 183.573 420.339 182.62C420.623 181.676 420.613 180.525 420.31 179.165L418.626 171.596L421.638 170.926ZM438.29 192.431L410.532 198.609L409.713 194.93L437.471 188.751L438.29 192.431Z" fill="#292929"/>
<path d="M415.304 221.083L412.247 221.32L411.086 206.306L414.144 206.07L415.304 221.083ZM439.498 204.874L411.145 207.065L410.855 203.307L439.208 201.115L439.498 204.874ZM428.256 218.084L425.199 218.32L424.192 205.293L427.249 205.057L428.256 218.084ZM440.585 218.933L437.508 219.171L436.363 204.352L439.439 204.114L440.585 218.933Z" fill="#292929"/>
</svg>
