<svg width="181" height="189" viewBox="0 0 181 189" fill="none" xmlns="http://www.w3.org/2000/svg">
<path fill-rule="evenodd" clip-rule="evenodd" d="M102.907 42.7339C127.716 49.9959 143.636 65.3484 159.093 83.9982C161.715 87.1408 167.784 95.0176 170.431 102.115C172.327 107.137 172.436 111.78 168.962 114.338C165.94 116.604 161.737 116.356 157.227 114.642C147.421 110.954 135.985 100.304 132.806 96.8048C118.462 81.0971 107.773 62.841 101.38 43.928C99.847 43.5126 98.2956 43.1088 96.69 42.7403C91.8405 41.6302 85.9816 40.7389 80.4959 41.0401C75.1628 41.3193 70.1587 42.743 66.9027 46.2617C60.0849 53.6255 61.1077 66.0529 65.5319 79.2994C66.4842 82.1919 67.6332 85.1106 68.8808 88.0424C71.1814 88.7291 73.5389 89.635 75.9863 90.7646C94.8407 99.4511 116.961 119.932 122.64 126.755C125.174 129.801 129.908 135.341 131.602 140.519C132.825 144.21 132.521 147.712 129.162 150.144C126.168 152.315 122.121 152.017 117.814 150.273C108.469 146.491 97.6341 135.836 94.3879 132.202C86.9459 123.959 75.0856 106.719 67.4672 89.2657C62.8198 87.999 58.6508 87.8826 55.3594 89.4773C50.7573 91.7165 49.4194 96.8873 49.7575 103.226C49.8619 105.131 50.1349 107.157 50.5359 109.228C50.7228 109.338 50.8768 109.443 51.0456 109.564C64.6016 118.379 77.5681 132.239 82.6691 138.745C84.965 141.689 88.7161 147.225 89.8002 152.21C90.5559 155.768 89.9469 159.031 86.8056 161.041C83.5887 163.126 79.8103 162.116 76.2973 159.73C71.5014 156.51 67.1587 150.768 65.5666 148.623C61.0717 142.621 51.8672 124.915 48.8344 110.075C44.8032 107.564 40.7514 105.501 36.8439 104.318C32.7461 103.054 28.8188 102.73 25.3398 103.806C16.7825 106.507 15.1623 114.858 16.7487 124.538C17.2283 127.481 18.026 130.55 19.0386 133.634C22.7263 134.011 26.7598 135.394 30.8115 137.457C40.3279 142.306 49.9975 150.872 55.6021 158.179C57.5478 160.71 60.625 165.197 61.3714 169.248C61.92 172.171 61.2499 174.834 58.3964 176.529C54.917 178.579 50.9968 177.917 47.2303 175.977C42.0033 173.293 37.1278 168.101 34.5213 165.383C29.4113 160.062 21.8763 147.601 17.6096 135.124C16.0986 135.078 14.6626 135.24 13.313 135.654C8.25948 137.212 4.79035 142.226 3.9821 152.28C3.598 157.14 3.8078 162.05 5.10882 166.894C6.98962 173.847 10.3812 180.155 14.4095 186.434C14.6614 186.834 14.5031 187.321 14.0465 187.514C13.59 187.708 13.0093 187.546 12.7575 187.145C8.63265 180.698 5.15601 174.267 3.25909 167.171C1.90914 162.179 1.66846 157.109 2.07259 152.082C2.9368 141.147 7.05786 135.838 12.5613 134.142C13.9798 133.71 15.4701 133.513 17.0534 133.512C16.0964 130.52 15.3396 127.526 14.8828 124.671C13.1455 114.167 15.3017 105.238 24.6061 102.283C31.4805 100.134 39.9841 102.873 48.414 107.888C48.1417 106.271 47.979 104.711 47.8788 103.188C47.4748 96.1489 49.2668 90.5306 54.3649 88.047C57.7467 86.3936 62.0046 86.3244 66.7048 87.4288C65.6174 84.8288 64.6317 82.214 63.7412 79.6401C59.136 65.8193 58.3225 52.8973 65.4134 45.2029C68.2879 42.0851 72.3686 40.44 76.8855 39.7418C83.4884 38.7423 91.0635 39.7771 97.0807 41.1553C98.3468 41.4364 99.5585 41.7526 100.785 42.0849C100.089 39.9744 99.4616 37.8448 98.8999 35.7239C97.4816 30.4692 96.0146 24.0931 96.4714 18.2125C96.7734 14.1743 97.9625 10.3809 100.604 7.26036C104.389 2.8099 109.867 1.46342 115.709 1.80224C121.369 2.13097 127.356 4.04133 132.325 6.0987C154.134 15.0225 172.134 30.5385 179.128 50.5476C179.278 50.9626 178.992 51.4043 178.495 51.5217C178.015 51.6274 177.481 51.3589 177.316 50.9278C170.465 31.3894 152.869 16.2516 131.568 7.53645C126.786 5.58858 121.059 3.74088 115.665 3.41924C110.434 3.1194 105.515 4.25785 102.136 8.24015C99.067 11.8684 98.16 16.5036 98.2552 21.2579C98.3699 26.1277 99.5492 31.1532 100.717 35.4432C101.376 37.8593 102.087 40.2681 102.881 42.6739L102.907 42.7339ZM19.5371 135.309C22.7816 135.769 26.3118 137.042 29.8439 138.852C39.126 143.571 48.5203 151.932 53.999 159.039C55.8302 161.413 58.7732 165.628 59.466 169.432C59.8878 171.746 59.4816 173.879 57.2211 175.216C54.3676 176.911 51.1825 176.234 48.0896 174.652C43.0675 172.065 38.4196 167.059 35.9015 164.438C30.9717 159.281 23.7373 147.369 19.5371 135.309ZM50.9906 111.547C63.9448 120.239 76.1826 133.367 81.0986 139.609C83.2948 142.412 86.9119 147.677 87.921 152.454C88.5352 155.386 88.1717 158.132 85.5873 159.807C83.0571 161.446 80.1305 160.422 77.3877 158.562C72.7933 155.468 68.642 149.935 67.1203 147.898C62.8397 142.192 54.2757 125.813 51.0201 111.579L50.9906 111.547ZM68 88.5C69.7462 89.0848 73.2845 91.3371 75.1319 92.1894C93.7011 100.753 115.49 120.936 121.114 127.667C123.545 130.6 128.138 135.924 129.79 140.9C130.805 143.956 130.685 146.903 127.893 148.917C126.286 150.087 124.311 150.29 122.138 149.931C119.771 149.517 117.222 148.402 114.648 146.946C106.663 142.385 98.5495 134.321 95.8304 131.293C88.6389 123.323 75.5392 105.364 68 88.5ZM103.517 44.593C127.241 51.8662 142.592 66.8187 157.57 84.8826C160.118 87.9449 166.029 95.6169 168.648 102.527C169.481 104.754 169.988 106.911 169.878 108.801C169.751 110.548 169.137 112.047 167.708 113.127C166.061 114.348 163.997 114.61 161.707 114.249C159.253 113.867 156.566 112.79 153.842 111.327C145.45 106.825 136.933 98.7926 134.266 95.8839C120.335 80.6262 109.878 62.9373 103.517 44.593Z" fill="#E4E4E4" stroke="#292929" stroke-width="2.27128" stroke-miterlimit="10"/>
</svg>
