<svg width="460" height="460" viewBox="0 0 460 460" fill="none" xmlns="http://www.w3.org/2000/svg">
<path d="M418.23 305.25L416.979 308.785C415.35 308.001 414.006 306.98 412.946 305.72C411.886 304.461 411.218 302.974 410.94 301.26C410.675 299.55 410.923 297.621 411.683 295.473C412.239 293.901 413.039 292.576 414.084 291.495C415.125 290.427 416.349 289.624 417.754 289.086C419.173 288.552 420.732 288.303 422.432 288.339C424.14 288.391 425.933 288.75 427.811 289.414L430.48 290.36C432.358 291.025 433.971 291.872 435.32 292.902C436.676 293.948 437.735 295.131 438.497 296.451C439.255 297.783 439.694 299.216 439.815 300.751C439.935 302.285 439.701 303.881 439.115 305.538C438.399 307.563 437.412 309.141 436.156 310.271C434.9 311.401 433.46 312.113 431.836 312.408C430.22 312.72 428.496 312.656 426.663 312.214L427.914 308.679C429.227 308.95 430.414 309.011 431.475 308.862C432.548 308.717 433.483 308.302 434.277 307.617C435.072 306.931 435.715 305.895 436.206 304.508C436.627 303.317 436.772 302.187 436.639 301.118C436.502 300.061 436.125 299.078 435.507 298.169C434.885 297.272 434.046 296.463 432.988 295.744C431.931 295.024 430.69 294.412 429.266 293.908L426.56 292.95C425.246 292.485 423.965 292.183 422.716 292.044C421.462 291.918 420.3 291.983 419.228 292.239C418.157 292.495 417.216 292.97 416.404 293.664C415.605 294.361 414.994 295.305 414.573 296.496C414.039 298.006 413.853 299.294 414.014 300.359C414.176 301.425 414.624 302.343 415.36 303.115C416.091 303.898 417.047 304.61 418.23 305.25Z" fill="white"/>
<path d="M413.416 325.574L416.685 319.151L419.4 320.49L416.433 326.321C415.943 327.284 415.677 328.208 415.636 329.093C415.595 329.978 415.776 330.772 416.178 331.473C416.586 332.193 417.214 332.768 418.061 333.199C418.989 333.672 419.835 333.876 420.598 333.812C421.367 333.765 422.071 333.444 422.71 332.849C423.355 332.271 423.96 331.425 424.527 330.311L427.043 325.367L404.451 313.864L406.16 310.505L431.502 323.408L427.277 331.711C426.616 333.011 425.892 334.103 425.106 334.989C424.331 335.88 423.485 336.538 422.567 336.962C421.656 337.404 420.682 337.595 419.646 337.535C418.61 337.475 417.5 337.144 416.317 336.541C415.273 336.009 414.463 335.261 413.887 334.296C413.324 333.337 413.017 332.245 412.967 331.022C412.912 329.81 413.13 328.534 413.623 327.192L413.416 325.574ZM401.643 319.383L405.505 311.793L407.272 315.082L404.376 320.774C403.833 321.842 403.558 322.841 403.551 323.773C403.539 324.716 403.768 325.557 404.241 326.294C404.724 327.037 405.431 327.645 406.359 328.118C407.299 328.596 408.197 328.841 409.052 328.853C409.908 328.865 410.705 328.606 411.442 328.076C412.18 327.545 412.838 326.711 413.416 325.574L415.852 320.787L418.532 322.196L415.202 328.741L413.864 328.958C413.14 330.124 412.266 330.979 411.243 331.525C410.232 332.077 409.162 332.343 408.032 332.323C406.897 332.315 405.784 332.033 404.693 331.478C403.115 330.674 401.958 329.646 401.221 328.395C400.491 327.161 400.16 325.772 400.229 324.229C400.31 322.692 400.781 321.077 401.643 319.383Z" fill="white"/>
<path d="M410.227 355.179L394.145 332.776L396.316 329.6L413.673 354.602L412.274 356.649L410.227 355.179ZM384.381 347.063L411.098 353.905L413.211 355.279L411.811 357.327L382.199 350.256L384.381 347.063ZM393.347 352.603L390.799 350.861L399.814 337.67L402.361 339.412L393.347 352.603Z" fill="white"/>
<path d="M366.556 371.9L364.303 369.82L378.9 354.002L381.152 356.083L366.556 371.9ZM380.742 356.528L373.352 349.704L375.882 346.962L383.285 353.772L380.742 356.528ZM364.331 374.312L356.982 367.473L359.512 364.731L366.887 371.542L364.331 374.312ZM387.699 386.4L385.432 384.306L393.883 375.148L396.15 377.242L387.699 386.4ZM385.5 388.782L364.608 369.49L367.151 366.734L388.044 386.026L385.5 388.782ZM397.024 376.295L394.468 379.065L386.456 370.87C385.246 369.646 384.19 368.449 383.286 367.278C382.392 366.115 381.629 364.994 380.996 363.913C380.363 362.833 379.856 361.798 379.476 360.808C379.105 359.828 378.847 358.907 378.702 358.047C378.567 357.195 378.535 356.404 378.607 355.673C378.68 354.96 378.848 354.327 379.112 353.773L380.277 352.51L382.53 354.59L381.709 355.48C381.747 355.976 381.874 356.616 382.09 357.4C382.296 358.193 382.656 359.119 383.168 360.177C383.681 361.253 384.41 362.45 385.357 363.767C386.294 365.093 387.517 366.532 389.026 368.085L397.024 376.295Z" fill="white"/>
<path d="M367.108 389.699L361.097 394.597C359.482 395.913 357.898 396.751 356.343 397.11C354.797 397.48 353.342 397.415 351.977 396.914C350.612 396.414 349.4 395.512 348.339 394.21C347.55 393.241 346.988 392.22 346.653 391.15C346.326 390.089 346.239 389.001 346.389 387.887C346.548 386.784 346.961 385.692 347.626 384.612C348.3 383.542 349.243 382.514 350.454 381.527L358.69 374.815L376.647 396.866L373.725 399.247L357.704 379.574L352.39 383.905C351.31 384.785 350.597 385.693 350.252 386.63C349.904 387.585 349.837 388.513 350.051 389.414C350.264 390.315 350.671 391.134 351.271 391.871C351.871 392.608 352.578 393.157 353.393 393.518C354.207 393.879 355.101 393.966 356.073 393.778C357.043 393.609 358.069 393.084 359.149 392.204L365.159 387.306L367.108 389.699Z" fill="white"/>
<path d="M338.816 423.762L337.198 421.135L348.872 413.943L335.581 392.355L338.774 390.388L353.682 414.604L338.816 423.762ZM345.166 406.247L338.564 410.314C336.79 411.407 335.11 412.029 333.521 412.182C331.94 412.345 330.506 412.09 329.219 411.414C327.932 410.739 326.848 409.686 325.967 408.256C325.312 407.192 324.889 406.107 324.697 405.001C324.513 403.907 324.568 402.817 324.864 401.733C325.166 400.659 325.718 399.631 326.52 398.648C327.328 397.676 328.398 396.78 329.728 395.961L338.774 390.388L353.682 414.604L350.473 416.581L337.172 394.976L331.335 398.572C330.149 399.303 329.323 400.109 328.858 400.993C328.388 401.894 328.2 402.805 328.293 403.726C328.386 404.648 328.682 405.513 329.18 406.323C329.679 407.132 330.308 407.769 331.068 408.234C331.828 408.698 332.702 408.901 333.691 408.843C334.675 408.803 335.76 408.417 336.947 407.686L343.548 403.619L345.166 406.247Z" fill="white"/>
<path d="M320.685 420.219L313.544 423.24C311.625 424.052 309.869 424.413 308.276 424.323C306.689 424.246 305.309 423.776 304.139 422.914C302.969 422.052 302.057 420.847 301.402 419.3C300.916 418.149 300.661 417.012 300.639 415.89C300.622 414.781 300.842 413.712 301.298 412.685C301.76 411.67 302.461 410.737 303.402 409.886C304.348 409.048 305.541 408.324 306.98 407.715L316.765 403.575L327.839 429.767L324.368 431.236L314.487 407.868L308.174 410.539C306.891 411.082 305.952 411.755 305.359 412.558C304.758 413.377 304.434 414.25 304.387 415.174C304.34 416.099 304.501 416.999 304.871 417.875C305.241 418.75 305.767 419.475 306.448 420.05C307.129 420.624 307.963 420.957 308.949 421.049C309.928 421.158 311.059 420.941 312.342 420.398L319.483 417.376L320.685 420.219ZM302.531 440.476L291.456 414.283L294.928 412.814L306.003 439.007L302.531 440.476Z" fill="white"/>
<path d="M214.72 432.348L210.972 432.218C211.23 430.429 211.799 428.84 212.681 427.45C213.564 426.061 214.78 424.976 216.332 424.196C217.883 423.429 219.797 423.085 222.074 423.164C223.74 423.222 225.245 423.587 226.59 424.26C227.921 424.931 229.055 425.857 229.991 427.036C230.927 428.228 231.634 429.64 232.111 431.272C232.575 432.917 232.773 434.735 232.704 436.726L232.605 439.556C232.536 441.547 232.213 443.34 231.637 444.936C231.047 446.544 230.237 447.91 229.208 449.033C228.166 450.157 226.931 451.006 225.504 451.582C224.077 452.158 222.485 452.415 220.728 452.354C218.581 452.279 216.78 451.813 215.324 450.955C213.869 450.096 212.756 448.937 211.986 447.477C211.202 446.03 210.745 444.366 210.615 442.485L214.363 442.615C214.499 443.949 214.798 445.099 215.259 446.067C215.72 447.047 216.397 447.813 217.29 448.365C218.183 448.917 219.365 449.219 220.835 449.27C222.097 449.314 223.218 449.112 224.198 448.664C225.165 448.215 225.989 447.56 226.67 446.698C227.339 445.835 227.857 444.791 228.225 443.566C228.593 442.341 228.804 440.974 228.856 439.465L228.956 436.595C229.004 435.203 228.906 433.89 228.663 432.657C228.406 431.423 227.994 430.334 227.428 429.389C226.861 428.445 226.125 427.689 225.22 427.124C224.314 426.571 223.23 426.273 221.968 426.229C220.367 426.173 219.083 426.383 218.115 426.857C217.148 427.332 216.407 428.036 215.892 428.969C215.365 429.902 214.974 431.028 214.72 432.348Z" fill="white"/>
<path d="M194.012 433.929L201.125 435.09L200.676 438.084L194.219 437.03C193.152 436.856 192.191 436.884 191.336 437.114C190.48 437.344 189.78 437.757 189.234 438.354C188.673 438.962 188.316 439.735 188.163 440.673C187.995 441.701 188.058 442.569 188.352 443.277C188.631 443.995 189.151 444.568 189.912 444.996C190.658 445.434 191.649 445.754 192.882 445.955L198.357 446.848L202.437 421.827L206.157 422.434L201.58 450.501L192.386 449.001C190.946 448.766 189.685 448.409 188.603 447.928C187.518 447.461 186.634 446.855 185.95 446.11C185.252 445.376 184.774 444.507 184.516 443.502C184.257 442.496 184.235 441.338 184.449 440.028C184.637 438.871 185.104 437.872 185.848 437.03C186.59 436.201 187.536 435.577 188.686 435.158C189.823 434.737 191.106 434.557 192.534 434.618L194.012 433.929ZM196.326 420.83L204.73 422.202L202.136 424.885L195.832 423.857C194.65 423.664 193.614 423.706 192.725 423.983C191.822 424.258 191.092 424.732 190.533 425.406C189.973 426.093 189.609 426.951 189.441 427.979C189.271 429.02 189.311 429.95 189.56 430.769C189.809 431.588 190.299 432.268 191.028 432.809C191.758 433.35 192.753 433.724 194.012 433.929L199.313 434.794L198.787 437.776L191.539 436.593L190.925 435.385C189.594 435.049 188.514 434.477 187.682 433.668C186.849 432.873 186.27 431.934 185.945 430.852C185.607 429.768 185.537 428.622 185.734 427.414C186.019 425.666 186.645 424.251 187.613 423.169C188.566 422.097 189.788 421.36 191.279 420.957C192.767 420.566 194.45 420.524 196.326 420.83Z" fill="white"/>
<path d="M164.666 439.791L181.205 417.728L184.886 418.847L166.251 442.906L163.878 442.185L164.666 439.791ZM164.648 412.697L166.142 440.239L165.466 442.667L163.093 441.946L160.947 411.572L164.648 412.697ZM162.056 422.912L162.952 419.959L178.239 424.605L177.342 427.557L162.056 422.912Z" fill="white"/>
<path d="M135.825 403.309L137.124 400.531L156.62 409.651L155.321 412.429L135.825 403.309ZM154.773 412.172L159.032 403.06L162.411 404.641L158.169 413.761L154.773 412.172ZM132.853 401.919L137.14 392.841L140.519 394.422L136.267 403.516L132.853 401.919ZM128.425 427.857L129.732 425.062L141.019 430.341L139.712 433.137L128.425 427.857ZM125.488 426.483L137.531 400.722L140.927 402.311L128.885 428.072L125.488 426.483ZM140.879 433.683L137.465 432.086L142.843 421.966C143.641 420.442 144.461 419.072 145.303 417.855C146.139 416.651 146.976 415.583 147.814 414.653C148.651 413.722 149.483 412.925 150.311 412.263C151.132 411.612 151.931 411.087 152.707 410.688C153.477 410.301 154.221 410.031 154.939 409.878C155.64 409.732 156.295 409.7 156.903 409.783L158.46 410.512L157.161 413.29L156.064 412.776C155.603 412.963 155.032 413.278 154.35 413.721C153.657 414.159 152.884 414.782 152.032 415.591C151.162 416.406 150.244 417.464 149.276 418.765C148.297 420.061 147.296 421.663 146.275 423.571L140.879 433.683Z" fill="white"/>
<path d="M119.07 409.188L112.591 404.929C110.85 403.784 109.574 402.525 108.763 401.151C107.945 399.787 107.569 398.379 107.635 396.927C107.701 395.474 108.195 394.046 109.117 392.642C109.803 391.598 110.607 390.754 111.527 390.112C112.44 389.482 113.45 389.07 114.557 388.879C115.657 388.698 116.822 388.763 118.052 389.072C119.274 389.393 120.539 389.982 121.844 390.841L130.723 396.677L115.111 420.445L111.961 418.375L125.89 397.169L120.161 393.404C118.997 392.638 117.916 392.232 116.919 392.184C115.904 392.14 114.999 392.356 114.204 392.831C113.41 393.306 112.751 393.94 112.229 394.735C111.708 395.529 111.397 396.369 111.299 397.255C111.2 398.14 111.386 399.019 111.858 399.89C112.312 400.764 113.12 401.584 114.285 402.349L120.764 406.608L119.07 409.188Z" fill="white"/>
<path d="M78.1177 392.478L80.1352 390.143L90.5073 399.11L107.081 379.926L109.918 382.379L91.3267 403.897L78.1177 392.478ZM96.7266 393.256L90.8609 388.184C89.2849 386.822 88.1849 385.406 87.5611 383.938C86.9288 382.479 86.7405 381.033 86.9962 379.602C87.2519 378.171 87.9289 376.82 89.027 375.549C89.8442 374.603 90.7509 373.872 91.7471 373.356C92.7348 372.85 93.79 372.575 94.9128 372.53C96.0271 372.495 97.1735 372.712 98.3521 373.18C99.5222 373.658 100.698 374.408 101.88 375.43L109.918 382.379L91.3267 403.897L88.4751 401.432L105.062 382.234L99.8756 377.75C98.8216 376.839 97.8036 376.295 96.8215 376.117C95.8211 375.94 94.8958 376.035 94.0456 376.402C93.1955 376.769 92.4597 377.312 91.8383 378.031C91.2169 378.75 90.7992 379.542 90.5853 380.407C90.3714 381.272 90.4412 382.167 90.7947 383.093C91.1298 384.019 91.8244 384.938 92.8783 385.849L98.7441 390.92L96.7266 393.256Z" fill="white"/>
<path d="M76.2004 374.279L71.1526 368.394C69.7964 366.812 68.9188 365.249 68.52 363.704C68.1112 362.167 68.1396 360.71 68.605 359.333C69.0704 357.955 69.9404 356.72 71.2151 355.626C72.1636 354.812 73.1688 354.223 74.2305 353.861C75.2824 353.508 76.3668 353.392 77.4838 353.514C78.5909 353.645 79.6925 354.03 80.7885 354.668C81.8747 355.314 82.9264 356.23 83.9436 357.416L90.8605 365.482L69.2803 384.002L66.8264 381.14L86.0795 364.617L81.6166 359.413C80.7096 358.356 79.7837 357.666 78.8389 357.345C77.8757 357.022 76.9465 356.978 76.0514 357.215C75.1562 357.451 74.348 357.879 73.6267 358.498C72.9054 359.117 72.3747 359.838 72.0348 360.662C71.6948 361.485 71.6309 362.381 71.8431 363.348C72.037 364.314 72.5874 365.326 73.4944 366.384L78.5422 372.27L76.2004 374.279ZM51.3905 363.142L72.9706 344.622L75.4246 347.483L53.8445 366.003L51.3905 363.142Z" fill="white"/>
<path d="M32.6038 277.687L31.5822 274.079C33.3642 273.777 35.0515 273.834 36.644 274.249C38.2366 274.664 39.6413 275.49 40.8581 276.729C42.0624 277.971 42.9749 279.689 43.5957 281.881C44.0497 283.485 44.1623 285.029 43.9335 286.515C43.7011 287.989 43.1667 289.351 42.3303 290.603C41.4814 291.859 40.3529 292.963 38.9449 293.917C37.5209 294.862 35.8505 295.606 33.9337 296.149L31.2089 296.921C29.2922 297.464 27.4862 297.705 25.7909 297.644C24.0795 297.574 22.5315 297.221 21.1469 296.585C19.7588 295.936 18.5725 295.02 17.5881 293.838C16.6036 292.655 15.872 291.218 15.3931 289.527C14.8078 287.46 14.7013 285.602 15.0736 283.953C15.4459 282.305 16.2094 280.891 17.3639 279.711C18.5024 278.523 19.9471 277.579 21.6978 276.88L22.7195 280.488C21.4913 281.025 20.4874 281.662 19.7076 282.397C18.9154 283.136 18.3929 284.015 18.1401 285.033C17.8873 286.052 17.9613 287.27 18.3621 288.685C18.7062 289.901 19.2413 290.906 19.9673 291.702C20.6898 292.485 21.5657 293.069 22.5949 293.454C23.6206 293.827 24.7729 294.001 26.0517 293.977C27.3305 293.953 28.6965 293.735 30.1497 293.324L32.9121 292.541C34.2525 292.161 35.4726 291.667 36.5721 291.057C37.6681 290.435 38.5793 289.71 39.3056 288.882C40.0319 288.054 40.5259 287.122 40.7877 286.087C41.0369 285.056 40.9895 283.932 40.6454 282.717C40.2091 281.176 39.6172 280.017 38.8696 279.241C38.1221 278.465 37.2254 277.975 36.1797 277.77C35.1303 277.553 33.9384 277.526 32.6038 277.687Z" fill="white"/>
<path d="M24.8158 258.565L25.8665 265.695L22.8772 266.175L21.9234 259.702C21.7658 258.633 21.4479 257.726 20.9695 256.98C20.4911 256.235 19.8847 255.693 19.1504 255.353C18.4012 255.003 17.5564 254.897 16.6161 255.036C15.5856 255.188 14.7777 255.511 14.1925 256.005C13.5924 256.489 13.2041 257.158 13.0274 258.013C12.8359 258.858 12.8313 259.898 13.0135 261.135L13.8222 266.622L38.9025 262.924L39.4521 266.653L11.3188 270.802L9.96061 261.585C9.74801 260.142 9.70633 258.832 9.83557 257.655C9.95192 256.479 10.2614 255.453 10.7639 254.576C11.2516 253.688 11.9353 252.969 12.8149 252.418C13.6945 251.867 14.7913 251.495 16.1052 251.301C17.2645 251.13 18.3581 251.272 19.3857 251.726C20.4005 252.181 21.282 252.894 22.0302 253.863C22.7765 254.819 23.3368 255.986 23.7112 257.366L24.8158 258.565ZM37.9999 256.799L39.2414 265.223L35.8974 263.565L34.9663 257.246C34.7917 256.061 34.4375 255.087 33.9039 254.323C33.3683 253.546 32.6946 252.994 31.883 252.666C31.0584 252.341 30.1309 252.254 29.1004 252.406C28.0569 252.559 27.1828 252.879 26.4778 253.365C25.7728 253.85 25.2731 254.523 24.9786 255.382C24.684 256.242 24.6298 257.303 24.8158 258.565L25.5988 263.879L22.5982 264.282L21.5276 257.017L22.4929 256.065C22.4095 254.695 22.627 253.492 23.1454 252.454C23.6509 251.419 24.37 250.583 25.3026 249.945C26.2334 249.294 27.3042 248.88 28.515 248.701C30.2669 248.443 31.8052 248.611 33.13 249.205C34.44 249.789 35.5131 250.729 36.3493 252.028C37.1726 253.328 37.7228 254.918 37.9999 256.799Z" fill="white"/>
<path d="M10.2541 232.167L36.3143 241.18L36.3737 245.027L7.77227 234.627L7.73398 232.147L10.2541 232.167ZM36.0472 223.877L10.2779 233.71L7.75961 233.807L7.72132 231.327L35.9875 220.01L36.0472 223.877ZM25.5287 224.528L28.6142 224.48L28.8608 240.455L25.7752 240.502L25.5287 224.528Z" fill="white"/>
<path d="M36.2583 192.927L39.2985 193.328L36.4879 214.667L33.4478 214.266L36.2583 192.927ZM33.5268 213.666L43.4992 214.98L43.0121 218.679L33.0372 217.384L33.5268 213.666ZM36.6868 189.674L46.6347 191.025L46.1476 194.723L36.1946 193.411L36.6868 189.674ZM10.6227 193.272L13.6822 193.675L12.0551 206.029L8.99558 205.626L10.6227 193.272ZM11.0461 190.057L39.2398 193.773L38.7501 197.491L10.5564 193.775L11.0461 190.057ZM8.82725 206.904L9.31948 203.167L20.5902 205.243C22.284 205.545 23.8376 205.914 25.2512 206.35C26.6518 206.784 27.9221 207.26 29.0621 207.778C30.2022 208.296 31.2128 208.85 32.0939 209.439C32.9622 210.026 33.7036 210.629 34.318 211.249C34.9196 211.866 35.4016 212.495 35.764 213.133C36.1152 213.758 36.3429 214.372 36.4471 214.977L36.2227 216.681L33.1825 216.28L33.3407 215.08C33.0234 214.696 32.5507 214.247 31.9227 213.73C31.2963 213.201 30.469 212.652 29.4407 212.083C28.4012 211.5 27.1153 210.943 25.5829 210.413C24.0522 209.869 22.223 209.398 20.0954 209L8.82725 206.904Z" fill="white"/>
<path d="M25.3771 179.227L27.4612 171.759C28.0212 169.752 28.8323 168.153 29.8945 166.963C30.9442 165.769 32.1707 164.982 33.5741 164.604C34.9776 164.225 36.4882 164.262 38.106 164.713C39.3099 165.05 40.3575 165.558 41.2488 166.24C42.1276 166.918 42.8267 167.755 43.3461 168.752C43.853 169.745 44.1461 170.875 44.2254 172.141C44.2922 173.403 44.1156 174.787 43.6956 176.292L40.8398 186.526L13.4501 178.877L14.4633 175.247L38.8995 182.07L40.7422 175.467C41.1167 174.125 41.1749 172.972 40.9168 172.008C40.6496 171.027 40.169 170.231 39.4748 169.618C38.7807 169.005 37.9759 168.571 37.0604 168.315C36.1449 168.059 35.2504 168.019 34.3769 168.194C33.5034 168.369 32.7237 168.814 32.0377 169.528C31.3427 170.226 30.808 171.247 30.4335 172.588L28.3493 180.057L25.3771 179.227Z" fill="white"/>
<path d="M28.8086 135.043L31.6461 136.256L26.2594 148.865L49.57 158.83L48.0968 162.279L21.9486 151.1L28.8086 135.043ZM33.7262 153.013L36.7725 145.882C37.591 143.967 38.6049 142.488 39.8141 141.448C41.0114 140.402 42.3305 139.783 43.7715 139.592C45.2124 139.401 46.7051 139.636 48.2496 140.296C49.399 140.787 50.3707 141.429 51.1648 142.222C51.947 143.009 52.5301 143.931 52.9142 144.988C53.2863 146.039 53.4286 147.197 53.3411 148.463C53.2416 149.723 52.8849 151.071 52.2711 152.508L48.0968 162.279L21.9486 151.1L23.4296 147.634L46.7582 157.607L49.4515 151.303C49.9989 150.022 50.2079 148.886 50.0786 147.896C49.9425 146.889 49.5706 146.036 48.9629 145.338C48.3552 144.639 47.6144 144.103 46.7404 143.729C45.8664 143.355 44.9849 143.198 44.096 143.257C43.2071 143.316 42.3758 143.654 41.602 144.272C40.8214 144.873 40.1574 145.814 39.61 147.095L36.5637 154.226L33.7262 153.013Z" fill="white"/>
<path d="M45.4405 127.787L49.5297 121.199C50.6283 119.429 51.854 118.121 53.2066 117.275C54.5482 116.422 55.9456 116.01 57.3989 116.039C58.8521 116.068 60.2922 116.526 61.719 117.412C62.7809 118.072 63.6444 118.853 64.3095 119.757C64.9636 120.654 65.4006 121.653 65.6206 122.755C65.8296 123.851 65.7951 125.017 65.5173 126.255C65.2285 127.486 64.6721 128.765 63.848 130.092L58.2448 139.12L34.0877 124.116L36.0756 120.913L57.6279 134.299L61.2432 128.475C61.9779 127.291 62.3562 126.2 62.378 125.202C62.3957 124.186 62.157 123.286 61.662 122.504C61.1669 121.721 60.5157 121.079 59.7082 120.578C58.9008 120.076 58.0533 119.787 57.1657 119.711C56.2781 119.635 55.4052 119.844 54.5469 120.338C53.6844 120.814 52.8858 121.644 52.1511 122.827L48.062 129.415L45.4405 127.787ZM48.5799 100.767L72.737 115.771L70.7491 118.974L46.592 103.97L48.5799 100.767Z" fill="white"/>
<path d="M124.416 56.5976L127.542 54.5264C128.371 56.1325 128.83 57.7574 128.919 59.4011C129.008 61.0447 128.648 62.6347 127.838 64.171C127.021 65.6964 125.662 67.0883 123.763 68.3469C122.373 69.2674 120.936 69.8447 119.451 70.0787C117.978 70.3055 116.517 70.2109 115.071 69.7949C113.617 69.368 112.222 68.6289 110.885 67.5775C109.552 66.5081 108.336 65.1429 107.236 63.4818L105.673 61.1204C104.573 59.4593 103.795 57.8118 103.337 56.1779C102.884 54.526 102.75 52.9436 102.935 51.4308C103.131 49.9108 103.643 48.5018 104.47 47.204C105.297 45.9062 106.443 44.7718 107.909 43.8009C109.7 42.6143 111.437 41.9476 113.12 41.8009C114.803 41.6541 116.382 41.9514 117.856 42.6925C119.335 43.4156 120.673 44.5049 121.871 45.9604L118.745 48.0317C117.859 47.0249 116.948 46.262 116.011 45.7427C115.067 45.2126 114.071 44.9821 113.023 45.0513C111.976 45.1204 110.839 45.5613 109.612 46.374C108.56 47.0716 107.764 47.8873 107.227 48.8212C106.701 49.7479 106.411 50.7602 106.357 51.858C106.314 52.9487 106.498 54.0996 106.909 55.3108C107.321 56.522 107.944 57.7573 108.777 59.0166L110.362 61.4106C111.132 62.5722 111.973 63.5842 112.888 64.4465C113.813 65.3017 114.781 65.9492 115.791 66.3893C116.8 66.8293 117.838 67.0165 118.903 66.951C119.961 66.8747 121.017 66.4877 122.07 65.7901C123.405 64.9056 124.328 63.9891 124.841 63.0406C125.353 62.0922 125.547 61.0887 125.424 60.0301C125.312 58.9642 124.976 57.8201 124.416 56.5976Z" fill="white"/>
<path d="M140.014 43.426L133.543 46.6004L132.176 43.8994L138.05 41.0175C139.02 40.5415 139.787 39.962 140.351 39.279C140.916 38.5961 141.247 37.8532 141.347 37.0502C141.452 36.2299 141.296 35.3929 140.877 34.5395C140.419 33.6042 139.865 32.9331 139.216 32.5264C138.573 32.1022 137.817 31.9363 136.949 32.0287C136.087 32.1037 135.094 32.4165 133.972 32.9671L128.992 35.4103L140.153 58.1731L136.768 59.8334L124.25 34.2998L132.614 30.1962C133.923 29.5539 135.158 29.1148 136.318 28.879C137.473 28.6315 138.545 28.6135 139.533 28.8248C140.527 29.0187 141.42 29.4506 142.213 30.1206C143.005 30.7905 143.694 31.7217 144.279 32.9142C144.794 33.9664 144.993 35.0512 144.874 36.1685C144.748 37.274 144.339 38.3309 143.644 39.339C142.96 40.3413 142.019 41.231 140.819 42.0082L140.014 43.426ZM145.711 55.446L138.066 59.1968L138.627 55.5058L144.361 52.6927C145.437 52.1651 146.257 51.5307 146.821 50.7895C147.398 50.0426 147.719 49.2326 147.784 48.3595C147.843 47.4747 147.643 46.5647 147.185 45.6294C146.72 44.6824 146.15 43.9472 145.472 43.4237C144.795 42.9003 144.002 42.6293 143.094 42.6107C142.186 42.5922 141.159 42.8639 140.014 43.426L135.192 45.7918L133.894 43.0563L140.487 39.8217L141.687 40.451C142.966 39.9541 144.179 39.7944 145.324 39.972C146.464 40.1378 147.48 40.5678 148.371 41.2618C149.274 41.95 149.995 42.8436 150.534 43.9426C151.314 45.5326 151.622 47.0492 151.46 48.4922C151.303 49.9179 150.734 51.2269 149.752 52.4191C148.765 53.5997 147.418 54.6087 145.711 55.446Z" fill="white"/>
<path d="M160.403 21.5647L159.759 49.1337L156.113 50.3631L157.303 19.9509L159.654 19.1584L160.403 21.5647ZM176.156 43.6044L158.941 22.0577L158.081 19.6888L160.431 18.8962L179.821 42.3688L176.156 43.6044ZM172.332 33.7843L173.317 36.7087L158.178 41.8136L157.193 38.8892L172.332 33.7843Z" fill="white"/>
<path d="M205.931 34.3278L206.471 37.3463L185.284 41.1373L184.744 38.1188L205.931 34.3278ZM185.34 38.0121L187.11 47.9137L183.438 48.5708L181.649 38.6727L185.34 38.0121ZM209.161 33.7498L210.889 43.639L207.217 44.2961L205.45 34.4138L209.161 33.7498ZM197.831 10.003L198.375 13.0407L186.108 15.2355L185.565 12.1978L197.831 10.003ZM201.023 9.43193L206.028 37.4254L202.337 38.0859L197.332 10.0924L201.023 9.43193ZM184.296 12.4248L188.007 11.7609L189.445 23.1307C189.67 24.8364 189.79 26.4288 189.803 27.9079C189.814 29.3743 189.745 30.7291 189.597 31.9726C189.449 33.216 189.228 34.3468 188.934 35.3651C188.638 36.3705 188.287 37.2599 187.883 38.0332C187.477 38.7938 187.024 39.4436 186.526 39.9826C186.037 40.5064 185.521 40.9097 184.976 41.1924L183.284 41.4951L182.744 38.4766L183.936 38.2633C184.206 37.8448 184.491 37.258 184.792 36.503C185.107 35.7457 185.379 34.7908 185.609 33.6385C185.85 32.471 185.991 31.0768 186.032 29.4557C186.086 27.8323 185.98 25.9464 185.715 23.7981L184.296 12.4248Z" fill="white"/>
<path d="M216.716 19.7625L224.465 19.4931C226.547 19.4208 228.316 19.711 229.772 20.364C231.227 21.0039 232.347 21.9356 233.133 23.1591C233.918 24.3825 234.339 25.8336 234.398 27.5123C234.441 28.7615 234.273 29.9139 233.892 30.9694C233.512 32.0119 232.925 32.9313 232.132 33.7276C231.338 34.5108 230.35 35.1315 229.167 35.5895C227.984 36.0345 226.612 36.2842 225.05 36.3384L214.431 36.7075L213.444 8.28719L217.211 8.15623L218.092 33.512L224.944 33.2739C226.336 33.2255 227.453 32.9326 228.294 32.3952C229.148 31.8444 229.762 31.1456 230.136 30.2987C230.511 29.4519 230.682 28.5535 230.649 27.6035C230.616 26.6536 230.384 25.7887 229.953 25.0089C229.522 24.2292 228.862 23.6202 227.974 23.182C227.098 22.7304 225.964 22.5288 224.572 22.5772L216.823 22.8466L216.716 19.7625Z" fill="white"/>
<path d="M259.698 9.68257L259.401 12.7542L245.754 11.4341L243.315 36.668L239.582 36.307L242.318 8.00141L259.698 9.68257ZM244.061 19.8061L251.779 20.5527C253.853 20.7533 255.569 21.2725 256.927 22.1102C258.286 22.935 259.275 24.0053 259.893 25.3209C260.512 26.6366 260.74 28.1304 260.579 29.8023C260.458 31.0465 260.141 32.1669 259.626 33.1636C259.112 34.1474 258.41 34.9821 257.52 35.6678C256.63 36.3405 255.57 36.8266 254.337 37.126C253.106 37.4124 251.713 37.4804 250.158 37.33L239.582 36.307L242.318 8.00141L246.07 8.36435L243.629 33.6177L250.453 34.2778C251.839 34.4119 252.985 34.2676 253.889 33.8449C254.808 33.4105 255.508 32.798 255.99 32.0074C256.472 31.2168 256.758 30.3484 256.85 29.4023C256.941 28.4562 256.824 27.5684 256.499 26.739C256.174 25.9095 255.599 25.2195 254.776 24.6689C253.967 24.1067 252.869 23.7585 251.482 23.6243L243.765 22.8778L244.061 19.8061Z" fill="white"/>
<path d="M272.106 23.4317L279.62 25.3465C281.639 25.861 283.255 26.6358 284.47 27.6708C285.687 28.6933 286.501 29.9019 286.912 31.2965C287.323 32.6911 287.321 34.2023 286.906 35.83C286.598 37.0413 286.113 38.1003 285.452 39.0068C284.795 39.9008 283.974 40.6187 282.989 41.1606C282.008 41.6898 280.885 42.0084 279.622 42.1164C278.361 42.2117 276.974 42.0665 275.46 41.6806L265.164 39.0567L272.182 11.4989L275.835 12.4298L269.574 37.0161L276.217 38.709C277.567 39.0531 278.721 39.0852 279.679 38.8053C280.653 38.516 281.438 38.0174 282.035 37.3096C282.632 36.6017 283.047 35.7872 283.282 34.8661C283.517 33.945 283.536 33.0497 283.341 32.1803C283.146 31.3109 282.684 30.5414 281.954 29.8717C281.24 29.1926 280.208 28.681 278.858 28.337L271.344 26.4222L272.106 23.4317ZM298.812 18.2852L291.793 45.8431L288.141 44.9122L295.159 17.3543L298.812 18.2852Z" fill="white"/>
<path d="M363.107 77.0646L366.023 79.4229C364.741 80.6975 363.331 81.6247 361.791 82.2044C360.251 82.7841 358.626 82.919 356.918 82.609C355.218 82.2889 353.482 81.4124 351.71 79.9794C350.414 78.9313 349.431 77.7343 348.761 76.3884C348.101 75.0507 347.752 73.6292 347.713 72.124C347.682 70.6086 347.967 69.0552 348.567 67.4638C349.185 65.8704 350.12 64.2991 351.372 62.7498L353.153 60.5473C354.405 58.9979 355.741 57.7592 357.161 56.8311C358.599 55.901 360.067 55.2965 361.565 55.0176C363.073 54.7468 364.57 54.8106 366.057 55.2089C367.543 55.6072 368.969 56.3591 370.336 57.4646C372.007 58.8157 373.165 60.2719 373.812 61.8332C374.458 63.3945 374.65 64.9901 374.388 66.6199C374.143 68.2477 373.508 69.8522 372.481 71.4332L369.565 69.0749C370.259 67.9274 370.712 66.8284 370.924 65.778C371.145 64.7175 371.065 63.6981 370.684 62.7199C370.303 61.7416 369.54 60.7898 368.396 59.8645C367.414 59.0702 366.397 58.5574 365.345 58.3262C364.303 58.1031 363.251 58.1311 362.188 58.4103C361.136 58.6976 360.094 59.22 359.063 59.9773C358.032 60.7346 357.042 61.7005 356.093 62.8752L354.288 65.1081C353.412 66.1916 352.701 67.2994 352.154 68.4314C351.618 69.5716 351.292 70.6895 351.176 71.7852C351.061 72.8808 351.195 73.927 351.578 74.9235C351.969 75.91 352.656 76.8003 353.638 77.5946C354.883 78.6018 356.035 79.2068 357.093 79.4097C358.151 79.6125 359.167 79.4958 360.139 79.0595C361.121 78.6315 362.11 77.9665 363.107 77.0646Z" fill="white"/>
<path d="M381.06 88.7026L376.096 83.4776L378.263 81.3634L382.77 86.1069C383.514 86.8904 384.297 87.4492 385.117 87.7833C385.937 88.1173 386.745 88.2116 387.541 88.066C388.355 87.9209 389.106 87.5209 389.795 86.866C390.55 86.1482 391.024 85.4188 391.218 84.6776C391.43 83.9368 391.363 83.1659 391.015 82.3649C390.685 81.5643 390.09 80.7109 389.229 79.8047L385.408 75.7833L367.035 93.251L364.439 90.5182L385.048 70.9242L391.465 77.6784C392.47 78.7357 393.258 79.7828 393.83 80.8199C394.412 81.8479 394.75 82.8652 394.844 83.8717C394.956 84.8786 394.812 85.8606 394.41 86.8176C394.008 87.7746 393.326 88.7106 392.363 89.6257C391.514 90.4331 390.538 90.9472 389.437 91.1679C388.345 91.3796 387.214 91.3048 386.045 90.9434C384.884 90.5915 383.754 89.9594 382.654 89.0471L381.06 88.7026ZM371.299 97.7396L365.434 91.566L369.123 90.9966L373.522 95.6268C374.347 96.4952 375.197 97.088 376.073 97.4051C376.958 97.7316 377.827 97.7951 378.679 97.5957C379.541 97.3873 380.349 96.9243 381.104 96.2066C381.868 95.4799 382.399 94.715 382.696 93.9119C382.992 93.1088 383.014 92.2711 382.76 91.3987C382.506 90.5264 381.939 89.6277 381.06 88.7026L377.361 84.8086L379.582 82.7511L384.64 88.0751L384.399 89.4093C385.255 90.4812 385.771 91.5905 385.944 92.7371C386.127 93.8748 386.021 94.9729 385.625 96.0314C385.239 97.0993 384.602 98.055 383.715 98.8983C382.432 100.118 381.078 100.867 379.652 101.144C378.246 101.421 376.827 101.27 375.396 100.69C373.974 100.101 372.609 99.1178 371.299 97.7396Z" fill="white"/>
<path d="M407.594 101.101L381.128 108.834L378.854 105.73L408.194 97.658L409.66 99.6588L407.594 101.101ZM391.357 122.792L406.682 99.8568L408.679 98.3197L410.145 100.32L393.642 125.912L391.357 122.792ZM399.558 116.173L397.069 117.998L387.626 105.111L390.114 103.286L399.558 116.173Z" fill="white"/>
<path d="M409.117 148.211L406.406 149.643L396.362 130.606L399.074 129.175L409.117 148.211ZM399.356 129.71L390.461 134.406L388.721 131.107L397.607 126.393L399.356 129.71ZM410.649 151.113L401.753 155.766L400.012 152.466L408.89 147.779L410.649 151.113ZM429.831 133.101L427.102 134.542L421.287 123.521L424.016 122.08L429.831 133.101ZM431.344 135.969L406.196 149.245L404.446 145.929L429.594 132.652L431.344 135.969ZM423.415 120.94L425.174 124.274L414.779 129.099C413.223 129.832 411.742 130.43 410.337 130.892C408.943 131.348 407.632 131.695 406.402 131.931C405.173 132.168 404.029 132.301 402.969 132.33C401.921 132.354 400.968 132.29 400.109 132.14C399.261 131.984 398.504 131.75 397.839 131.439C397.192 131.133 396.651 130.763 396.216 130.33L395.414 128.81L398.126 127.378L398.691 128.449C399.172 128.578 399.817 128.672 400.628 128.73C401.445 128.799 402.437 128.768 403.605 128.638C404.79 128.513 406.161 128.223 407.718 127.769C409.281 127.327 411.045 126.653 413.011 125.748L423.415 120.94Z" fill="white"/>
<path d="M425.944 153.195L428.558 160.495C429.26 162.457 429.522 164.23 429.343 165.816C429.176 167.397 428.629 168.748 427.703 169.868C426.776 170.988 425.522 171.832 423.941 172.399C422.764 172.82 421.615 173.01 420.494 172.97C419.386 172.924 418.331 172.645 417.332 172.132C416.344 171.614 415.452 170.862 414.656 169.875C413.872 168.883 413.217 167.652 412.69 166.181L409.109 156.177L435.88 146.585L437.15 150.134L413.266 158.692L415.577 165.146C416.047 166.458 416.665 167.433 417.433 168.07C418.218 168.716 419.07 169.088 419.991 169.187C420.911 169.286 421.819 169.175 422.714 168.855C423.609 168.534 424.362 168.05 424.973 167.402C425.585 166.754 425.965 165.94 426.112 164.961C426.276 163.989 426.123 162.848 425.653 161.536L423.039 154.236L425.944 153.195Z" fill="white"/>
<path d="M448.727 191.553L445.71 192.201L442.834 178.795L418.047 184.116L417.261 180.449L445.065 174.481L448.727 191.553ZM434.343 179.719L435.969 187.3C436.406 189.337 436.431 191.13 436.044 192.678C435.67 194.223 434.949 195.49 433.883 196.478C432.816 197.466 431.462 198.136 429.82 198.489C428.598 198.751 427.434 198.788 426.328 198.599C425.235 198.407 424.226 197.991 423.303 197.35C422.393 196.707 421.608 195.843 420.95 194.759C420.304 193.673 419.817 192.366 419.489 190.838L417.261 180.449L445.065 174.481L445.855 178.166L421.049 183.491L422.487 190.194C422.779 191.557 423.264 192.604 423.941 193.338C424.633 194.082 425.429 194.564 426.328 194.783C427.228 195.003 428.142 195.013 429.071 194.814C430.001 194.614 430.811 194.234 431.503 193.672C432.195 193.111 432.679 192.355 432.954 191.403C433.245 190.462 433.244 189.31 432.952 187.948L431.326 180.366L434.343 179.719Z" fill="white"/>
<path d="M439.276 206.882L439.754 214.621C439.882 216.701 439.64 218.477 439.026 219.95C438.426 221.422 437.525 222.567 436.323 223.385C435.121 224.203 433.682 224.663 432.005 224.767C430.758 224.844 429.601 224.707 428.536 224.355C427.484 224.003 426.549 223.441 425.731 222.67C424.927 221.898 424.28 220.927 423.79 219.757C423.313 218.586 423.027 217.221 422.93 215.661L422.275 205.057L450.659 203.302L450.891 207.064L425.568 208.63L425.991 215.472C426.077 216.863 426.4 217.971 426.96 218.798C427.533 219.636 428.248 220.231 429.105 220.583C429.962 220.934 430.864 221.081 431.813 221.022C432.762 220.963 433.62 220.708 434.388 220.256C435.156 219.804 435.747 219.128 436.161 218.229C436.589 217.341 436.76 216.202 436.674 214.812L436.196 207.072L439.276 206.882ZM452.353 230.73L423.97 232.485L423.738 228.722L452.121 226.967L452.353 230.73Z" fill="white"/>
</svg>
